<svg width="175" height="325" viewBox="0 0 175 325" fill="none" xmlns="http://www.w3.org/2000/svg">
<g clip-path="url(#clip0_1226_1195)">
<g style="mix-blend-mode:multiply">
<path d="M165.707 321.453C132.785 304.463 127.693 302.555 95.3856 295.111C72.9123 289.932 46.221 275.262 32.3731 260.477C22.5256 249.964 0.448497 219.221 1.4568 217.426C2.58913 215.414 4.29512 216.173 9.96736 221.214C17.8685 228.236 30.0944 234.106 48.9665 239.94C82.4647 250.294 90.8109 254.976 112.671 275.672C119.842 282.462 126.461 288.322 127.379 288.694C129.619 289.606 112.737 265.868 105.635 258.126C102.529 254.739 92.2648 245.634 82.8265 237.893C39.767 202.578 20.0538 177.088 7.2405 140.156C0.543667 120.854 1.46275 117.897 10.4326 129.887C15.3519 136.463 29.7387 149.935 52.96 169.712C59.5164 175.296 68.4273 184.696 72.979 190.829L81.182 201.884L75.8837 185.718C71.8902 173.534 69.3616 168.402 65.6171 164.88C42.5519 143.184 40.1975 104.769 57.7539 36.5938C60.3178 26.6377 62.8474 14.7903 63.3752 10.2662C64.3399 1.99691 65.6793 -0.315367 68.7567 0.977183C70.7621 1.81947 75.0307 20.7399 78.2146 42.8992C80.8398 61.1704 80.4663 80.3231 76.7605 117.459C73.6909 148.22 74.2719 161.665 79.4337 179.308C83.5128 193.25 89.7996 210.287 91.0608 210.817C91.4618 210.985 91.1337 205.891 90.3314 199.497C87.4264 176.347 89.8364 156.83 100.154 119.95C103.164 109.192 106.495 94.9765 107.556 88.3595C108.811 80.5335 110.204 75.8947 111.542 75.087C113.13 74.1289 113.737 74.9699 114.203 78.7688C114.535 81.4768 117.083 95.2327 119.864 109.338C126.898 145.015 127.009 152.397 121.027 186.598C118.396 201.641 116.677 208.31 112.104 221.222C110.644 225.346 109.107 232.194 108.689 236.44C107.997 243.486 108.624 245.245 115.88 256.6C134.304 285.433 145.827 299.275 163.771 314.128C177.334 325.355 177.976 327.786 165.707 321.454L165.707 321.453Z" fill="#F8F7F2"/>
</g>
</g>
<defs>
<clipPath id="clip0_1226_1195">
<rect width="174" height="325" fill="white" transform="translate(0.796875)"/>
</clipPath>
</defs>
</svg>
