<svg width="174" height="325" viewBox="0 0 174 325" fill="none" xmlns="http://www.w3.org/2000/svg">
<g style="mix-blend-mode:multiply">
<path d="M8.87135 321.453C41.7931 304.463 46.8847 302.555 79.1926 295.111C101.666 289.932 128.357 275.262 142.205 260.477C152.052 249.964 174.13 219.221 173.121 217.426C171.989 215.414 170.283 216.173 164.611 221.214C156.71 228.236 144.484 234.106 125.612 239.94C92.1135 250.294 83.7672 254.976 61.9076 275.672C54.7359 282.462 48.1173 288.322 47.1994 288.694C44.9592 289.606 61.8411 265.868 68.9427 258.126C72.0494 254.739 82.3134 245.634 91.7516 237.893C134.811 202.578 154.524 177.088 167.338 140.156C174.034 120.854 173.115 117.897 164.146 129.887C159.226 136.463 144.839 149.935 121.618 169.712C115.062 175.296 106.151 184.696 101.599 190.829L93.3962 201.884L98.6945 185.718C102.688 173.534 105.217 168.402 108.961 164.88C132.026 143.184 134.381 104.769 116.824 36.5938C114.26 26.6377 111.731 14.7903 111.203 10.2662C110.238 1.99691 108.899 -0.315367 105.821 0.977183C103.816 1.81947 99.5474 20.7399 96.3636 42.8992C93.7383 61.1704 94.1118 80.3231 97.8176 117.459C100.887 148.22 100.306 161.665 95.1444 179.308C91.0653 193.25 84.7786 210.287 83.5173 210.817C83.1163 210.985 83.4444 205.891 84.2467 199.497C87.1517 176.347 84.7417 156.83 74.4238 119.95C71.4141 109.192 68.0833 94.9765 67.0222 88.3595C65.7672 80.5335 64.3739 75.8947 63.0357 75.087C61.4485 74.1289 60.8408 74.9699 60.3748 78.7688C60.0427 81.4768 57.4955 95.2327 54.7146 109.338C47.6801 145.015 47.569 152.397 53.5511 186.598C56.1823 201.641 57.9009 208.31 62.4737 221.222C63.9344 225.346 65.4711 232.194 65.8886 236.44C66.5815 243.486 65.9541 245.245 58.6983 256.6C40.2742 285.433 28.7508 299.275 10.8072 314.128C-2.75551 325.355 -3.39794 327.786 8.87119 321.454L8.87135 321.453Z" fill="#F8F7F2"/>
</g>
</svg>
