<svg width="75" height="21" viewBox="0 0 75 21" fill="none" xmlns="http://www.w3.org/2000/svg">
<path d="M7.30799 9.63211e-05C9.19333 9.63211e-05 10.78 0.634763 12.068 1.9041C13.356 3.17343 14 4.7321 14 6.5801C14 8.4281 13.356 9.98676 12.068 11.2561C10.78 12.5254 9.19333 13.1601 7.30799 13.1601H3.86399V19.6001H-7.18236e-06V9.63211e-05H7.30799ZM7.30799 9.5481C8.12933 9.5481 8.81066 9.2681 9.35199 8.7081C9.89333 8.12943 10.164 7.4201 10.164 6.5801C10.164 5.72143 9.89333 5.0121 9.35199 4.4521C8.81066 3.8921 8.12933 3.6121 7.30799 3.6121H3.86399V9.5481H7.30799ZM26.3379 5.6001H29.9499V19.6001H26.3379V17.9481C25.2553 19.3108 23.7339 19.9921 21.7739 19.9921C19.9073 19.9921 18.3019 19.2828 16.9579 17.8641C15.6326 16.4268 14.9699 14.6721 14.9699 12.6001C14.9699 10.5281 15.6326 8.78276 16.9579 7.3641C18.3019 5.92676 19.9073 5.2081 21.7739 5.2081C23.7339 5.2081 25.2553 5.88943 26.3379 7.2521V5.6001ZM19.6739 15.4561C20.4019 16.1841 21.3259 16.5481 22.4459 16.5481C23.5659 16.5481 24.4899 16.1841 25.2179 15.4561C25.9646 14.7094 26.3379 13.7574 26.3379 12.6001C26.3379 11.4428 25.9646 10.5001 25.2179 9.7721C24.4899 9.02543 23.5659 8.6521 22.4459 8.6521C21.3259 8.6521 20.4019 9.02543 19.6739 9.7721C18.9459 10.5001 18.5819 11.4428 18.5819 12.6001C18.5819 13.7574 18.9459 14.7094 19.6739 15.4561ZM41.2893 5.2081C42.8199 5.2081 44.0799 5.72143 45.0693 6.7481C46.0773 7.77476 46.5813 9.19343 46.5813 11.0041V19.6001H42.9693V11.4521C42.9693 10.5188 42.7173 9.80943 42.2133 9.3241C41.7093 8.8201 41.0373 8.5681 40.1973 8.5681C39.2639 8.5681 38.5173 8.85743 37.9573 9.4361C37.3973 10.0148 37.1173 10.8828 37.1173 12.0401V19.6001H33.5053V5.6001H37.1173V7.1681C37.9946 5.86143 39.3853 5.2081 41.2893 5.2081ZM57.9534 9.0721H54.7894V14.8961C54.7894 15.3814 54.9108 15.7361 55.1534 15.9601C55.3961 16.1841 55.7508 16.3148 56.2174 16.3521C56.6841 16.3708 57.2628 16.3614 57.9534 16.3241V19.6001C55.4708 19.8801 53.7161 19.6468 52.6894 18.9001C51.6814 18.1534 51.1774 16.8188 51.1774 14.8961V9.0721H48.7414V5.6001H51.1774V2.7721L54.7894 1.6801V5.6001H57.9534V9.0721ZM72.2706 17.8641C70.8333 19.2828 69.0786 19.9921 67.0066 19.9921C64.9346 19.9921 63.18 19.2828 61.7426 17.8641C60.3239 16.4268 59.6146 14.6721 59.6146 12.6001C59.6146 10.5281 60.3239 8.78276 61.7426 7.3641C63.18 5.92676 64.9346 5.2081 67.0066 5.2081C69.0786 5.2081 70.8333 5.92676 72.2706 7.3641C73.708 8.78276 74.4266 10.5281 74.4266 12.6001C74.4266 14.6721 73.708 16.4268 72.2706 17.8641ZM64.2906 15.3721C65.0186 16.1001 65.924 16.4641 67.0066 16.4641C68.0893 16.4641 68.9946 16.1001 69.7226 15.3721C70.4506 14.6441 70.8146 13.7201 70.8146 12.6001C70.8146 11.4801 70.4506 10.5561 69.7226 9.8281C68.9946 9.1001 68.0893 8.7361 67.0066 8.7361C65.924 8.7361 65.0186 9.1001 64.2906 9.8281C63.5813 10.5561 63.2266 11.4801 63.2266 12.6001C63.2266 13.7201 63.5813 14.6441 64.2906 15.3721Z" fill="white" style="fill:white;fill-opacity:1;"/>
</svg>
