<svg width="19" height="19" viewBox="0 0 19 19" fill="none" xmlns="http://www.w3.org/2000/svg">
<path d="M13.6474 10.9051C13.4502 11.0963 13.3595 11.3728 13.4045 11.6439L14.0815 15.3911C14.1386 15.7087 14.0046 16.0301 13.7388 16.2136C13.4783 16.404 13.1318 16.4269 12.8477 16.2745L9.47455 14.5152C9.35726 14.4528 9.22703 14.4192 9.09375 14.4154H8.88735C8.81576 14.4261 8.74569 14.4489 8.68171 14.484L5.30778 16.2517C5.14099 16.3355 4.95211 16.3652 4.76704 16.3355C4.31617 16.2502 4.01533 15.8206 4.08921 15.3675L4.76704 11.6203C4.81197 11.3469 4.72134 11.0689 4.52409 10.8747L1.77391 8.20902C1.54391 7.98587 1.46394 7.65076 1.56904 7.34839C1.6711 7.04679 1.93157 6.82669 2.24611 6.77718L6.03131 6.22806C6.3192 6.19835 6.57205 6.02318 6.70153 5.76423L8.36945 2.34457C8.40906 2.26841 8.46009 2.19834 8.52178 2.13893L8.59032 2.08562C8.62612 2.04602 8.66724 2.01327 8.71294 1.98661L8.79596 1.95615L8.92543 1.90283H9.24607C9.53243 1.93254 9.78453 2.1039 9.91628 2.3598L11.6063 5.76423C11.7282 6.01328 11.965 6.18617 12.2384 6.22806L16.0236 6.77718C16.3435 6.82288 16.6108 7.04375 16.7167 7.34839C16.8165 7.6538 16.7304 7.98891 16.4958 8.20902L13.6474 10.9051Z" fill="#F6B76F" style="fill:#F6B76F;fill:color(display-p3 0.9647 0.7176 0.4353);fill-opacity:1;"/>
</svg>
