<svg width="148" height="33" viewBox="0 0 148 33" fill="none" xmlns="http://www.w3.org/2000/svg">
<path d="M12.98 24.0241C12.98 26.5761 11.704 28.4241 9.01997 28.4241C6.33597 28.4241 5.10397 26.5761 5.05997 24.0241H-3.50028e-05C-3.50028e-05 29.5681 3.73997 32.8681 9.01997 32.8681C14.3 32.8681 18.04 29.5681 18.04 24.0241V1.98006H12.98V24.0241ZM24.5279 20.3281C24.5279 27.8081 29.5879 32.9561 35.8799 32.9561C39.9279 32.9561 42.8319 31.0201 44.3719 28.9521V32.5601H49.4319V8.31606H44.3719V11.8361C42.8759 9.85606 40.0599 7.92006 35.9679 7.92006C29.5879 7.92006 24.5279 12.8481 24.5279 20.3281ZM44.3719 20.4161C44.3719 25.6521 40.8079 28.6001 37.0239 28.6001C33.2839 28.6001 29.6759 25.5641 29.6759 20.3281C29.6759 15.0921 33.2839 12.2761 37.0239 12.2761C40.8079 12.2761 44.3719 15.2241 44.3719 20.4161ZM54.3482 20.3281C54.3482 27.8081 59.4082 32.9561 65.7882 32.9561C69.7482 32.9561 72.6522 31.1081 74.1922 28.9081V32.5601H79.2522V5.81741e-05H74.1922V11.7041C72.3442 9.41606 69.0002 7.92006 65.8322 7.92006C59.4082 7.92006 54.3482 12.8481 54.3482 20.3281ZM74.1922 20.4161C74.1922 25.6521 70.6282 28.6001 66.8442 28.6001C63.1042 28.6001 59.4962 25.5641 59.4962 20.3281C59.4962 15.0921 63.1042 12.2761 66.8442 12.2761C70.6282 12.2761 74.1922 15.2241 74.1922 20.4161ZM108.941 20.4161C108.941 12.8041 103.485 7.92006 96.5765 7.92006C89.6685 7.92006 84.2125 12.8041 84.2125 20.4161C84.2125 28.0281 89.4485 32.9561 96.3565 32.9561C103.309 32.9561 108.941 28.0281 108.941 20.4161ZM89.3165 20.4161C89.3165 14.9161 92.7045 12.2761 96.4885 12.2761C100.229 12.2761 103.793 14.9161 103.793 20.4161C103.793 25.9161 100.097 28.6001 96.3565 28.6001C92.5725 28.6001 89.3165 25.9161 89.3165 20.4161ZM136.999 20.4161C136.999 12.8041 131.543 7.92006 124.635 7.92006C117.727 7.92006 112.271 12.8041 112.271 20.4161C112.271 28.0281 117.507 32.9561 124.415 32.9561C131.367 32.9561 136.999 28.0281 136.999 20.4161ZM117.375 20.4161C117.375 14.9161 120.763 12.2761 124.547 12.2761C128.287 12.2761 131.851 14.9161 131.851 20.4161C131.851 25.9161 128.155 28.6001 124.415 28.6001C120.631 28.6001 117.375 25.9161 117.375 20.4161ZM147.15 29.6561C147.15 27.8521 145.742 26.4441 143.982 26.4441C142.178 26.4441 140.77 27.8521 140.77 29.6561C140.77 31.4601 142.178 32.8681 143.982 32.8681C145.742 32.8681 147.15 31.4601 147.15 29.6561Z" fill="#181E4B"/>
</svg>
