<svg width="105" height="105" viewBox="0 0 105 105" fill="none" xmlns="http://www.w3.org/2000/svg">
<path d="M77.5 15.5H28.5C22.701 15.5 18 20.201 18 26V75C18 80.799 22.701 85.5 28.5 85.5H77.5C83.299 85.5 88 80.799 88 75V26C88 20.201 83.299 15.5 77.5 15.5Z" fill="#7289DA"/>
<path d="M65.3047 69.0938L62.4336 65.6758C68.0391 64.1719 70.2266 60.3438 70.2266 60.3438C63.1172 67.043 43.7031 67.3164 36.1836 60.3438C36.1836 60.3438 38.0977 63.8984 43.8398 65.6758L40.6953 69.0938C31.125 68.957 27.4336 62.5312 27.4336 62.5312C27.4336 48.3125 33.7227 36.9648 33.7227 36.9648C40.1484 32.4531 46.0273 32.4531 46.0273 32.4531L46.4375 33C38.5078 35.1875 35.0898 38.7422 35.0898 38.7422C44.3867 32.4531 63.5273 33 71.0469 38.7422C71.1836 38.6055 66.5352 34.9141 59.2891 33L59.9727 32.4531C59.9727 32.4531 65.8516 32.4531 72.2773 36.9648C72.2773 36.9648 78.5664 48.3125 78.5664 62.5312C78.5664 62.5312 74.875 68.957 65.3047 69.0938Z" fill="white"/>
<path d="M44.7969 58.4297C47.2886 58.4297 49.3086 56.2873 49.3086 53.6445C49.3086 51.0018 47.2886 48.8594 44.7969 48.8594C42.3051 48.8594 40.2852 51.0018 40.2852 53.6445C40.2852 56.2873 42.3051 58.4297 44.7969 58.4297Z" fill="#7289DA"/>
<path d="M60.6562 58.4297C63.148 58.4297 65.168 56.2873 65.168 53.6445C65.168 51.0018 63.148 48.8594 60.6562 48.8594C58.1645 48.8594 56.1445 51.0018 56.1445 53.6445C56.1445 56.2873 58.1645 58.4297 60.6562 58.4297Z" fill="#7289DA"/>
</svg>
