<svg width="70" height="70" viewBox="0 0 24 24" fill="none" xmlns="http://www.w3.org/2000/svg">
<g clip-path="url(#clip0_2_4)">
<path d="M20.4 0H3.6C1.61177 0 0 1.61177 0 3.6V20.4C0 22.3882 1.61177 24 3.6 24H20.4C22.3882 24 24 22.3882 24 20.4V3.6C24 1.61177 22.3882 0 20.4 0Z" fill="#0F287F"/>
<path d="M7.88713 16.272L11.735 18.66L15.5829 16.272L11.735 13.922L7.88713 16.272ZM7.88713 6L4 8.38796L15.5829 15.514L19.47 13.126L11.735 8.38796L15.5829 6L19.47 8.38796L7.88713 15.514L4 13.126L11.735 8.38796" fill="#DAF8FE"/>
</g>
<defs>
<clipPath id="clip0_2_4">
<rect width="24" height="24" rx="12" fill="white"/>
</clipPath>
</defs>
</svg>
