<svg width="70" height="70" viewBox="0 0 70 70" fill="none" xmlns="http://www.w3.org/2000/svg">
<g clip-path="url(#clip0_4_5)">
<path d="M59.5 0H10.5C4.70101 0 0 4.70101 0 10.5V59.5C0 65.299 4.70101 70 10.5 70H59.5C65.299 70 70 65.299 70 59.5V10.5C70 4.70101 65.299 0 59.5 0Z" fill="#3290E8"/>
<path d="M49.7368 36.9737C49.7378 37.1581 49.6999 37.3407 49.6257 37.5096C49.5515 37.6784 49.4426 37.8298 49.3062 37.9539C49.1697 38.078 49.0086 38.172 48.8335 38.2298C48.6583 38.2876 48.473 38.3079 48.2895 38.2895C47.9405 38.2895 47.6058 38.1508 47.3591 37.9041C47.1123 37.6573 46.9737 37.3227 46.9737 36.9737V25C46.9737 24.651 47.1123 24.3164 47.3591 24.0696C47.6058 23.8228 47.9405 23.6842 48.2895 23.6842C48.6842 23.6842 49.0789 23.8158 49.3421 24.0789C49.6053 24.3421 49.7368 24.6053 49.7368 25V36.9737ZM49.2105 45.2632C49.0789 45.5263 44.0789 49.6053 35 49.6053C25.921 49.6053 21.0526 45.5263 20.7895 45.2632C20.6347 45.1593 20.5038 45.0237 20.4054 44.8653C20.307 44.707 20.2434 44.5296 20.2187 44.3449C20.1941 44.1601 20.2089 43.9722 20.2624 43.7936C20.3158 43.6151 20.4066 43.4499 20.5286 43.309C20.6507 43.1682 20.8013 43.0549 20.9705 42.9766C21.1397 42.8983 21.3235 42.8569 21.5099 42.855C21.6963 42.8532 21.8809 42.891 22.0516 42.9659C22.2223 43.0408 22.3752 43.1511 22.5 43.2895C22.6316 43.4211 26.9737 46.9737 35 46.9737C43.0263 46.9737 47.5 43.2895 47.5 43.2895C47.7628 43.0651 48.1033 42.9532 48.448 42.9778C48.7927 43.0024 49.1138 43.1616 49.3421 43.4211C49.5664 43.6839 49.6784 44.0244 49.6538 44.3691C49.6292 44.7137 49.4699 45.0349 49.2105 45.2632ZM20.3947 25C20.3947 24.651 20.5334 24.3164 20.7801 24.0696C21.0269 23.8228 21.3616 23.6842 21.7105 23.6842C22.0595 23.6842 22.3942 23.8228 22.6409 24.0696C22.8877 24.3164 23.0263 24.651 23.0263 25V36.9737C23.0263 37.3227 22.8877 37.6573 22.6409 37.9041C22.3942 38.1508 22.0595 38.2895 21.7105 38.2895C21.3616 38.2895 21.0269 38.1508 20.7801 37.9041C20.5334 37.6573 20.3947 37.3227 20.3947 36.9737V25ZM26.9737 22.3684C26.9728 22.184 27.0106 22.0014 27.0848 21.8325C27.159 21.6637 27.2679 21.5123 27.4044 21.3882C27.5408 21.2641 27.7019 21.1702 27.877 21.1123C28.0522 21.0545 28.2375 21.0342 28.421 21.0526C28.77 21.0526 29.1047 21.1913 29.3515 21.438C29.5982 21.6848 29.7368 22.0195 29.7368 22.3684V40.1316C29.7378 40.316 29.6999 40.4986 29.6257 40.6675C29.5515 40.8363 29.4426 40.9877 29.3062 41.1118C29.1697 41.2359 29.0086 41.3298 28.8335 41.3877C28.6583 41.4455 28.473 41.4658 28.2895 41.4474C27.9405 41.4474 27.6058 41.3087 27.3591 41.062C27.1123 40.8152 26.9737 40.4805 26.9737 40.1316V22.3684ZM33.6842 21.7105C33.6842 21.3616 33.8228 21.0269 34.0696 20.7801C34.3163 20.5334 34.651 20.3947 35 20.3947C35.1835 20.3763 35.3689 20.3966 35.544 20.4544C35.7192 20.5123 35.8802 20.6063 36.0167 20.7303C36.1532 20.8544 36.262 21.0058 36.3362 21.1746C36.4104 21.3435 36.4483 21.5261 36.4474 21.7105V40.9211C36.4681 41.1162 36.4449 41.3135 36.3795 41.4985C36.3141 41.6836 36.2081 41.8516 36.0693 41.9904C35.9306 42.1292 35.7625 42.2351 35.5775 42.3005C35.3925 42.366 35.1951 42.3891 35 42.3684C34.8156 42.3693 34.633 42.3315 34.4641 42.2573C34.2952 42.1831 34.1439 42.0742 34.0198 41.9377C33.8957 41.8013 33.8017 41.6402 33.7439 41.4651C33.6861 41.2899 33.6658 41.1046 33.6842 40.9211V21.7105ZM40.3947 22.3684C40.3947 22.0195 40.5334 21.6848 40.7801 21.438C41.0269 21.1913 41.3615 21.0526 41.7105 21.0526C42.0595 21.0526 42.3942 21.1913 42.6409 21.438C42.8877 21.6848 43.0263 22.0195 43.0263 22.3684V40.1316C43.0263 40.4805 42.8877 40.8152 42.6409 41.062C42.3942 41.3087 42.0595 41.4474 41.7105 41.4474C41.3615 41.4474 41.0269 41.3087 40.7801 41.062C40.5334 40.8152 40.3947 40.4805 40.3947 40.1316V22.3684ZM50 15H20C19.0053 15.0086 18.0358 15.3136 17.2155 15.8762C16.3951 16.4387 15.7612 17.2331 15.3947 18.1579C15.1316 18.6842 15 19.3421 15 20V50C15.0086 50.9947 15.3136 51.9642 15.8762 52.7845C16.4387 53.6049 17.2331 54.2388 18.1579 54.6053C18.6842 54.8684 19.3421 55 20 55H50C50.9947 54.9914 51.9642 54.6864 52.7845 54.1238C53.6049 53.5613 54.2388 52.7669 54.6053 51.8421C54.8684 51.3158 55 50.6579 55 50V20C55.0022 19.0203 54.7166 18.0616 54.1785 17.2428C53.6405 16.4241 52.8738 15.7815 51.9737 15.3947L50 15Z" fill="white"/>
</g>
<defs>
<clipPath id="clip0_4_5">
<rect width="70" height="70" rx="35" fill="white"/>
</clipPath>
</defs>
</svg>
