<svg width="99" height="99" viewBox="0 0 99 99" fill="none" xmlns="http://www.w3.org/2000/svg">
<path d="M28.9051 58.1432C28.9051 62.1518 25.6359 65.4259 21.6267 65.4259C17.6181 65.4259 14.3445 62.1518 14.3445 58.1432C14.3445 54.1346 17.6187 50.8605 21.6273 50.8605H28.9056L28.9051 58.1432ZM32.5741 58.1432C32.5741 54.1346 35.8482 50.8605 39.8568 50.8605C43.8654 50.8605 47.1395 54.1341 47.1395 58.1432V76.3733C47.1395 80.3819 43.8659 83.656 39.8568 83.656C35.8482 83.656 32.5741 80.3819 32.5741 76.3733V58.1432Z" fill="#DE1C59"/>
<path d="M39.8568 28.9051C35.8482 28.9051 32.5741 25.6359 32.5741 21.6267C32.5741 17.6181 35.8482 14.3445 39.8568 14.3445C43.8654 14.3445 47.1395 17.6187 47.1395 21.6273V28.9056L39.8568 28.9051ZM39.8568 32.5741C43.8654 32.5741 47.1395 35.8482 47.1395 39.8568C47.1395 43.8654 43.8659 47.1395 39.8568 47.1395H21.6267C17.6181 47.1395 14.3445 43.866 14.3445 39.8568C14.3445 35.8482 17.6187 32.5741 21.6273 32.5741H39.8568Z" fill="#35C5F0"/>
<path d="M69.0949 39.8568C69.0949 35.8482 72.3641 32.5741 76.3733 32.5741C80.3819 32.5741 83.656 35.8482 83.656 39.8568C83.656 43.8654 80.3819 47.1395 76.3733 47.1395H69.0949V39.8568ZM65.4259 39.8568C65.4259 43.8654 62.1518 47.1395 58.1432 47.1395C54.1346 47.1395 50.8605 43.866 50.8605 39.8568V21.6267C50.8605 17.6181 54.1341 14.3445 58.1432 14.3445C62.1518 14.3445 65.4259 17.6187 65.4259 21.6273V39.8568Z" fill="#2EB57D"/>
<path d="M58.1432 69.0949C62.1518 69.0949 65.4259 72.3641 65.4259 76.3733C65.4259 80.3819 62.1518 83.656 58.1432 83.656C54.1346 83.656 50.8605 80.3819 50.8605 76.3733V69.0949H58.1432ZM58.1432 65.4259C54.1346 65.4259 50.8605 62.1518 50.8605 58.1432C50.8605 54.1346 54.1341 50.8605 58.1432 50.8605H76.3733C80.3819 50.8605 83.656 54.1341 83.656 58.1432C83.656 62.1518 80.3819 65.4259 76.3733 65.4259H58.1432Z" fill="#EBB02E"/>
</svg>
