<svg width="70" height="70" viewBox="0 0 56 56" fill="none" xmlns="http://www.w3.org/2000/svg">
<path d="M8.30792 13.5521C7 16.119 7 19.4794 7 26.2V29.8C7 36.5206 7 39.881 8.30792 42.4479C9.4584 44.7058 11.2942 46.5416 13.5521 47.6921C16.119 49 19.4794 49 26.2 49H29.8C36.5206 49 39.881 49 42.4479 47.6921C44.7058 46.5416 46.5416 44.7058 47.6921 42.4479C49 39.881 49 36.5206 49 29.8V26.2C49 19.4794 49 16.119 47.6921 13.5521C46.5416 11.2942 44.7058 9.4584 42.4479 8.30792C39.881 7 36.5206 7 29.8 7H26.2C19.4794 7 16.119 7 13.5521 8.30792C11.2942 9.4584 9.4584 11.2942 8.30792 13.5521Z" fill="url(#paint0_linear_5_2)"/>
<path d="M7.39784 16.4193C7 18.6802 7 21.6801 7 26.1999V29.7999C7 36.5205 7 39.8809 8.30792 42.4478C9.4584 44.7057 11.2942 46.5415 13.5521 47.692C16.119 48.9999 19.4794 48.9999 26.2 48.9999H29.8C36.5206 48.9999 39.881 48.9999 42.4479 47.692C44.7058 46.5415 46.5416 44.7057 47.6921 42.4478C49 39.8809 49 36.5205 49 29.7999V26.1999C49 19.4793 49 16.1189 47.6921 13.5521C46.5816 11.3726 44.8327 9.58663 42.682 8.43039L7.39784 16.4193Z" fill="url(#paint1_linear_5_2)"/>
<path d="M48.5655 39.7811C48.3726 40.7947 48.0942 41.6587 47.6921 42.4479C46.5416 44.7058 44.7058 46.5416 42.4479 47.692C39.9578 48.9608 36.721 48.9988 30.3944 49H28.0879V44.2552L48.5655 39.7811Z" fill="url(#paint2_linear_5_2)"/>
<path d="M29.8 7H26.2C24.8925 7 23.7122 7 22.6402 7.0096V12.9558L42.6781 8.4284C42.6018 8.38744 42.5251 8.34728 42.4479 8.30792C41.0229 7.58184 39.3533 7.2588 37 7.11512C35.1143 7 32.7897 7 29.8 7Z" fill="url(#paint3_linear_5_2)"/>
<path d="M49 30.0601C48.9998 34.5684 48.9918 37.5402 48.5655 39.781L41.4435 41.3371V30.7238L49 28.9665V30.0601Z" fill="url(#paint4_linear_5_2)"/>
<path fill-rule="evenodd" clip-rule="evenodd" d="M26.4114 24.0669C26.4114 23.1028 27.1995 22.7321 28.505 22.7321C30.3768 22.7321 32.7414 23.3006 34.6132 24.314V18.5052C32.5689 17.6895 30.5492 17.3682 28.505 17.3682C23.505 17.3682 20.1799 19.9883 20.1799 24.3634C20.1799 31.1858 29.5394 30.0982 29.5394 33.0396C29.5394 34.1766 28.5542 34.5474 27.1749 34.5474C25.1306 34.5474 22.5198 33.707 20.4509 32.57V38.453C22.7414 39.4417 25.0567 39.8619 27.1749 39.8619C32.298 39.8619 35.8201 37.3159 35.8201 32.8913C35.7954 25.5252 26.4114 26.8353 26.4114 24.0669Z" fill="white"/>
<defs>
<linearGradient id="paint0_linear_5_2" x1="7" y1="7" x2="20.795" y2="16.7531" gradientUnits="userSpaceOnUse">
<stop stop-color="#392993"/>
<stop offset="1" stop-color="#4B47B9"/>
</linearGradient>
<linearGradient id="paint1_linear_5_2" x1="8.5816" y1="16.8617" x2="39.0349" y2="41.9813" gradientUnits="userSpaceOnUse">
<stop stop-color="#594BB9"/>
<stop offset="1" stop-color="#60A8F2"/>
</linearGradient>
<linearGradient id="paint2_linear_5_2" x1="28.0879" y1="44.431" x2="49" y2="49" gradientUnits="userSpaceOnUse">
<stop stop-color="#61A2EF"/>
<stop offset="1" stop-color="#58E6FD"/>
</linearGradient>
<linearGradient id="paint3_linear_5_2" x1="22.6402" y1="9.98744" x2="49" y2="7.00001" gradientUnits="userSpaceOnUse">
<stop stop-color="#534EBE"/>
<stop offset="1" stop-color="#6875E2"/>
</linearGradient>
<linearGradient id="paint4_linear_5_2" x1="41.4435" y1="30.8116" x2="49" y2="39.8618" gradientUnits="userSpaceOnUse">
<stop stop-color="#71A5F3"/>
<stop offset="1" stop-color="#6CC3FA"/>
</linearGradient>
</defs>
</svg>
