<svg width="27" height="64" viewBox="0 0 27 64" fill="none" xmlns="http://www.w3.org/2000/svg">
<path d="M5.22383 4C6.4042 4.97865 7.70875 6.19053 8.76016 7.54224C10.6256 9.94051 12.4758 12.6442 14.0659 15.3495C15.1401 17.177 16.5337 19.9502 17.2952 21.99C18.3085 24.7048 18.9087 26.6067 19.4648 29.5893C20.2483 33.7913 20.1403 38.1035 19.3445 42.169C18.1738 48.15 14.4269 53.1543 10.6826 57.2165C7.75344 60.3941 3.81531 62.473 0.355183 64L0 62.8346C3.429 61.3215 7.06297 59.3017 9.8702 56.2525C13.4812 52.3303 16.8163 47.5469 18.2557 41.8458C19.1318 38.3758 19.3352 34.5683 18.8755 30.882C18.4727 27.6523 17.4601 24.4155 16.4736 21.4725C15.6626 19.0533 14.7171 17.1687 13.5637 15.1838C12.1013 12.6669 10.4943 10.2124 8.7861 7.97126C7.68032 6.52055 6.20148 5.21085 5.01375 4.22615L5.22383 4Z" fill="white"/>
<path d="M7 59.822C7 59.822 9.52395 58.74 11.5269 59.0588C14.7069 59.5648 15 62.2417 15 62.2417C15 62.2417 13.7243 63.3156 10.988 62.9075C7.78252 62.4294 7 59.822 7 59.822Z" fill="white"/>
<path d="M10 57.0822C10 57.0822 12.7116 55.9839 15.2824 56.0002C19.7332 56.0283 20 58.047 20 58.047C20 58.047 18.389 59.0396 14.8244 58.9988C10.7138 58.9517 10 57.0822 10 57.0822Z" fill="white"/>
<path d="M14 53.3469C14 53.3469 15.9064 50.9498 17.7504 50.2869C20.9426 49.1394 22 51.8043 22 51.8043C22 51.8043 20.8134 53.8467 18.2527 54.7437C15.2999 55.7782 14 53.3469 14 53.3469Z" fill="white"/>
<path d="M18 47.6988C18 47.6988 19.5938 45.3073 21.7755 44.353C24.6227 43.1077 25.9609 45.5526 26 45.6138C26 45.6138 24.8333 47.7042 22.3993 48.6206C19.1344 49.8498 18.0001 47.6988 18.0001 47.6988H18Z" fill="white"/>
<path d="M20 42.6672C20 42.6672 21.3929 39.9126 23.4705 38.6124C25.489 37.3491 26.9633 38.425 27 38.4674C27 38.4674 25.9633 40.9278 24.0559 42.1068C21.4644 43.7087 20 42.6672 20 42.6672Z" fill="white"/>
<path d="M20.0001 39C20.7656 38.0872 20.8227 35.606 21.9171 33.5923C23.4439 30.7831 25.9623 30.9869 26 31.0132C26 31.0132 25.7304 34.5129 23.8211 36.6281C21.7921 38.876 20.0001 39 20.0001 39Z" fill="white"/>
<path d="M20.0027 32C20.0027 32 19.9274 29.0224 20.5689 26.7613C21.4637 23.607 23.9066 22.9878 23.949 23.0002C23.949 23.0002 24.3452 26.373 22.9291 28.9985C21.4243 31.7888 20.0027 31.9999 20.0027 31.9999L20.0027 32Z" fill="white"/>
<path d="M19.3075 27C19.3075 27 18.8245 24.2845 19.0692 21.705C19.4379 17.8174 21.693 16.9944 21.736 17C21.736 17 22.5091 20.6008 21.4093 23.6836C20.2406 26.9599 19.3075 27 19.3075 27Z" fill="white"/>
<path d="M16.9034 19.9999C16.9034 19.9999 15.8806 17.5873 16.0116 15.037C16.1935 11.4974 18.5641 10.0021 18.6204 10C18.6204 10 20.9061 12.0851 19.5933 16.5734C18.797 19.296 16.9033 20 16.9033 20L16.9034 19.9999Z" fill="white"/>
<path d="M14.1382 15C14.1382 15 11.7949 12.6461 11.1466 10.1438C10.5381 7.79459 11.9996 5.23521 12.3259 5C12.3259 5 16.1388 6.09279 15.9961 10.2867C15.9001 13.1075 14.1382 15 14.1382 15Z" fill="white"/>
<path d="M10.3442 10C10.3442 10 8.60686 8.01559 8.15433 5.30224C7.77927 3.05331 8.15688 0.609859 8.55212 0C8.55212 0 10.8181 1.51018 10.9828 5.3294C11.107 8.21196 10.5239 9.58395 10.3442 9.99992L10.3442 10Z" fill="white"/>
<path d="M7 6.99544C7 6.99544 4.72929 7.10923 3.60074 6.2004C2.33749 5.18312 1.09782 2.97503 1 2.33043C1 2.33043 2.98882 1.12081 4.84314 3.33033C6.24268 4.99792 6.89103 6.61798 7 6.99544Z" fill="white"/>
<path d="M10.9999 11.1959C10.9999 11.1959 9.6001 8.81248 7.19467 8.19668C5.34054 7.72208 3.91515 8.16028 3 8.93577C3 8.93577 4.41182 11.5663 7.11786 11.929C9.48581 12.2462 10.652 11.4104 10.9999 11.1959Z" fill="white"/>
<path d="M13.9999 16.3666C13.9999 16.3666 12.7388 14.6152 10.4627 14.1436C8.70832 13.78 7.86591 14.153 7 14.747C7 14.747 8.06689 16.6691 10.6273 16.9468C12.8679 17.1898 13.6708 16.5309 14 16.3666L13.9999 16.3666Z" fill="white"/>
<path d="M18 21.569C18 21.569 16.4398 19.0124 13.6188 17.763C10.728 16.4826 9.24331 17.094 8 17.5827C8.39649 18.2091 10.0191 20.8198 12.6499 21.6036C15.5169 22.4577 17.5391 21.683 18 21.569Z" fill="white"/>
<path d="M19 26.7673C19 26.7673 17.7177 24.2915 15.1867 22.9377C12.593 21.5503 11.181 22.0125 10 22.378C10.3273 22.9855 11.664 25.5158 14.0483 26.4253C16.6469 27.4164 18.5665 26.8406 19 26.7673Z" fill="white"/>
<path d="M20 32.9894C18.8324 31.5246 18.1977 29.9498 16.4012 28.3825C14.188 26.4516 12.2889 27.0672 11 27.1919C11.6345 28.358 12.5871 30.2026 14.556 31.5925C16.9141 33.2571 19.5382 32.9768 20 32.9894V32.9894Z" fill="white"/>
<path d="M20 39C19.0337 37.2635 18.5751 35.9098 17.012 33.986C15.0863 31.6159 13.2605 32.0367 12 32.0178C12.4839 33.3648 13.2995 35.3799 15.0491 37.1311C17.1447 39.2283 19.5548 38.9308 20 39Z" fill="white"/>
<path d="M19 43C17.4297 40.9826 17.6279 40.526 16.091 38.8533C14.4404 37.0569 12.3556 37.1062 11 37C11.4151 38.1295 12.0355 39.6574 13.795 41.1959C15.6715 42.8366 17.6233 42.6254 19 43Z" fill="white"/>
<path d="M17 47.9999C16.0138 46.0567 16.184 44.8432 15.2797 43.4657C13.8006 41.2129 12.3506 41.1156 11 41C12.0772 43.8068 11.8278 43.8198 13.0137 45.5294C14.1676 47.1929 15.7355 47.4168 17 48V47.9999Z" fill="white"/>
<path d="M14 52C13.4744 49.7481 14.0081 49.059 13.447 47.4244C12.5295 44.7509 11.2172 44.3759 10 44C10.14 45.7947 9.92864 46.9334 10.8833 48.8786C11.5575 50.2523 12.9531 51.1429 14 52Z" fill="white"/>
<path d="M7.94701 47.0001C7.94701 47.0001 6.6593 49.2239 7.08705 51.8012C7.69307 55.4529 9.87472 56 9.87472 56C9.87472 56 11.1173 54.3402 10.991 50.9724C10.8561 47.3751 7.94699 47 7.94699 47L7.94701 47.0001Z" fill="white"/>
<path d="M5.55475 51C5.55475 51 4.87197 53.0013 5.02138 55.3066C5.21284 58.2608 6.29095 59 6.29095 59C6.29095 59 6.97009 57.3508 6.99904 54.8618C7.0432 51.0611 5.55475 51 5.55475 51Z" fill="white"/>
</svg>
