<svg width="27" height="64" viewBox="0 0 27 64" fill="none" xmlns="http://www.w3.org/2000/svg">
<path d="M21.7744 4C20.5942 4.97865 19.2898 6.19053 18.2385 7.54224C16.3732 9.94051 14.5233 12.6442 12.9334 15.3495C11.8593 17.177 10.4658 19.9502 9.70447 21.99C8.69128 24.7048 8.09116 26.6067 7.53507 29.5893C6.75169 33.7913 6.85972 38.1035 7.65537 42.169C8.82598 48.15 12.5725 53.1543 16.3163 57.2165C19.2451 60.3941 23.1828 62.473 26.6425 64L27 62.8338C23.5719 61.3216 19.9385 59.3017 17.1316 56.2526C13.5208 52.3299 10.1857 47.5463 8.74703 41.8459C7.8708 38.376 7.6674 34.5689 8.12714 30.8821C8.52991 27.6524 9.54241 24.4157 10.5287 21.4727C11.3396 19.0535 12.2851 17.1689 13.4383 15.1839C14.9005 12.667 16.5073 10.2126 18.2154 7.97142C19.321 6.52071 20.7997 5.21101 21.9873 4.22631L21.7744 4Z" fill="white"/>
<path d="M21.7744 4C20.5942 4.97865 19.2898 6.19053 18.2385 7.54224C16.3732 9.94051 14.5233 12.6442 12.9334 15.3495C11.8593 17.177 10.4658 19.9502 9.70447 21.99C8.69128 24.7048 8.09116 26.6067 7.53507 29.5893C6.75169 33.7913 6.85972 38.1035 7.65537 42.169C8.82598 48.15 12.5725 53.1543 16.3163 57.2165C19.2451 60.3941 23.1828 62.473 26.6425 64L27 62.8338C23.5719 61.3216 19.9385 59.3017 17.1316 56.2526C13.5208 52.3299 10.1857 47.5463 8.74703 41.8459C7.8708 38.376 7.6674 34.5689 8.12714 30.8821C8.52991 27.6524 9.54241 24.4157 10.5287 21.4727C11.3396 19.0535 12.2851 17.1689 13.4383 15.1839C14.9005 12.667 16.5073 10.2126 18.2154 7.97142C19.321 6.52071 20.7997 5.21101 21.9873 4.22631L21.7744 4Z" fill="white"/>
<path d="M20 60.6165C20 60.6165 17.476 59.805 15.4731 60.0441C12.2931 60.4236 12 62.4312 12 62.4312C12 62.4312 13.2757 63.2367 16.0119 62.9306C19.2174 62.572 19.9999 60.6165 19.9999 60.6165L20 60.6165Z" fill="white"/>
<path d="M20 60.6165C20 60.6165 17.476 59.805 15.4731 60.0441C12.2931 60.4236 12 62.4312 12 62.4312C12 62.4312 13.2757 63.2367 16.0119 62.9306C19.2174 62.572 19.9999 60.6165 19.9999 60.6165L20 60.6165Z" fill="white"/>
<path d="M16 56.443C16 56.443 13.8307 54.9785 11.7741 55.0002C8.21347 55.0378 8 57.7294 8 57.7294C8 57.7294 9.2888 59.0528 12.1405 58.9984C15.429 58.9356 16 56.443 16 56.443Z" fill="white"/>
<path d="M16 56.443C16 56.443 13.8307 54.9785 11.7741 55.0002C8.21347 55.0378 8 57.7294 8 57.7294C8 57.7294 9.2888 59.0528 12.1405 58.9984C15.429 58.9356 16 56.443 16 56.443Z" fill="white"/>
<path d="M13 53.3469C13 53.3469 11.0936 50.9498 9.24964 50.2869C6.05735 49.1394 5 51.8043 5 51.8043C5 51.8043 6.18663 53.8467 8.74726 54.7437C11.7001 55.7782 13 53.3469 13 53.3469Z" fill="white"/>
<path d="M13 53.3469C13 53.3469 11.0936 50.9498 9.24964 50.2869C6.05735 49.1394 5 51.8043 5 51.8043C5 51.8043 6.18663 53.8467 8.74726 54.7437C11.7001 55.7782 13 53.3469 13 53.3469Z" fill="white"/>
<path d="M10 47.6988C10 47.6988 8.20702 45.3073 5.75261 44.353C2.54951 43.1077 1.04394 45.5526 1 45.6138C1 45.6138 2.31251 47.7042 5.05085 48.6206C8.72385 49.8498 10 47.6988 10 47.6988Z" fill="white"/>
<path d="M10 47.6988C10 47.6988 8.20702 45.3073 5.75261 44.353C2.54951 43.1077 1.04394 45.5526 1 45.6138C1 45.6138 2.31251 47.7042 5.05085 48.6206C8.72385 49.8498 10 47.6988 10 47.6988Z" fill="white"/>
<path d="M7.99967 43.601C7.99967 43.601 6.40775 40.2954 4.03337 38.7352C1.72685 37.2187 0.041821 38.5102 0 38.5608C0 38.5608 1.18484 41.5133 3.3647 42.9281C6.32643 44.8505 8 43.6006 8 43.6006L7.99967 43.601Z" fill="white"/>
<path d="M7.99967 43.601C7.99967 43.601 6.40775 40.2954 4.03337 38.7352C1.72685 37.2187 0.041821 38.5102 0 38.5608C0 38.5608 1.18484 41.5133 3.3647 42.9281C6.32643 44.8505 8 43.6006 8 43.6006L7.99967 43.601Z" fill="white"/>
<path d="M7 38.9998C6.23432 38.0869 6.17728 35.6056 5.08288 33.5922C3.55612 30.7831 1.03769 30.9868 1 31.0133C1 31.0133 1.26961 34.5129 3.17884 36.6281C5.20788 38.876 6.99994 39 6.99994 39L7 38.9998Z" fill="white"/>
<path d="M7 38.9998C6.23432 38.0869 6.17728 35.6056 5.08288 33.5922C3.55612 30.7831 1.03769 30.9868 1 31.0133C1 31.0133 1.26961 34.5129 3.17884 36.6281C5.20788 38.876 6.99994 39 6.99994 39L7 38.9998Z" fill="white"/>
<path d="M6.99727 32C6.99727 32 7.07261 29.0224 6.43113 26.7613C5.53626 23.607 3.09343 22.9878 3.051 23.0002C3.051 23.0002 2.65484 26.373 4.07087 28.9985C5.57579 31.7888 6.9973 31.9999 6.9973 31.9999L6.99727 32Z" fill="white"/>
<path d="M6.99727 32C6.99727 32 7.07261 29.0224 6.43113 26.7613C5.53626 23.607 3.09343 22.9878 3.051 23.0002C3.051 23.0002 2.65484 26.373 4.07087 28.9985C5.57579 31.7888 6.9973 31.9999 6.9973 31.9999L6.99727 32Z" fill="white"/>
<path d="M8.59004 26C8.59004 26 9.23399 23.5561 8.90776 21.2345C8.41607 17.7356 5.40939 16.995 5.35195 17C5.35195 17 4.32124 20.2407 5.78754 23.0152C7.34585 25.9639 8.59004 26 8.59004 26Z" fill="white"/>
<path d="M8.59004 26C8.59004 26 9.23399 23.5561 8.90776 21.2345C8.41607 17.7356 5.40939 16.995 5.35195 17C5.35195 17 4.32124 20.2407 5.78754 23.0152C7.34585 25.9639 8.59004 26 8.59004 26Z" fill="white"/>
<path d="M10.3225 19.9999C10.3225 19.9999 11.0896 17.5873 10.9913 15.037C10.8549 11.4974 9.07691 10.0021 9.03471 10C9.03471 10 7.3204 12.0851 8.30499 16.5734C8.90226 19.296 10.3225 20 10.3225 20L10.3225 19.9999Z" fill="white"/>
<path d="M10.3225 19.9999C10.3225 19.9999 11.0896 17.5873 10.9913 15.037C10.8549 11.4974 9.07691 10.0021 9.03471 10C9.03471 10 7.3204 12.0851 8.30499 16.5734C8.90226 19.296 10.3225 20 10.3225 20L10.3225 19.9999Z" fill="white"/>
<path d="M13.1171 15C13.1171 15 14.5231 12.6461 14.912 10.1438C15.2772 7.79459 14.4002 5.23521 14.2045 5C14.2045 5 11.9167 6.09279 12.0023 10.2867C12.06 13.1075 13.1171 15 13.1171 15Z" fill="white"/>
<path d="M13.1171 15C13.1171 15 14.5231 12.6461 14.912 10.1438C15.2772 7.79459 14.4002 5.23521 14.2045 5C14.2045 5 11.9167 6.09279 12.0023 10.2867C12.06 13.1075 13.1171 15 13.1171 15Z" fill="white"/>
<path d="M16.6559 9.99968C16.6559 9.99968 18.3934 8.01525 18.846 5.30188C19.2205 3.05334 18.843 0.609864 18.4481 0C18.4481 0 16.1819 1.5102 16.0172 5.32944C15.8929 8.21203 16.4762 9.58402 16.6559 10L16.6559 9.99968Z" fill="white"/>
<path d="M16.6559 9.99968C16.6559 9.99968 18.3934 8.01525 18.846 5.30188C19.2205 3.05334 18.843 0.609864 18.4481 0C18.4481 0 16.1819 1.5102 16.0172 5.32944C15.8929 8.21203 16.4762 9.58402 16.6559 10L16.6559 9.99968Z" fill="white"/>
<path d="M19 6.99452C19 6.99452 22.0276 7.13107 23.5323 6.04049C25.2167 4.81974 26.8696 2.17004 27 1.39651C27 1.39651 24.3482 -0.0550248 21.8758 2.59639C20.0098 4.5975 19.1453 6.54158 19 6.99452Z" fill="white"/>
<path d="M19 6.99452C19 6.99452 22.0276 7.13107 23.5323 6.04049C25.2167 4.81974 26.8696 2.17004 27 1.39651C27 1.39651 24.3482 -0.0550248 21.8758 2.59639C20.0098 4.5975 19.1453 6.54158 19 6.99452Z" fill="white"/>
<path d="M16.0001 11.397C16.0001 11.397 17.3999 9.60936 19.8053 9.14751C21.6595 8.79156 23.0849 9.12021 24 9.70182C24 9.70182 22.5882 11.6747 19.8821 11.9467C17.5142 12.1847 16.3479 11.5578 16 11.397L16.0001 11.397Z" fill="white"/>
<path d="M16.0001 11.397C16.0001 11.397 17.3999 9.60936 19.8053 9.14751C21.6595 8.79156 23.0849 9.12021 24 9.70182C24 9.70182 22.5882 11.6747 19.8821 11.9467C17.5142 12.1847 16.3479 11.5578 16 11.397L16.0001 11.397Z" fill="white"/>
<path d="M13.0001 15.3666C13.0001 15.3666 14.2612 13.6152 16.5373 13.1436C18.2917 12.78 19.1341 13.153 20 13.747C20 13.747 18.9331 15.6691 16.3727 15.9468C14.1321 16.1898 13.3292 15.5309 13 15.3666L13.0001 15.3666Z" fill="white"/>
<path d="M13.0001 15.3666C13.0001 15.3666 14.2612 13.6152 16.5373 13.1436C18.2917 12.78 19.1341 13.153 20 13.747C20 13.747 18.9331 15.6691 16.3727 15.9468C14.1321 16.1898 13.3292 15.5309 13 15.3666L13.0001 15.3666Z" fill="white"/>
<path d="M10 21.569C10 21.569 11.2481 19.0124 13.505 17.763C15.8176 16.4826 17.0054 17.094 18 17.5827C17.6828 18.2091 16.3847 20.8198 14.2801 21.6036C11.9865 22.4577 10.3687 21.683 10 21.569Z" fill="white"/>
<path d="M10 21.569C10 21.569 11.2481 19.0124 13.505 17.763C15.8176 16.4826 17.0054 17.094 18 17.5827C17.6828 18.2091 16.3847 20.8198 14.2801 21.6036C11.9865 22.4577 10.3687 21.683 10 21.569Z" fill="white"/>
<path d="M9 26.7673C9 26.7673 9.99733 24.2915 11.9659 22.9377C13.9832 21.5503 15.0814 22.0125 16 22.378C15.7454 22.9855 14.7058 25.5158 12.8513 26.4253C10.8302 27.4164 9.33719 26.8406 9 26.7673Z" fill="white"/>
<path d="M9 26.7673C9 26.7673 9.99733 24.2915 11.9659 22.9377C13.9832 21.5503 15.0814 22.0125 16 22.378C15.7454 22.9855 14.7058 25.5158 12.8513 26.4253C10.8302 27.4164 9.33719 26.8406 9 26.7673Z" fill="white"/>
<path d="M8 32.9894C8.90812 31.5246 9.40183 29.9498 10.7991 28.3825C12.5205 26.4516 13.9975 27.0672 15 27.1919C14.5065 28.358 13.7656 30.2026 12.2343 31.5925C10.4001 33.2571 8.35919 32.9768 8 32.9894V32.9894Z" fill="white"/>
<path d="M8 32.9894C8.90812 31.5246 9.40183 29.9498 10.7991 28.3825C12.5205 26.4516 13.9975 27.0672 15 27.1919C14.5065 28.358 13.7656 30.2026 12.2343 31.5925C10.4001 33.2571 8.35919 32.9768 8 32.9894V32.9894Z" fill="white"/>
<path d="M8 39C8.72473 37.2635 9.06866 35.9098 10.241 33.986C11.6853 31.6159 13.0546 32.0367 14 32.0178C13.6371 33.3648 13.0254 35.3799 11.7131 37.1311C10.1415 39.2283 8.33388 38.9308 8 39Z" fill="white"/>
<path d="M8 39C8.72473 37.2635 9.06866 35.9098 10.241 33.986C11.6853 31.6159 13.0546 32.0367 14 32.0178C13.6371 33.3648 13.0254 35.3799 11.7131 37.1311C10.1415 39.2283 8.33388 38.9308 8 39Z" fill="white"/>
<path d="M9 44C10.1777 41.6464 10.0291 41.1137 11.1817 39.1622C12.4197 37.0664 13.9833 37.124 15 37C14.6886 38.3177 14.2234 40.1003 12.9037 41.8952C11.4964 43.8094 10.0326 43.5629 9.00006 44H9Z" fill="white"/>
<path d="M9 44C10.1777 41.6464 10.0291 41.1137 11.1817 39.1622C12.4197 37.0664 13.9833 37.124 15 37C14.6886 38.3177 14.2234 40.1003 12.9037 41.8952C11.4964 43.8094 10.0326 43.5629 9.00006 44H9Z" fill="white"/>
<path d="M11 47.9999C11.6575 46.0567 11.544 44.8432 12.1469 43.4657C13.1329 41.2129 14.0996 41.1156 15 41C14.2818 43.8068 14.4481 43.8198 13.6575 45.5294C12.8883 47.1929 11.843 47.4168 11 48V47.9999Z" fill="white"/>
<path d="M11 47.9999C11.6575 46.0567 11.544 44.8432 12.1469 43.4657C13.1329 41.2129 14.0996 41.1156 15 41C14.2818 43.8068 14.4481 43.8198 13.6575 45.5294C12.8883 47.1929 11.843 47.4168 11 48V47.9999Z" fill="white"/>
<path d="M13 52C13.3942 49.7481 12.9939 49.059 13.4147 47.4244C14.1029 44.7509 15.0871 44.3759 16 44C15.895 45.7947 16.0535 46.9334 15.3375 48.8786C14.8319 50.2523 13.7852 51.1429 13 52Z" fill="white"/>
<path d="M13 52C13.3942 49.7481 12.9939 49.059 13.4147 47.4244C14.1029 44.7509 15.0871 44.3759 16 44C15.895 45.7947 16.0535 46.9334 15.3375 48.8786C14.8319 50.2523 13.7852 51.1429 13 52Z" fill="white"/>
<path d="M18.2897 48.0001C18.2897 48.0001 19.2555 49.7297 18.9347 51.7342C18.4802 54.5745 16.844 55 16.844 55C16.844 55 15.912 53.7091 16.0068 51.0897C16.1079 48.2918 18.2898 48 18.2898 48L18.2897 48.0001Z" fill="white"/>
<path d="M18.2897 48.0001C18.2897 48.0001 19.2555 49.7297 18.9347 51.7342C18.4802 54.5745 16.844 55 16.844 55C16.844 55 15.912 53.7091 16.0068 51.0897C16.1079 48.2918 18.2898 48 18.2898 48L18.2897 48.0001Z" fill="white"/>
<path d="M21.1678 51C21.1678 51 22.192 53.0013 21.968 55.3066C21.6808 58.2608 20.0636 59 20.0636 59C20.0636 59 19.0449 57.3508 19.0014 54.8618C18.9352 51.0611 21.1679 51.0001 21.1679 51.0001L21.1678 51Z" fill="white"/>
<path d="M21.1678 51C21.1678 51 22.192 53.0013 21.968 55.3066C21.6808 58.2608 20.0636 59 20.0636 59C20.0636 59 19.0449 57.3508 19.0014 54.8618C18.9352 51.0611 21.1679 51.0001 21.1679 51.0001L21.1678 51Z" fill="white"/>
</svg>
