<svg width="289" height="57" viewBox="0 0 289 57" fill="none" xmlns="http://www.w3.org/2000/svg">
<path d="M15.0795 48H14.0227C13.9602 47.696 13.8509 47.429 13.6946 47.1989C13.5412 46.9688 13.3537 46.7756 13.1321 46.6193C12.9134 46.4602 12.6705 46.3409 12.4034 46.2614C12.1364 46.1818 11.858 46.142 11.5682 46.142C11.0398 46.142 10.5611 46.2756 10.1321 46.5426C9.70597 46.8097 9.36648 47.2031 9.11364 47.723C8.86364 48.2429 8.73864 48.8807 8.73864 49.6364C8.73864 50.392 8.86364 51.0298 9.11364 51.5497C9.36648 52.0696 9.70597 52.4631 10.1321 52.7301C10.5611 52.9972 11.0398 53.1307 11.5682 53.1307C11.858 53.1307 12.1364 53.0909 12.4034 53.0114C12.6705 52.9318 12.9134 52.8139 13.1321 52.6577C13.3537 52.4986 13.5412 52.304 13.6946 52.0739C13.8509 51.8409 13.9602 51.5739 14.0227 51.2727H15.0795C15 51.7187 14.8551 52.1179 14.6449 52.4702C14.4347 52.8224 14.1733 53.1222 13.8608 53.3693C13.5483 53.6136 13.1974 53.7997 12.8082 53.9276C12.4219 54.0554 12.0085 54.1193 11.5682 54.1193C10.8239 54.1193 10.1619 53.9375 9.58239 53.5739C9.00284 53.2102 8.54688 52.6932 8.21449 52.0227C7.8821 51.3523 7.71591 50.5568 7.71591 49.6364C7.71591 48.7159 7.8821 47.9205 8.21449 47.25C8.54688 46.5795 9.00284 46.0625 9.58239 45.6989C10.1619 45.3352 10.8239 45.1534 11.5682 45.1534C12.0085 45.1534 12.4219 45.2173 12.8082 45.3452C13.1974 45.473 13.5483 45.6605 13.8608 45.9077C14.1733 46.152 14.4347 46.4503 14.6449 46.8026C14.8551 47.152 15 47.5511 15.0795 48ZM16.6509 54V47.4545H17.6566V54H16.6509ZM17.1623 46.3636C16.9663 46.3636 16.7972 46.2969 16.6552 46.1634C16.516 46.0298 16.4464 45.8693 16.4464 45.6818C16.4464 45.4943 16.516 45.3338 16.6552 45.2003C16.7972 45.0668 16.9663 45 17.1623 45C17.3583 45 17.5259 45.0668 17.6651 45.2003C17.8072 45.3338 17.8782 45.4943 17.8782 45.6818C17.8782 45.8693 17.8072 46.0298 17.6651 46.1634C17.5259 46.2969 17.3583 46.3636 17.1623 46.3636ZM24.8509 47.4545L22.4304 54H21.4077L18.9872 47.4545H20.0781L21.8849 52.6705H21.9531L23.7599 47.4545H24.8509ZM26.1783 54V47.4545H27.1839V54H26.1783ZM26.6896 46.3636C26.4936 46.3636 26.3246 46.2969 26.1825 46.1634C26.0433 46.0298 25.9737 45.8693 25.9737 45.6818C25.9737 45.4943 26.0433 45.3338 26.1825 45.2003C26.3246 45.0668 26.4936 45 26.6896 45C26.8857 45 27.0533 45.0668 27.1925 45.2003C27.3345 45.3338 27.4055 45.4943 27.4055 45.6818C27.4055 45.8693 27.3345 46.0298 27.1925 46.1634C27.0533 46.2969 26.8857 46.3636 26.6896 46.3636ZM30.0316 45.2727V54H29.0259V45.2727H30.0316ZM37.1747 54.1534C36.7599 54.1534 36.3835 54.0753 36.0455 53.919C35.7074 53.7599 35.4389 53.5312 35.2401 53.233C35.0412 52.9318 34.9418 52.5682 34.9418 52.142C34.9418 51.767 35.0156 51.4631 35.1634 51.2301C35.3111 50.9943 35.5085 50.8097 35.7557 50.6761C36.0028 50.5426 36.2756 50.4432 36.5739 50.3778C36.875 50.3097 37.1776 50.2557 37.4815 50.2159C37.8793 50.1648 38.2017 50.1264 38.4489 50.1009C38.6989 50.0724 38.8807 50.0256 38.9943 49.9602C39.1108 49.8949 39.169 49.7812 39.169 49.6193V49.5852C39.169 49.1648 39.054 48.8381 38.8239 48.6051C38.5966 48.3722 38.2514 48.2557 37.7884 48.2557C37.3082 48.2557 36.9318 48.3608 36.6591 48.571C36.3864 48.7812 36.1946 49.0057 36.0838 49.2443L35.1293 48.9034C35.2997 48.5057 35.527 48.196 35.8111 47.9744C36.098 47.75 36.4105 47.5937 36.7486 47.5057C37.0895 47.4148 37.4247 47.3693 37.7543 47.3693C37.9645 47.3693 38.206 47.3949 38.4787 47.446C38.7543 47.4943 39.0199 47.5952 39.2756 47.7486C39.5341 47.902 39.7486 48.1335 39.919 48.4432C40.0895 48.7528 40.1747 49.1676 40.1747 49.6875V54H39.169V53.1136H39.1179C39.0497 53.2557 38.9361 53.4077 38.777 53.5696C38.6179 53.7315 38.4063 53.8693 38.142 53.983C37.8778 54.0966 37.5554 54.1534 37.1747 54.1534ZM37.3281 53.25C37.7259 53.25 38.0611 53.1719 38.3338 53.0156C38.6094 52.8594 38.8168 52.6577 38.956 52.4105C39.098 52.1634 39.169 51.9034 39.169 51.6307V50.7102C39.1264 50.7614 39.0327 50.8082 38.8878 50.8509C38.7457 50.8906 38.581 50.9261 38.3935 50.9574C38.2088 50.9858 38.0284 51.0114 37.8523 51.0341C37.679 51.054 37.5384 51.071 37.4304 51.0852C37.169 51.1193 36.9247 51.1747 36.6974 51.2514C36.473 51.3253 36.2912 51.4375 36.152 51.5881C36.0156 51.7358 35.9474 51.9375 35.9474 52.1932C35.9474 52.5426 36.0767 52.8068 36.3352 52.9858C36.5966 53.1619 36.9276 53.25 37.3281 53.25ZM43.016 50.0625V54H42.0103V47.4545H42.9819V48.4773H43.0671C43.2205 48.1449 43.4535 47.8778 43.766 47.6761C44.0785 47.4716 44.4819 47.3693 44.9762 47.3693C45.4194 47.3693 45.8072 47.4602 46.1396 47.642C46.4719 47.821 46.7305 48.0938 46.9151 48.4602C47.0998 48.8239 47.1921 49.2841 47.1921 49.8409V54H46.1864V49.9091C46.1864 49.3949 46.0529 48.9943 45.7859 48.7074C45.5188 48.4176 45.1523 48.2727 44.6864 48.2727C44.3654 48.2727 44.0785 48.3423 43.8256 48.4815C43.5756 48.6207 43.3782 48.8239 43.2333 49.0909C43.0884 49.358 43.016 49.6818 43.016 50.0625ZM51.5014 54.1364C50.956 54.1364 50.4744 53.9986 50.0568 53.723C49.6392 53.4446 49.3125 53.0526 49.0767 52.5469C48.8409 52.0384 48.723 51.4375 48.723 50.7443C48.723 50.0568 48.8409 49.4602 49.0767 48.9545C49.3125 48.4489 49.6406 48.0582 50.0611 47.7827C50.4815 47.5071 50.9673 47.3693 51.5185 47.3693C51.9446 47.3693 52.2813 47.4403 52.5284 47.5824C52.7784 47.7216 52.9688 47.8807 53.0994 48.0597C53.233 48.2358 53.3366 48.3807 53.4105 48.4943H53.4957V45.2727H54.5014V54H53.5298V52.9943H53.4105C53.3366 53.1136 53.2315 53.2642 53.0952 53.446C52.9588 53.625 52.7642 53.7855 52.5114 53.9276C52.2585 54.0668 51.9219 54.1364 51.5014 54.1364ZM51.6378 53.233C52.0412 53.233 52.3821 53.1278 52.6605 52.9176C52.9389 52.7045 53.1506 52.4105 53.2955 52.0355C53.4403 51.6577 53.5128 51.2216 53.5128 50.7273C53.5128 50.2386 53.4418 49.8111 53.2997 49.4446C53.1577 49.0753 52.9474 48.7884 52.669 48.5838C52.3906 48.3764 52.0469 48.2727 51.6378 48.2727C51.2116 48.2727 50.8565 48.3821 50.5724 48.6009C50.2912 48.8168 50.0795 49.1108 49.9375 49.483C49.7983 49.8523 49.7287 50.267 49.7287 50.7273C49.7287 51.1932 49.7997 51.6165 49.9418 51.9972C50.0866 52.375 50.2997 52.6761 50.581 52.9006C50.8651 53.1222 51.2173 53.233 51.6378 53.233ZM67.017 48H65.9602C65.8977 47.696 65.7884 47.429 65.6321 47.1989C65.4787 46.9688 65.2912 46.7756 65.0696 46.6193C64.8509 46.4602 64.608 46.3409 64.3409 46.2614C64.0739 46.1818 63.7955 46.142 63.5057 46.142C62.9773 46.142 62.4986 46.2756 62.0696 46.5426C61.6435 46.8097 61.304 47.2031 61.0511 47.723C60.8011 48.2429 60.6761 48.8807 60.6761 49.6364C60.6761 50.392 60.8011 51.0298 61.0511 51.5497C61.304 52.0696 61.6435 52.4631 62.0696 52.7301C62.4986 52.9972 62.9773 53.1307 63.5057 53.1307C63.7955 53.1307 64.0739 53.0909 64.3409 53.0114C64.608 52.9318 64.8509 52.8139 65.0696 52.6577C65.2912 52.4986 65.4787 52.304 65.6321 52.0739C65.7884 51.8409 65.8977 51.5739 65.9602 51.2727H67.017C66.9375 51.7187 66.7926 52.1179 66.5824 52.4702C66.3722 52.8224 66.1108 53.1222 65.7983 53.3693C65.4858 53.6136 65.1349 53.7997 64.7457 53.9276C64.3594 54.0554 63.946 54.1193 63.5057 54.1193C62.7614 54.1193 62.0994 53.9375 61.5199 53.5739C60.9403 53.2102 60.4844 52.6932 60.152 52.0227C59.8196 51.3523 59.6534 50.5568 59.6534 49.6364C59.6534 48.7159 59.8196 47.9205 60.152 47.25C60.4844 46.5795 60.9403 46.0625 61.5199 45.6989C62.0994 45.3352 62.7614 45.1534 63.5057 45.1534C63.946 45.1534 64.3594 45.2173 64.7457 45.3452C65.1349 45.473 65.4858 45.6605 65.7983 45.9077C66.1108 46.152 66.3722 46.4503 66.5824 46.8026C66.7926 47.152 66.9375 47.5511 67.017 48ZM71.2475 54.1364C70.6566 54.1364 70.1381 53.9957 69.6921 53.7145C69.2489 53.4332 68.9023 53.0398 68.6523 52.5341C68.4052 52.0284 68.2816 51.4375 68.2816 50.7614C68.2816 50.0795 68.4052 49.4844 68.6523 48.9759C68.9023 48.4673 69.2489 48.0724 69.6921 47.7912C70.1381 47.5099 70.6566 47.3693 71.2475 47.3693C71.8384 47.3693 72.3555 47.5099 72.7987 47.7912C73.2447 48.0724 73.5913 48.4673 73.8384 48.9759C74.0884 49.4844 74.2134 50.0795 74.2134 50.7614C74.2134 51.4375 74.0884 52.0284 73.8384 52.5341C73.5913 53.0398 73.2447 53.4332 72.7987 53.7145C72.3555 53.9957 71.8384 54.1364 71.2475 54.1364ZM71.2475 53.233C71.6964 53.233 72.0657 53.1179 72.3555 52.8878C72.6452 52.6577 72.8597 52.3551 72.9989 51.9801C73.1381 51.6051 73.2077 51.1989 73.2077 50.7614C73.2077 50.3239 73.1381 49.9162 72.9989 49.5384C72.8597 49.1605 72.6452 48.8551 72.3555 48.6222C72.0657 48.3892 71.6964 48.2727 71.2475 48.2727C70.7987 48.2727 70.4293 48.3892 70.1396 48.6222C69.8498 48.8551 69.6353 49.1605 69.4961 49.5384C69.3569 49.9162 69.2873 50.3239 69.2873 50.7614C69.2873 51.1989 69.3569 51.6051 69.4961 51.9801C69.6353 52.3551 69.8498 52.6577 70.1396 52.8878C70.4293 53.1179 70.7987 53.233 71.2475 53.233ZM75.7486 54V47.4545H76.7202V48.4773H76.8054C76.9418 48.1278 77.1619 47.8565 77.4659 47.6634C77.7699 47.4673 78.1349 47.3693 78.5611 47.3693C78.9929 47.3693 79.3523 47.4673 79.6392 47.6634C79.929 47.8565 80.1548 48.1278 80.3168 48.4773H80.3849C80.5526 48.1392 80.804 47.8707 81.1392 47.6719C81.4744 47.4702 81.8764 47.3693 82.3452 47.3693C82.9304 47.3693 83.4091 47.5526 83.7812 47.919C84.1534 48.2827 84.3395 48.8494 84.3395 49.6193V54H83.3338V49.6193C83.3338 49.1364 83.2017 48.7912 82.9375 48.5838C82.6733 48.3764 82.3622 48.2727 82.0043 48.2727C81.544 48.2727 81.1875 48.4119 80.9347 48.6903C80.6818 48.9659 80.5554 49.3153 80.5554 49.7386V54H79.5327V49.517C79.5327 49.1449 79.4119 48.8452 79.1705 48.6179C78.929 48.3878 78.6179 48.2727 78.2372 48.2727C77.9759 48.2727 77.7315 48.3423 77.5043 48.4815C77.2798 48.6207 77.098 48.8139 76.9588 49.0611C76.8224 49.3054 76.7543 49.5881 76.7543 49.9091V54H75.7486ZM86.1783 54V47.4545H87.1499V48.4773H87.2351C87.3714 48.1278 87.5916 47.8565 87.8956 47.6634C88.1996 47.4673 88.5646 47.3693 88.9908 47.3693C89.4226 47.3693 89.782 47.4673 90.0689 47.6634C90.3587 47.8565 90.5845 48.1278 90.7464 48.4773H90.8146C90.9822 48.1392 91.2337 47.8707 91.5689 47.6719C91.9041 47.4702 92.3061 47.3693 92.7749 47.3693C93.3601 47.3693 93.8388 47.5526 94.2109 47.919C94.5831 48.2827 94.7692 48.8494 94.7692 49.6193V54H93.7635V49.6193C93.7635 49.1364 93.6314 48.7912 93.3672 48.5838C93.103 48.3764 92.7919 48.2727 92.4339 48.2727C91.9737 48.2727 91.6172 48.4119 91.3643 48.6903C91.1115 48.9659 90.9851 49.3153 90.9851 49.7386V54H89.9624V49.517C89.9624 49.1449 89.8416 48.8452 89.6001 48.6179C89.3587 48.3878 89.0476 48.2727 88.6669 48.2727C88.4055 48.2727 88.1612 48.3423 87.9339 48.4815C87.7095 48.6207 87.5277 48.8139 87.3885 49.0611C87.2521 49.3054 87.1839 49.5881 87.1839 49.9091V54H86.1783ZM99.3523 54.1364C98.7216 54.1364 98.1776 53.9972 97.7202 53.7188C97.2656 53.4375 96.9148 53.0455 96.6676 52.5426C96.4233 52.0369 96.3011 51.4489 96.3011 50.7784C96.3011 50.108 96.4233 49.517 96.6676 49.0057C96.9148 48.4915 97.2585 48.0909 97.6989 47.804C98.142 47.5142 98.6591 47.3693 99.25 47.3693C99.5909 47.3693 99.9276 47.4261 100.26 47.5398C100.592 47.6534 100.895 47.8381 101.168 48.0938C101.44 48.3466 101.658 48.6818 101.82 49.0994C101.982 49.517 102.062 50.0312 102.062 50.642V51.0682H97.017V50.1989H101.04C101.04 49.8295 100.966 49.5 100.818 49.2102C100.673 48.9205 100.466 48.6918 100.196 48.5241C99.929 48.3565 99.6136 48.2727 99.25 48.2727C98.8494 48.2727 98.5028 48.3722 98.2102 48.571C97.9205 48.767 97.6974 49.0227 97.5412 49.3381C97.3849 49.6534 97.3068 49.9915 97.3068 50.3523V50.9318C97.3068 51.4261 97.392 51.8452 97.5625 52.1889C97.7358 52.5298 97.9759 52.7898 98.2827 52.9688C98.5895 53.1449 98.946 53.233 99.3523 53.233C99.6165 53.233 99.8551 53.196 100.068 53.1222C100.284 53.0455 100.47 52.9318 100.626 52.7812C100.783 52.6278 100.903 52.4375 100.989 52.2102L101.96 52.483C101.858 52.8125 101.686 53.1023 101.445 53.3523C101.203 53.5994 100.905 53.7926 100.55 53.9318C100.195 54.0682 99.7955 54.1364 99.3523 54.1364ZM103.592 54V47.4545H104.564V48.4432H104.632C104.751 48.1193 104.967 47.8565 105.28 47.6548C105.592 47.4531 105.945 47.3523 106.337 47.3523C106.411 47.3523 106.503 47.3537 106.614 47.3565C106.724 47.3594 106.808 47.3636 106.865 47.3693V48.392C106.831 48.3835 106.753 48.3707 106.631 48.3537C106.511 48.3338 106.385 48.3239 106.251 48.3239C105.933 48.3239 105.649 48.3906 105.399 48.5241C105.152 48.6548 104.956 48.8366 104.811 49.0696C104.669 49.2997 104.598 49.5625 104.598 49.858V54H103.592ZM110.517 54.1364C109.903 54.1364 109.375 53.9915 108.932 53.7017C108.489 53.4119 108.148 53.0128 107.909 52.5043C107.67 51.9957 107.551 51.4148 107.551 50.7614C107.551 50.0966 107.673 49.5099 107.918 49.0014C108.165 48.4901 108.509 48.0909 108.949 47.804C109.392 47.5142 109.909 47.3693 110.5 47.3693C110.96 47.3693 111.375 47.4545 111.744 47.625C112.114 47.7955 112.416 48.0341 112.652 48.3409C112.888 48.6477 113.034 49.0057 113.091 49.4148H112.085C112.009 49.1165 111.838 48.8523 111.574 48.6222C111.313 48.3892 110.96 48.2727 110.517 48.2727C110.125 48.2727 109.781 48.375 109.486 48.5795C109.193 48.7812 108.964 49.0668 108.8 49.4361C108.638 49.8026 108.557 50.233 108.557 50.7273C108.557 51.233 108.636 51.6733 108.795 52.0483C108.957 52.4233 109.185 52.7145 109.477 52.9219C109.773 53.1293 110.119 53.233 110.517 53.233C110.778 53.233 111.016 53.1875 111.229 53.0966C111.442 53.0057 111.622 52.875 111.77 52.7045C111.918 52.5341 112.023 52.3295 112.085 52.0909H113.091C113.034 52.4773 112.893 52.8253 112.669 53.1349C112.447 53.4418 112.153 53.6861 111.787 53.8679C111.423 54.0469 111 54.1364 110.517 54.1364ZM114.561 54V47.4545H115.567V54H114.561ZM115.072 46.3636C114.876 46.3636 114.707 46.2969 114.565 46.1634C114.426 46.0298 114.357 45.8693 114.357 45.6818C114.357 45.4943 114.426 45.3338 114.565 45.2003C114.707 45.0668 114.876 45 115.072 45C115.268 45 115.436 45.0668 115.575 45.2003C115.717 45.3338 115.788 45.4943 115.788 45.6818C115.788 45.8693 115.717 46.0298 115.575 46.1634C115.436 46.2969 115.268 46.3636 115.072 46.3636ZM119.335 54.1534C118.92 54.1534 118.544 54.0753 118.206 53.919C117.868 53.7599 117.599 53.5312 117.4 53.233C117.201 52.9318 117.102 52.5682 117.102 52.142C117.102 51.767 117.176 51.4631 117.324 51.2301C117.471 50.9943 117.669 50.8097 117.916 50.6761C118.163 50.5426 118.436 50.4432 118.734 50.3778C119.035 50.3097 119.338 50.2557 119.642 50.2159C120.039 50.1648 120.362 50.1264 120.609 50.1009C120.859 50.0724 121.041 50.0256 121.154 49.9602C121.271 49.8949 121.329 49.7812 121.329 49.6193V49.5852C121.329 49.1648 121.214 48.8381 120.984 48.6051C120.757 48.3722 120.412 48.2557 119.949 48.2557C119.468 48.2557 119.092 48.3608 118.819 48.571C118.547 48.7812 118.355 49.0057 118.244 49.2443L117.289 48.9034C117.46 48.5057 117.687 48.196 117.971 47.9744C118.258 47.75 118.571 47.5937 118.909 47.5057C119.25 47.4148 119.585 47.3693 119.914 47.3693C120.125 47.3693 120.366 47.3949 120.639 47.446C120.914 47.4943 121.18 47.5952 121.436 47.7486C121.694 47.902 121.909 48.1335 122.079 48.4432C122.25 48.7528 122.335 49.1676 122.335 49.6875V54H121.329V53.1136H121.278C121.21 53.2557 121.096 53.4077 120.937 53.5696C120.778 53.7315 120.566 53.8693 120.302 53.983C120.038 54.0966 119.716 54.1534 119.335 54.1534ZM119.488 53.25C119.886 53.25 120.221 53.1719 120.494 53.0156C120.77 52.8594 120.977 52.6577 121.116 52.4105C121.258 52.1634 121.329 51.9034 121.329 51.6307V50.7102C121.287 50.7614 121.193 50.8082 121.048 50.8509C120.906 50.8906 120.741 50.9261 120.554 50.9574C120.369 50.9858 120.189 51.0114 120.012 51.0341C119.839 51.054 119.699 51.071 119.591 51.0852C119.329 51.1193 119.085 51.1747 118.858 51.2514C118.633 51.3253 118.451 51.4375 118.312 51.5881C118.176 51.7358 118.108 51.9375 118.108 52.1932C118.108 52.5426 118.237 52.8068 118.495 52.9858C118.757 53.1619 119.088 53.25 119.488 53.25ZM125.176 45.2727V54H124.17V45.2727H125.176ZM130.529 45.2727H131.791L134.757 52.517H134.859L137.825 45.2727H139.086V54H138.098V47.3693H138.012L135.285 54H134.331L131.603 47.3693H131.518V54H130.529V45.2727ZM143.813 54.1364C143.183 54.1364 142.638 53.9972 142.181 53.7188C141.727 53.4375 141.376 53.0455 141.129 52.5426C140.884 52.0369 140.762 51.4489 140.762 50.7784C140.762 50.108 140.884 49.517 141.129 49.0057C141.376 48.4915 141.719 48.0909 142.16 47.804C142.603 47.5142 143.12 47.3693 143.711 47.3693C144.052 47.3693 144.388 47.4261 144.721 47.5398C145.053 47.6534 145.356 47.8381 145.629 48.0938C145.901 48.3466 146.119 48.6818 146.281 49.0994C146.442 49.517 146.523 50.0312 146.523 50.642V51.0682H141.478V50.1989H145.501C145.501 49.8295 145.427 49.5 145.279 49.2102C145.134 48.9205 144.927 48.6918 144.657 48.5241C144.39 48.3565 144.075 48.2727 143.711 48.2727C143.31 48.2727 142.964 48.3722 142.671 48.571C142.381 48.767 142.158 49.0227 142.002 49.3381C141.846 49.6534 141.768 49.9915 141.768 50.3523V50.9318C141.768 51.4261 141.853 51.8452 142.023 52.1889C142.197 52.5298 142.437 52.7898 142.744 52.9688C143.05 53.1449 143.407 53.233 143.813 53.233C144.077 53.233 144.316 53.196 144.529 53.1222C144.745 53.0455 144.931 52.9318 145.087 52.7812C145.244 52.6278 145.364 52.4375 145.45 52.2102L146.421 52.483C146.319 52.8125 146.147 53.1023 145.906 53.3523C145.664 53.5994 145.366 53.7926 145.011 53.9318C144.656 54.0682 144.256 54.1364 143.813 54.1364ZM150.525 54.1364C149.979 54.1364 149.498 53.9986 149.08 53.723C148.663 53.4446 148.336 53.0526 148.1 52.5469C147.864 52.0384 147.746 51.4375 147.746 50.7443C147.746 50.0568 147.864 49.4602 148.1 48.9545C148.336 48.4489 148.664 48.0582 149.085 47.7827C149.505 47.5071 149.991 47.3693 150.542 47.3693C150.968 47.3693 151.305 47.4403 151.552 47.5824C151.802 47.7216 151.992 47.8807 152.123 48.0597C152.256 48.2358 152.36 48.3807 152.434 48.4943H152.519V45.2727H153.525V54H152.553V52.9943H152.434C152.36 53.1136 152.255 53.2642 152.119 53.446C151.982 53.625 151.788 53.7855 151.535 53.9276C151.282 54.0668 150.945 54.1364 150.525 54.1364ZM150.661 53.233C151.065 53.233 151.406 53.1278 151.684 52.9176C151.962 52.7045 152.174 52.4105 152.319 52.0355C152.464 51.6577 152.536 51.2216 152.536 50.7273C152.536 50.2386 152.465 49.8111 152.323 49.4446C152.181 49.0753 151.971 48.7884 151.692 48.5838C151.414 48.3764 151.07 48.2727 150.661 48.2727C150.235 48.2727 149.88 48.3821 149.596 48.6009C149.315 48.8168 149.103 49.1108 148.961 49.483C148.822 49.8523 148.752 50.267 148.752 50.7273C148.752 51.1932 148.823 51.6165 148.965 51.9972C149.11 52.375 149.323 52.6761 149.604 52.9006C149.888 53.1222 150.241 53.233 150.661 53.233ZM155.506 54V47.4545H156.512V54H155.506ZM156.018 46.3636C155.822 46.3636 155.653 46.2969 155.511 46.1634C155.371 46.0298 155.302 45.8693 155.302 45.6818C155.302 45.4943 155.371 45.3338 155.511 45.2003C155.653 45.0668 155.822 45 156.018 45C156.214 45 156.381 45.0668 156.521 45.2003C156.663 45.3338 156.734 45.4943 156.734 45.6818C156.734 45.8693 156.663 46.0298 156.521 46.1634C156.381 46.2969 156.214 46.3636 156.018 46.3636ZM160.28 54.1534C159.865 54.1534 159.489 54.0753 159.151 53.919C158.813 53.7599 158.544 53.5312 158.346 53.233C158.147 52.9318 158.047 52.5682 158.047 52.142C158.047 51.767 158.121 51.4631 158.269 51.2301C158.417 50.9943 158.614 50.8097 158.861 50.6761C159.108 50.5426 159.381 50.4432 159.679 50.3778C159.98 50.3097 160.283 50.2557 160.587 50.2159C160.985 50.1648 161.307 50.1264 161.554 50.1009C161.804 50.0724 161.986 50.0256 162.1 49.9602C162.216 49.8949 162.275 49.7812 162.275 49.6193V49.5852C162.275 49.1648 162.159 48.8381 161.929 48.6051C161.702 48.3722 161.357 48.2557 160.894 48.2557C160.414 48.2557 160.037 48.3608 159.765 48.571C159.492 48.7812 159.3 49.0057 159.189 49.2443L158.235 48.9034C158.405 48.5057 158.632 48.196 158.917 47.9744C159.203 47.75 159.516 47.5937 159.854 47.5057C160.195 47.4148 160.53 47.3693 160.86 47.3693C161.07 47.3693 161.311 47.3949 161.584 47.446C161.86 47.4943 162.125 47.5952 162.381 47.7486C162.64 47.902 162.854 48.1335 163.025 48.4432C163.195 48.7528 163.28 49.1676 163.28 49.6875V54H162.275V53.1136H162.223C162.155 53.2557 162.042 53.4077 161.882 53.5696C161.723 53.7315 161.512 53.8693 161.248 53.983C160.983 54.0966 160.661 54.1534 160.28 54.1534ZM160.434 53.25C160.831 53.25 161.167 53.1719 161.439 53.0156C161.715 52.8594 161.922 52.6577 162.061 52.4105C162.203 52.1634 162.275 51.9034 162.275 51.6307V50.7102C162.232 50.7614 162.138 50.8082 161.993 50.8509C161.851 50.8906 161.686 50.9261 161.499 50.9574C161.314 50.9858 161.134 51.0114 160.958 51.0341C160.784 51.054 160.644 51.071 160.536 51.0852C160.275 51.1193 160.03 51.1747 159.803 51.2514C159.578 51.3253 159.397 51.4375 159.257 51.5881C159.121 51.7358 159.053 51.9375 159.053 52.1932C159.053 52.5426 159.182 52.8068 159.441 52.9858C159.702 53.1619 160.033 53.25 160.434 53.25ZM167.962 47.4545V48.3068H164.57V47.4545H167.962ZM165.559 45.8864H166.565V52.125C166.565 52.4091 166.606 52.6222 166.688 52.7642C166.773 52.9034 166.881 52.9972 167.012 53.0455C167.146 53.0909 167.286 53.1136 167.434 53.1136C167.545 53.1136 167.636 53.108 167.707 53.0966C167.778 53.0824 167.835 53.071 167.877 53.0625L168.082 53.9659C168.013 53.9915 167.918 54.017 167.796 54.0426C167.674 54.071 167.519 54.0852 167.332 54.0852C167.048 54.0852 166.769 54.0241 166.496 53.902C166.227 53.7798 166.002 53.5938 165.823 53.3438C165.647 53.0938 165.559 52.7784 165.559 52.3977V45.8864ZM172.064 54.1364C171.473 54.1364 170.955 53.9957 170.509 53.7145C170.065 53.4332 169.719 53.0398 169.469 52.5341C169.222 52.0284 169.098 51.4375 169.098 50.7614C169.098 50.0795 169.222 49.4844 169.469 48.9759C169.719 48.4673 170.065 48.0724 170.509 47.7912C170.955 47.5099 171.473 47.3693 172.064 47.3693C172.655 47.3693 173.172 47.5099 173.615 47.7912C174.061 48.0724 174.408 48.4673 174.655 48.9759C174.905 49.4844 175.03 50.0795 175.03 50.7614C175.03 51.4375 174.905 52.0284 174.655 52.5341C174.408 53.0398 174.061 53.4332 173.615 53.7145C173.172 53.9957 172.655 54.1364 172.064 54.1364ZM172.064 53.233C172.513 53.233 172.882 53.1179 173.172 52.8878C173.462 52.6577 173.676 52.3551 173.815 51.9801C173.955 51.6051 174.024 51.1989 174.024 50.7614C174.024 50.3239 173.955 49.9162 173.815 49.5384C173.676 49.1605 173.462 48.8551 173.172 48.6222C172.882 48.3892 172.513 48.2727 172.064 48.2727C171.615 48.2727 171.246 48.3892 170.956 48.6222C170.666 48.8551 170.452 49.1605 170.312 49.5384C170.173 49.9162 170.104 50.3239 170.104 50.7614C170.104 51.1989 170.173 51.6051 170.312 51.9801C170.452 52.3551 170.666 52.6577 170.956 52.8878C171.246 53.1179 171.615 53.233 172.064 53.233ZM176.565 54V47.4545H177.537V48.4432H177.605C177.724 48.1193 177.94 47.8565 178.252 47.6548C178.565 47.4531 178.917 47.3523 179.309 47.3523C179.383 47.3523 179.475 47.3537 179.586 47.3565C179.697 47.3594 179.781 47.3636 179.838 47.3693V48.392C179.804 48.3835 179.725 48.3707 179.603 48.3537C179.484 48.3338 179.358 48.3239 179.224 48.3239C178.906 48.3239 178.622 48.3906 178.372 48.5241C178.125 48.6548 177.929 48.8366 177.784 49.0696C177.642 49.2997 177.571 49.5625 177.571 49.858V54H176.565Z" fill="#192647"/>
<path d="M3.08239 34V8.54545H11.6832C13.6802 8.54545 15.3125 8.90589 16.5803 9.62677C17.8563 10.3394 18.8009 11.3047 19.4141 12.5227C20.0272 13.7408 20.3338 15.0997 20.3338 16.5994C20.3338 18.0992 20.0272 19.4622 19.4141 20.6886C18.8092 21.9149 17.8729 22.8926 16.6051 23.6218C15.3374 24.3427 13.7133 24.7031 11.733 24.7031H5.56818V21.9688H11.6335C13.0007 21.9688 14.0986 21.7326 14.9272 21.2603C15.7558 20.788 16.3565 20.15 16.7294 19.3462C17.1106 18.5342 17.3011 17.6186 17.3011 16.5994C17.3011 15.5803 17.1106 14.6688 16.7294 13.8651C16.3565 13.0613 15.7517 12.4316 14.9148 11.9759C14.0779 11.5118 12.9676 11.2798 11.5838 11.2798H6.16477V34H3.08239ZM32.7006 34.3977C30.8612 34.3977 29.2744 33.9917 27.9403 33.1797C26.6146 32.3594 25.5913 31.2159 24.8704 29.7493C24.1578 28.2744 23.8015 26.5592 23.8015 24.6037C23.8015 22.6482 24.1578 20.9247 24.8704 19.4332C25.5913 17.9335 26.5939 16.7652 27.8782 15.9283C29.1708 15.0831 30.6789 14.6605 32.4023 14.6605C33.3967 14.6605 34.3786 14.8262 35.348 15.1577C36.3175 15.4891 37.1999 16.0277 37.9954 16.7734C38.7908 17.5109 39.4247 18.4886 39.897 19.7067C40.3693 20.9247 40.6055 22.4245 40.6055 24.206V25.4489H25.8896V22.9134H37.6225C37.6225 21.8362 37.4071 20.875 36.9762 20.0298C36.5536 19.1847 35.9487 18.5176 35.1616 18.0288C34.3827 17.5399 33.463 17.2955 32.4023 17.2955C31.234 17.2955 30.2231 17.5855 29.3697 18.1655C28.5245 18.7372 27.8741 19.483 27.4183 20.4027C26.9626 21.3224 26.7347 22.3085 26.7347 23.3608V25.0511C26.7347 26.4929 26.9833 27.7151 27.4805 28.7177C27.9859 29.712 28.6861 30.4702 29.581 30.9922C30.4759 31.5059 31.5157 31.7628 32.7006 31.7628C33.4712 31.7628 34.1673 31.6551 34.7887 31.4396C35.4184 31.2159 35.9612 30.8845 36.4169 30.4453C36.8726 29.9979 37.2248 29.4427 37.4734 28.7798L40.3072 29.5753C40.0089 30.5365 39.5076 31.3816 38.8033 32.1108C38.099 32.8317 37.2289 33.3951 36.1932 33.8011C35.1574 34.1989 33.9933 34.3977 32.7006 34.3977ZM53.37 14.9091V17.3949H43.4766V14.9091H53.37ZM46.3601 10.3352H49.2933V28.5312C49.2933 29.3598 49.4135 29.9813 49.6538 30.3956C49.9023 30.8016 50.2172 31.075 50.5984 31.2159C50.9878 31.3485 51.398 31.4148 51.8288 31.4148C52.152 31.4148 52.4171 31.3982 52.6243 31.3651C52.8314 31.3236 52.9972 31.2905 53.1214 31.2656L53.718 33.9006C53.5192 33.9751 53.2416 34.0497 52.8853 34.1243C52.529 34.2071 52.0774 34.2486 51.5305 34.2486C50.7019 34.2486 49.8899 34.0704 49.0945 33.7141C48.3073 33.3578 47.6527 32.8151 47.1307 32.0859C46.617 31.3568 46.3601 30.437 46.3601 29.3267V10.3352ZM65.5815 34.3977C63.742 34.3977 62.1552 33.9917 60.8212 33.1797C59.4954 32.3594 58.4721 31.2159 57.7512 29.7493C57.0386 28.2744 56.6824 26.5592 56.6824 24.6037C56.6824 22.6482 57.0386 20.9247 57.7512 19.4332C58.4721 17.9335 59.4747 16.7652 60.7591 15.9283C62.0517 15.0831 63.5597 14.6605 65.2832 14.6605C66.2775 14.6605 67.2594 14.8262 68.2289 15.1577C69.1983 15.4891 70.0808 16.0277 70.8762 16.7734C71.6717 17.5109 72.3056 18.4886 72.7779 19.7067C73.2502 20.9247 73.4863 22.4245 73.4863 24.206V25.4489H58.7704V22.9134H70.5034C70.5034 21.8362 70.2879 20.875 69.8571 20.0298C69.4345 19.1847 68.8296 18.5176 68.0424 18.0288C67.2636 17.5399 66.3438 17.2955 65.2832 17.2955C64.1149 17.2955 63.104 17.5855 62.2505 18.1655C61.4054 18.7372 60.7549 19.483 60.2992 20.4027C59.8435 21.3224 59.6156 22.3085 59.6156 23.3608V25.0511C59.6156 26.4929 59.8642 27.7151 60.3613 28.7177C60.8668 29.712 61.5669 30.4702 62.4618 30.9922C63.3567 31.5059 64.3966 31.7628 65.5815 31.7628C66.3521 31.7628 67.0481 31.6551 67.6696 31.4396C68.2993 31.2159 68.842 30.8845 69.2978 30.4453C69.7535 29.9979 70.1056 29.4427 70.3542 28.7798L73.188 29.5753C72.8897 30.5365 72.3884 31.3816 71.6841 32.1108C70.9798 32.8317 70.1098 33.3951 69.074 33.8011C68.0383 34.1989 66.8741 34.3977 65.5815 34.3977ZM77.9483 34V14.9091H80.7821V17.7926H80.981C81.329 16.848 81.9587 16.0816 82.8702 15.4933C83.7817 14.9049 84.8091 14.6108 85.9526 14.6108C86.168 14.6108 86.4373 14.6149 86.7605 14.6232C87.0836 14.6315 87.3281 14.6439 87.4938 14.6605V17.6435C87.3944 17.6186 87.1665 17.5813 86.8102 17.5316C86.4622 17.4736 86.0935 17.4446 85.704 17.4446C84.776 17.4446 83.9474 17.6393 83.2182 18.0288C82.4973 18.4099 81.9256 18.9402 81.503 19.6197C81.0887 20.2908 80.8816 21.0573 80.8816 21.919V34H77.9483ZM101.212 8.54545H104.891L113.542 29.6747H113.84L122.491 8.54545H126.17V34H123.286V14.6605H123.038L115.083 34H112.299L104.344 14.6605H104.096V34H101.212V8.54545ZM139.708 34.3977C137.918 34.3977 136.377 33.9751 135.084 33.13C133.792 32.2848 132.797 31.1206 132.101 29.6374C131.405 28.1542 131.057 26.4598 131.057 24.554C131.057 22.6151 131.414 20.904 132.126 19.4208C132.847 17.9293 133.85 16.7652 135.134 15.9283C136.427 15.0831 137.935 14.6605 139.658 14.6605C141.001 14.6605 142.21 14.9091 143.287 15.4062C144.365 15.9034 145.247 16.5994 145.935 17.4943C146.623 18.3892 147.049 19.4332 147.215 20.6264H144.282C144.058 19.7564 143.561 18.9858 142.79 18.3146C142.028 17.6352 141.001 17.2955 139.708 17.2955C138.564 17.2955 137.562 17.5937 136.7 18.1903C135.847 18.7786 135.18 19.6114 134.699 20.6886C134.227 21.7575 133.991 23.0128 133.991 24.4545C133.991 25.9295 134.223 27.2138 134.687 28.3075C135.159 29.4013 135.822 30.2506 136.675 30.8555C137.537 31.4603 138.548 31.7628 139.708 31.7628C140.47 31.7628 141.162 31.6302 141.784 31.3651C142.405 31.0999 142.931 30.7188 143.362 30.2216C143.793 29.7244 144.099 29.1278 144.282 28.4318H147.215C147.049 29.5587 146.639 30.5737 145.985 31.4769C145.338 32.3718 144.481 33.0844 143.412 33.6147C142.351 34.1367 141.117 34.3977 139.708 34.3977ZM151.901 34V8.54545H154.983V31.2656H166.816V34H151.901ZM178.946 34.3977C177.223 34.3977 175.711 33.9876 174.41 33.1673C173.117 32.3469 172.106 31.1993 171.377 29.7244C170.656 28.2495 170.296 26.526 170.296 24.554C170.296 22.5653 170.656 20.8294 171.377 19.3462C172.106 17.863 173.117 16.7113 174.41 15.891C175.711 15.0707 177.223 14.6605 178.946 14.6605C180.67 14.6605 182.178 15.0707 183.47 15.891C184.771 16.7113 185.782 17.863 186.503 19.3462C187.232 20.8294 187.597 22.5653 187.597 24.554C187.597 26.526 187.232 28.2495 186.503 29.7244C185.782 31.1993 184.771 32.3469 183.47 33.1673C182.178 33.9876 180.67 34.3977 178.946 34.3977ZM178.946 31.7628C180.255 31.7628 181.333 31.4272 182.178 30.756C183.023 30.0849 183.648 29.2024 184.055 28.1087C184.461 27.0149 184.664 25.83 184.664 24.554C184.664 23.2779 184.461 22.0889 184.055 20.9869C183.648 19.8848 183.023 18.9941 182.178 18.3146C181.333 17.6352 180.255 17.2955 178.946 17.2955C177.637 17.2955 176.56 17.6352 175.715 18.3146C174.869 18.9941 174.244 19.8848 173.838 20.9869C173.432 22.0889 173.229 23.2779 173.229 24.554C173.229 25.83 173.432 27.0149 173.838 28.1087C174.244 29.2024 174.869 30.0849 175.715 30.756C176.56 31.4272 177.637 31.7628 178.946 31.7628ZM204.106 26.1946V14.9091H207.039V34H204.106V30.7685H203.907C203.459 31.7379 202.763 32.5624 201.819 33.2418C200.874 33.913 199.681 34.2486 198.239 34.2486C197.046 34.2486 195.985 33.9876 195.057 33.4656C194.129 32.9353 193.4 32.1398 192.87 31.0792C192.339 30.0103 192.074 28.6638 192.074 27.0398V14.9091H195.008V26.8409C195.008 28.233 195.397 29.3433 196.176 30.1719C196.963 31.0005 197.966 31.4148 199.184 31.4148C199.913 31.4148 200.654 31.2283 201.408 30.8555C202.171 30.4826 202.809 29.9109 203.323 29.1403C203.845 28.3697 204.106 27.3878 204.106 26.1946ZM220.117 41.5568C218.7 41.5568 217.482 41.3745 216.463 41.0099C215.444 40.6536 214.595 40.1813 213.915 39.593C213.244 39.013 212.71 38.3916 212.312 37.7287L214.648 36.0881C214.914 36.4361 215.249 36.8338 215.655 37.2812C216.061 37.737 216.616 38.1306 217.321 38.462C218.033 38.8017 218.965 38.9716 220.117 38.9716C221.658 38.9716 222.93 38.5987 223.933 37.853C224.935 37.1072 225.437 35.9389 225.437 34.348V30.4702H225.188C224.973 30.8182 224.666 31.2491 224.268 31.7628C223.879 32.2682 223.316 32.7198 222.578 33.1175C221.849 33.507 220.863 33.7017 219.62 33.7017C218.079 33.7017 216.695 33.3371 215.469 32.608C214.251 31.8788 213.285 30.8182 212.573 29.4261C211.868 28.0341 211.516 26.3437 211.516 24.3551C211.516 22.3996 211.86 20.6969 212.548 19.2468C213.236 17.7885 214.193 16.6616 215.419 15.8661C216.645 15.0624 218.062 14.6605 219.67 14.6605C220.913 14.6605 221.899 14.8677 222.628 15.282C223.365 15.688 223.929 16.152 224.318 16.674C224.716 17.1877 225.022 17.6103 225.238 17.9418H225.536V14.9091H228.37V34.5469C228.37 36.1875 227.997 37.5215 227.251 38.549C226.514 39.5848 225.52 40.3429 224.268 40.8235C223.026 41.3124 221.642 41.5568 220.117 41.5568ZM220.018 31.0668C221.194 31.0668 222.189 30.7975 223.001 30.2589C223.813 29.7203 224.43 28.9455 224.853 27.9347C225.275 26.9238 225.487 25.714 225.487 24.3054C225.487 22.9299 225.279 21.716 224.865 20.6637C224.451 19.6114 223.838 18.7869 223.026 18.1903C222.214 17.5937 221.211 17.2955 220.018 17.2955C218.775 17.2955 217.739 17.6103 216.911 18.2401C216.09 18.8698 215.473 19.715 215.059 20.7756C214.653 21.8362 214.45 23.0128 214.45 24.3054C214.45 25.6312 214.657 26.8036 215.071 27.8228C215.494 28.8337 216.115 29.6291 216.935 30.2092C217.764 30.7809 218.791 31.0668 220.018 31.0668ZM236.673 22.5156V34H233.739V8.54545H236.673V17.892H236.921C237.369 16.906 238.04 16.123 238.935 15.543C239.838 14.9547 241.039 14.6605 242.539 14.6605C243.84 14.6605 244.979 14.9215 245.957 15.4435C246.935 15.9573 247.693 16.7486 248.232 17.8175C248.778 18.8781 249.052 20.2287 249.052 21.8693V34H246.119V22.0682C246.119 20.5518 245.725 19.3794 244.938 18.5508C244.159 17.7139 243.078 17.2955 241.694 17.2955C240.733 17.2955 239.871 17.4985 239.109 17.9045C238.355 18.3105 237.758 18.9029 237.319 19.6818C236.888 20.4607 236.673 21.4053 236.673 22.5156ZM257.351 8.54545V34H254.418V8.54545H257.351ZM262.724 34V14.9091H265.657V34H262.724ZM264.215 11.7273C263.643 11.7273 263.15 11.5326 262.736 11.1431C262.33 10.7537 262.127 10.2855 262.127 9.73864C262.127 9.19176 262.33 8.7236 262.736 8.33416C263.15 7.94472 263.643 7.75 264.215 7.75C264.787 7.75 265.276 7.94472 265.682 8.33416C266.096 8.7236 266.303 9.19176 266.303 9.73864C266.303 10.2855 266.096 10.7537 265.682 11.1431C265.276 11.5326 264.787 11.7273 264.215 11.7273ZM273.963 22.5156V34H271.029V14.9091H273.863V17.892H274.112C274.559 16.9226 275.239 16.1437 276.15 15.5554C277.062 14.9588 278.238 14.6605 279.68 14.6605C280.973 14.6605 282.104 14.9257 283.073 15.456C284.043 15.978 284.797 16.7734 285.335 17.8423C285.874 18.9029 286.143 20.2453 286.143 21.8693V34H283.21V22.0682C283.21 20.5684 282.82 19.4001 282.041 18.5632C281.263 17.718 280.194 17.2955 278.835 17.2955C277.898 17.2955 277.062 17.4985 276.324 17.9045C275.595 18.3105 275.019 18.9029 274.597 19.6818C274.174 20.4607 273.963 21.4053 273.963 22.5156Z" fill="#192647"/>
</svg>
