<svg id="Group_175" data-name="Group 175" xmlns="http://www.w3.org/2000/svg" width="24.348" height="24.348" viewBox="0 0 24.348 24.348">
  <path id="Path_4" data-name="Path 4" d="M1114.82,507.945h-10.91a6.726,6.726,0,0,0-6.719,6.719v10.91a6.726,6.726,0,0,0,6.719,6.719h10.91a6.727,6.727,0,0,0,6.72-6.719v-10.91a6.727,6.727,0,0,0-6.72-6.719Zm4.559,17.629a4.564,4.564,0,0,1-4.559,4.559h-10.91a4.564,4.564,0,0,1-4.558-4.559v-10.91a4.563,4.563,0,0,1,4.558-4.559h10.91a4.564,4.564,0,0,1,4.559,4.559Zm0,0" transform="translate(-1097.191 -507.945)" fill="#0f0f0f"/>
  <path id="Path_5" data-name="Path 5" d="M1114.676,519.157a6.274,6.274,0,1,0,6.274,6.273,6.281,6.281,0,0,0-6.274-6.273Zm0,10.387a4.113,4.113,0,1,1,4.114-4.113,4.118,4.118,0,0,1-4.114,4.113Zm0,0" transform="translate(-1102.502 -513.256)" fill="#0f0f0f"/>
  <path id="Path_6" data-name="Path 6" d="M1131.319,515.676a1.584,1.584,0,1,0,1.12.464,1.589,1.589,0,0,0-1.12-.464Zm0,0" transform="translate(-1112.607 -511.607)" fill="#0f0f0f"/>
</svg>
