<svg id="linkedin-logo" xmlns="http://www.w3.org/2000/svg" width="25.88" height="24.73" viewBox="0 0 25.88 24.73">
  <path id="LinkedIn" d="M25.88,24.72v9.568H20.333V25.361c0-2.243-.8-3.773-2.81-3.773a3.035,3.035,0,0,0-2.846,2.029,3.8,3.8,0,0,0-.184,1.352v9.319H8.944s.075-15.12,0-16.686h5.548v2.365c-.011.018-.026.037-.036.054h.036v-.054a5.509,5.509,0,0,1,5-2.757C23.143,17.21,25.88,19.595,25.88,24.72ZM3.14,9.558a2.891,2.891,0,1,0-.074,5.767H3.1A2.893,2.893,0,1,0,3.14,9.558ZM.33,34.288H5.876V17.6H.33Z" transform="translate(0 -9.558)" fill="#0f0f0f"/>
</svg>
