<svg xmlns="http://www.w3.org/2000/svg" width="29" height="29" viewBox="0 0 29 29">
  <g id="Group_1866" data-name="Group 1866" transform="translate(-69 -742)">
    <circle id="Ellipse_100" data-name="Ellipse 100" cx="14.5" cy="14.5" r="14.5" transform="translate(69 742)" fill="#fff" opacity="0.087"/>
    <path id="Path_12138" data-name="Path 12138" d="M603.8,694.562l.045-.044c.195-.186.35-.34.488-.484a1.821,1.821,0,0,0,.554-1.265,1.757,1.757,0,0,0-.564-1.253l-2.067-2.074a1.7,1.7,0,0,0-1.233-.566,1.763,1.763,0,0,0-1.249.564l-1.217,1.214-.035-.019c-.069-.037-.138-.073-.206-.107l-.1-.05c-.131-.066-.255-.128-.362-.194a12.991,12.991,0,0,1-3.11-2.834,7.642,7.642,0,0,1-1.023-1.615l-.016-.035.029-.026c.276-.253.535-.516.786-.77l.085-.086.169-.171.147-.15a1.673,1.673,0,0,0,0-2.528l-1.049-1.049c-.11-.11-.223-.223-.329-.337-.221-.229-.46-.472-.7-.7a1.73,1.73,0,0,0-1.225-.539,1.788,1.788,0,0,0-1.242.538l-1.286,1.3a2.7,2.7,0,0,0-.8,1.717,6.55,6.55,0,0,0,.479,2.769,16.174,16.174,0,0,0,2.87,4.786,17.659,17.659,0,0,0,5.879,4.6,9.182,9.182,0,0,0,3.292.973c.077,0,.159.007.234.007a2.786,2.786,0,0,0,2.127-.909l.015-.017A7.718,7.718,0,0,1,603.8,694.562Zm-.58-.7a9.87,9.87,0,0,0-.723.749,1.865,1.865,0,0,1-1.455.618c-.058,0-.119,0-.176,0a8.206,8.206,0,0,1-2.955-.885,16.774,16.774,0,0,1-5.572-4.364,15.349,15.349,0,0,1-2.718-4.528,5.407,5.407,0,0,1-.425-2.379,1.78,1.78,0,0,1,.535-1.151l1.283-1.283a.913.913,0,0,1,.61-.283.858.858,0,0,1,.587.279l.011.011c.218.2.429.417.678.674l.183.187.174.178,1.027,1.027a.772.772,0,0,1,0,1.242l-.107.107c-.072.073-.144.146-.218.217-.338.346-.629.635-.946.92l-.047-.029h0l.035.038a.717.717,0,0,0-.187.807l.011.033a8.218,8.218,0,0,0,1.206,1.967,13.785,13.785,0,0,0,3.332,3.032,5.058,5.058,0,0,0,.458.25c.129.064.263.131.377.2l.021.012.019.011a.767.767,0,0,0,.349.089.754.754,0,0,0,.534-.244l1.287-1.287a.9.9,0,0,1,.606-.3.822.822,0,0,1,.581.293l2.079,2.078a.8.8,0,0,1,.005,1.252l-.028.03c-.114.121-.23.234-.353.353Z" transform="translate(-512.271 68.555)" fill="#fff"/>
  </g>
</svg>
