<svg xmlns="http://www.w3.org/2000/svg" width="17.654" height="30.127" viewBox="0 0 17.654 30.127">
  <g id="Group_2008" data-name="Group 2008" transform="translate(-711.173 -724.749)">
    <path id="Path_12191" data-name="Path 12191" d="M8.359,8.126a.58.58,0,0,0,.35-.145l7.729-6.957A.58.58,0,1,0,15.665.16L8.322,6.767.98.16a.58.58,0,1,0-.773.864L7.936,7.981a.58.58,0,0,0,.423.145Z" transform="translate(711.678 735.749)" fill="#fff" stroke="#fff" stroke-width="1"/>
    <path id="Path_12192" data-name="Path 12192" d="M8.359,8.126a.58.58,0,0,0,.35-.145l7.729-6.957A.58.58,0,1,0,15.665.16L8.322,6.767.98.16a.58.58,0,1,0-.773.864L7.936,7.981a.58.58,0,0,0,.423.145Z" transform="translate(711.678 746.749)" fill="#fff"/>
    <path id="Path_12193" data-name="Path 12193" d="M8.359,8.126a.58.58,0,0,0,.35-.145l7.729-6.957A.58.58,0,1,0,15.665.16L8.322,6.767.98.16a.58.58,0,1,0-.773.864L7.936,7.981a.58.58,0,0,0,.423.145Z" transform="translate(711.678 724.749)" fill="#fff"/>
  </g>
</svg>
