<svg width="54" height="54" viewBox="0 0 54 54" fill="none" xmlns="http://www.w3.org/2000/svg">
<g clip-path="url(#clip0_159_58)">
<path d="M45.7724 8.63716L21.9425 2.81124C18.9101 2.0699 15.8393 3.93042 15.097 6.95872L7.46838 38.0796C6.65858 41.3832 8.69097 44.7288 11.9989 45.5375L35.3289 51.2412C36.0652 51.4212 36.8082 50.971 36.9884 50.2357C37.1687 49.5005 36.7179 48.7584 35.9816 48.5784L12.6516 42.8747C10.8139 42.4254 9.68478 40.5668 10.1347 38.7315C10.5846 36.8962 12.4457 35.7686 14.2834 36.2179L37.6134 41.9216C38.3497 42.1016 39.0927 41.6514 39.2729 40.9161L46.7792 10.2945C46.9594 9.55921 46.5087 8.81717 45.7724 8.63716ZM11.5333 33.0258L17.7633 7.61057C18.1463 6.04804 19.7251 5.09148 21.2897 5.47399L21.3731 5.49436C21.6031 5.5506 21.744 5.78252 21.6877 6.01227L15.0348 33.1527C14.9814 33.3703 14.7688 33.5124 14.548 33.4732C13.6946 33.3213 12.8452 33.3544 12.0441 33.5454C11.7343 33.6193 11.4576 33.3347 11.5333 33.0258Z" fill="#3491E7"/>
<path d="M37.1234 43.9183L13.7933 38.2146C13.057 38.0346 12.3141 38.4848 12.1338 39.22C11.9536 39.9553 12.4043 40.6973 13.1406 40.8773L36.4706 46.581C37.207 46.7611 37.9499 46.3108 38.1301 45.5756C38.3104 44.8403 37.8597 44.0983 37.1234 43.9183Z" fill="#3491E7"/>
</g>
<defs>
<clipPath id="clip0_159_58">
<rect width="43.917" height="43.8653" fill="white" transform="matrix(0.971391 0.237485 -0.23808 0.971246 10.4435 0)"/>
</clipPath>
</defs>
</svg>
