<svg width="194" height="39" viewBox="0 0 194 39" fill="none" xmlns="http://www.w3.org/2000/svg">
<path d="M99.5517 18.6554C97.955 18.6554 96.804 19.1809 95.6369 19.7162V31.8298C96.7548 31.9367 97.3956 31.9367 98.4562 31.9367C102.289 31.9367 102.814 30.1753 102.814 27.7159V21.9304C102.814 20.1141 102.213 18.6554 99.5517 18.6554ZM74.0997 17.9943C71.4406 17.9943 70.8338 19.4593 70.8338 21.2738V22.2933H77.3619V21.2738C77.3619 19.4593 76.7551 17.9943 74.0997 17.9943ZM24.7942 30.6028C24.7942 32.0382 25.469 32.7837 26.9583 32.7837C28.5558 32.7837 29.5019 32.261 30.668 31.7238V28.8504H27.1749C25.5209 28.8504 24.7942 29.1594 24.7942 30.6028ZM124.31 18.6554C121.647 18.6554 120.724 20.1141 120.724 21.9304V28.5584C120.724 30.3792 121.647 31.8424 124.31 31.8424C126.966 31.8424 127.896 30.3792 127.896 28.5584V21.9304C127.895 20.1141 126.965 18.6554 124.31 18.6554ZM11.7415 38.0348H3.91204V19.0156H0V12.4621H3.91293V8.52603C3.91293 3.17885 6.1209 0 12.3966 0H17.6216V6.55531H14.3558C11.9124 6.55531 11.7513 7.47151 11.7513 9.18084L11.7415 12.4612H17.6574L16.9656 19.0147H11.7415V38.0348ZM38.4993 38.0842H31.9738L31.6919 36.4279C28.7125 38.0842 26.0534 38.3528 24.2992 38.3528C19.5137 38.3528 16.9665 35.1443 16.9665 30.707C16.9665 25.4721 19.9388 23.6038 25.256 23.6038H30.668V22.472C30.668 19.7998 30.3628 19.0156 26.2682 19.0156H19.5736L20.2279 12.4621H27.5454C36.5294 12.4621 38.4993 15.3104 38.4993 22.525V38.0842ZM60.689 19.4962C56.6284 18.7973 55.4622 18.6437 53.5084 18.6437C49.9991 18.6437 48.9386 19.4207 48.9386 22.4118V28.0698C48.9386 31.0609 49.9991 31.8415 53.5084 31.8415C55.4622 31.8415 56.6284 31.6852 60.689 30.9837V37.3764C57.1323 38.1767 54.8151 38.3869 52.8569 38.3869C44.451 38.3869 41.11 33.9505 41.11 27.5416V22.9508C41.11 16.5365 44.451 12.092 52.8569 12.092C54.8151 12.092 57.1323 12.3031 60.689 13.107V19.4962ZM85.1905 27.5416H70.8329V28.0698C70.8329 31.0609 71.8944 31.8415 75.4028 31.8415C78.5568 31.8415 80.4819 31.6852 84.5354 30.9837V37.3764C80.626 38.1767 78.589 38.3869 74.7539 38.3869C66.3472 38.3869 63.0044 33.9505 63.0044 27.5416V22.2924C63.0044 16.6847 65.4844 12.092 74.0988 12.092C82.7132 12.092 85.1905 16.6317 85.1905 22.2924V27.5416ZM110.642 27.6629C110.642 33.8571 108.878 38.3752 98.1913 38.3752C94.332 38.3752 92.0686 38.0348 87.8093 37.3773V1.96893L95.636 0.658407V13.0441C97.3276 12.4136 99.5168 12.0929 101.509 12.0929C109.337 12.0929 110.641 15.6149 110.641 21.2747V27.6629H110.642ZM135.731 27.7976C135.731 33.1412 133.533 38.324 124.336 38.324C115.134 38.324 112.895 33.1412 112.895 27.7976V22.6382C112.895 17.2919 115.134 12.1082 124.336 12.1082C133.533 12.1082 135.731 17.2919 135.731 22.6382V27.7976ZM160.804 27.7976C160.804 33.1412 158.603 38.324 149.408 38.324C140.206 38.324 137.967 33.1412 137.967 27.7976V22.6382C137.967 17.2919 140.206 12.1082 149.408 12.1082C158.603 12.1082 160.804 17.2919 160.804 22.6382V27.7976ZM186.534 38.0348H178.05L170.875 26.0137V38.0348H163.046V1.96803L170.875 0.657507V23.8759L178.05 12.4621H186.534L178.701 24.9179L186.534 38.0348ZM149.381 18.6554C146.722 18.6554 145.799 20.1141 145.799 21.9304V28.5584C145.799 30.3792 146.722 31.8424 149.381 31.8424C152.036 31.8424 152.976 30.3792 152.976 28.5584V21.9304C152.976 20.1141 152.036 18.6554 149.381 18.6554ZM191.003 33.549C192.321 33.549 193.371 34.6278 193.371 35.9751C193.371 37.3432 192.32 38.4103 190.993 38.4103C189.672 38.4103 188.6 37.3432 188.6 35.9751C188.6 34.6278 189.672 33.549 190.993 33.549H191.003ZM190.993 33.9263C189.93 33.9263 189.061 34.8434 189.061 35.9751C189.061 37.1276 189.931 38.033 191.003 38.033C192.075 38.0438 192.931 37.1276 192.931 35.9859C192.931 34.8443 192.075 33.9263 191.003 33.9263H190.993ZM190.543 37.3872H190.113V34.6799C190.339 34.6485 190.553 34.617 190.876 34.617C191.284 34.617 191.55 34.7033 191.714 34.8209C191.873 34.9404 191.958 35.1227 191.958 35.3805C191.958 35.738 191.723 35.9527 191.434 36.0398V36.0605C191.669 36.1045 191.83 36.3183 191.884 36.7162C191.947 37.1375 192.012 37.2982 192.054 37.3863H191.604C191.541 37.2982 191.475 37.0512 191.422 36.6946C191.359 36.3506 191.185 36.2213 190.842 36.2213H190.544V37.3872H190.543ZM190.543 35.8889H190.854C191.207 35.8889 191.507 35.7587 191.507 35.4236C191.507 35.1865 191.337 34.9503 190.854 34.9503C190.714 34.9503 190.616 34.961 190.543 34.9709V35.8889Z" fill="#CFCFDE"/>
</svg>
