<svg width="169" height="55" viewBox="0 0 169 55" fill="none" xmlns="http://www.w3.org/2000/svg">
<g clip-path="url(#clip0_51_0)">
<path d="M20.7271 0.00598145H22.2237C27.4197 0.118452 32.5309 2.19916 36.2019 5.88257C34.8465 7.26034 33.4628 8.58187 32.1356 9.95964C30.0741 8.10387 27.5891 6.66987 24.8782 6.16375C20.8683 5.32022 16.5477 6.0794 13.1873 8.35693C9.51627 10.7469 7.03126 14.7959 6.49472 19.126C5.90171 23.3999 7.11598 27.8987 9.91162 31.2166C12.5943 34.4501 16.6889 36.4746 20.9247 36.6152C24.8782 36.8401 29.001 35.6311 31.8814 32.8755C34.1405 30.9354 35.1853 27.9831 35.5242 25.1151C30.8366 25.1151 26.1489 25.1432 21.4613 25.1151V19.3228H41.2002C42.2168 25.5368 40.7484 32.5381 36.0043 36.9807C32.8415 40.1299 28.4645 41.9857 24.0028 42.3512C19.6822 42.773 15.2205 41.9576 11.38 39.8768C6.77711 37.4306 3.10607 33.2973 1.29878 28.4329C-0.395544 23.9622 -0.423782 18.9011 1.15759 14.4022C2.59777 10.297 5.36517 6.66987 8.92326 4.13928C12.3402 1.63681 16.4913 0.25904 20.7271 0.00598145Z" fill="#CFCFDE"/>
<path d="M133.965 1.46698H140.008V41.619C138.003 41.619 135.97 41.6471 133.965 41.5909C133.993 28.235 133.965 14.851 133.965 1.46698Z" fill="#CFCFDE"/>
<path d="M54.6421 15.3852C58.3696 14.6823 62.4077 15.4696 65.4858 17.6909C68.2814 19.6591 70.2299 22.7521 70.8229 26.1262C71.5854 30.0345 70.6252 34.3084 68.0837 37.4014C65.3446 40.8598 60.8546 42.7156 56.4776 42.4344C52.4677 42.2095 48.5707 40.2131 46.1987 36.9515C43.516 33.3524 42.8665 28.4037 44.3349 24.1861C45.8033 19.6591 49.9544 16.2006 54.6421 15.3852ZM55.4892 20.7276C53.9643 21.1212 52.5524 21.9929 51.5358 23.2301C48.7966 26.4917 48.9661 31.8059 51.9876 34.8426C53.7102 36.5859 56.3082 37.4014 58.7085 36.9234C60.9393 36.5297 62.8878 35.0395 63.9609 33.0712C65.8246 29.7252 65.2881 25.1139 62.436 22.499C60.6005 20.8119 57.9178 20.109 55.4892 20.7276Z" fill="#CFCFDE"/>
<path d="M84.5752 15.3852C88.8392 14.5698 93.4986 15.7508 96.6896 18.7312C101.886 23.3706 102.45 32.059 98.0168 37.4014C95.3342 40.7755 90.9854 42.6312 86.6931 42.4344C82.5985 42.3219 78.5603 40.2975 76.1318 36.9515C73.3926 33.2681 72.7996 28.2069 74.3527 23.9049C75.9059 19.5185 79.9723 16.1725 84.5752 15.3852ZM85.4223 20.7276C83.8975 21.1212 82.4855 21.9929 81.4689 23.2019C78.758 26.4073 78.871 31.6372 81.7795 34.7021C83.5021 36.5297 86.1848 37.4295 88.6698 36.9234C90.8724 36.5016 92.8491 35.0395 93.9222 33.0712C95.7577 29.6971 95.2212 25.0858 92.3408 22.4709C90.5053 20.7838 87.8226 20.109 85.4223 20.7276Z" fill="#CFCFDE"/>
<path d="M109.962 17.0161C113.209 14.9916 117.53 14.4292 121.031 16.1725C122.133 16.6505 123.036 17.4659 123.912 18.2814C123.94 17.5222 123.912 16.7349 123.94 15.9476C125.832 15.9757 127.724 15.9476 129.644 15.9757V40.7755C129.616 44.5151 128.656 48.4797 125.945 51.2071C122.98 54.2157 118.434 55.1436 114.339 54.525C109.962 53.8783 106.15 50.701 104.455 46.6802C106.15 45.8648 107.929 45.2181 109.679 44.4589C110.668 46.7645 112.673 48.7328 115.186 49.1827C117.699 49.6325 120.608 49.014 122.246 46.9333C123.997 44.7963 123.997 41.8721 123.912 39.2571C122.613 40.5224 121.116 41.6471 119.309 42.0689C115.384 43.1655 111.063 41.8158 108.042 39.1728C104.992 36.5297 103.185 32.4527 103.354 28.4037C103.439 23.8205 106.037 19.4061 109.962 17.0161ZM115.807 20.6151C114.085 20.8963 112.475 21.8523 111.374 23.1738C108.719 26.323 108.719 31.3561 111.402 34.449C112.927 36.2767 115.384 37.2889 117.756 37.0358C119.987 36.8109 122.048 35.405 123.149 33.4649C125.013 30.1751 124.703 25.7044 122.189 22.8364C120.636 21.065 118.151 20.1934 115.807 20.6151Z" fill="#CFCFDE"/>
<path d="M147.265 18.45C150.654 15.3009 155.878 14.2324 160.227 15.8913C164.35 17.4378 166.976 21.3462 168.303 25.367C162.175 27.8976 156.076 30.4001 149.948 32.9307C150.795 34.5334 152.094 35.9955 153.845 36.586C156.302 37.4576 159.239 37.1483 161.3 35.5175C162.119 34.8989 162.768 34.0835 163.39 33.2962C164.943 34.3365 166.496 35.3488 168.049 36.3891C165.846 39.6789 162.147 41.9845 158.166 42.3501C153.76 42.8843 149.073 41.1973 146.22 37.7669C141.533 32.3683 141.985 23.3144 147.265 18.45ZM150.287 23.6518C149.327 25.0296 148.931 26.7166 148.96 28.3756C153.054 26.6885 157.149 25.0015 161.244 23.2863C160.566 21.7117 158.928 20.7557 157.262 20.5026C154.579 20.0246 151.784 21.4586 150.287 23.6518Z" fill="#CFCFDE"/>
</g>
<defs>
<clipPath id="clip0_51_0">
<rect width="168.303" height="54.6985" fill="white"/>
</clipPath>
</defs>
</svg>
