<svg width="152" height="41" viewBox="0 0 152 41" fill="none" xmlns="http://www.w3.org/2000/svg">
<g clip-path="url(#clip0_44_3)">
<path d="M143.241 19.383L151.336 40.6759C148.95 40.3374 146.566 39.9134 144.138 39.5314L139.577 27.7662L134.891 38.5602C132.591 38.1782 130.332 38.0509 128.032 37.7543L136.255 19.1299L128.797 0.0407104H135.7L139.874 10.7061L144.349 0.0407104H151.335L143.241 19.383ZM123.346 0.0407104H117.083V36.951C119.128 37.0784 121.257 37.1623 123.346 37.4156V0.0407104ZM111.671 36.5272C105.963 36.1465 100.253 35.8093 94.4162 35.6806V0.040874H100.807V29.6705C104.471 29.7546 108.135 30.0499 111.671 30.2192V36.5272ZM87.5979 14.4757V20.8242H78.8641V35.2579H72.5598V0.0407104H90.4543V6.38927H78.8654V14.4758H87.5992L87.5979 14.4757ZM61.8217 6.38927V35.5965C59.6907 35.5965 57.519 35.5965 55.4302 35.6806V6.38927H48.826V0.0407104H68.4667V6.38927H61.8217ZM41.9245 21.1616C39.1131 21.1616 35.7892 21.1616 33.4032 21.2903V30.7284C37.1525 30.4738 40.9019 30.1785 44.6933 30.0512V36.1465L27.013 37.5443V0.0407104H44.6922V6.38927H33.4031V14.9402C35.8749 14.9402 39.6665 14.813 41.9242 14.813V21.1629L41.9245 21.1616ZM6.51709 17.6059V39.786C4.21841 40.0406 2.17191 40.3373 -1.52588e-05 40.6759V0.0407104H6.09307L14.4004 23.1109V0.0407104H20.7919V38.0509C18.534 38.4329 16.2327 38.5602 13.8045 38.8975L6.51709 17.6059Z" fill="#CFCFDE"/>
</g>
<defs>
<clipPath id="clip0_44_3">
<rect width="151.336" height="40.7149" fill="white"/>
</clipPath>
</defs>
</svg>
