<svg width="162" height="50" viewBox="0 0 162 50" fill="none" xmlns="http://www.w3.org/2000/svg">
<g clip-path="url(#clip0_44_1)">
<path d="M85.0231 12.546C85.0231 14.3455 83.5615 15.7946 81.7476 15.7946C79.9336 15.7946 78.473 14.3455 78.473 12.546C78.473 10.7464 79.8838 9.29735 81.7476 9.29735C83.6128 9.34728 85.0231 10.7968 85.0231 12.546ZM71.5201 19.0941V19.894C71.5201 19.894 69.9588 17.8937 66.6334 17.8937C61.1422 17.8937 56.859 22.0426 56.859 27.7903C56.859 33.4886 61.0919 37.6869 66.6334 37.6869C70.0092 37.6869 71.5201 35.6377 71.5201 35.6377V36.487C71.5201 36.887 71.8231 37.1861 72.2258 37.1861H76.3062V18.392H72.2258C71.8231 18.3935 71.5201 18.7441 71.5201 19.0941ZM71.5201 31.1393C70.7652 32.2393 69.2532 33.189 67.4397 33.189C64.2155 33.189 61.7462 31.1897 61.7462 27.7903C61.7462 24.3914 64.2155 22.3921 67.4397 22.3921C69.2034 22.3921 70.8155 23.3918 71.5201 24.4413V31.1393ZM79.3296 18.3935H84.166V37.1875H79.3296V18.3935ZM151.578 17.8932C148.253 17.8932 146.691 19.8935 146.691 19.8935V9.34729H141.854V37.1875H145.936C146.339 37.1875 146.64 36.8375 146.64 36.4875V35.6382C146.64 35.6382 148.203 37.6874 151.527 37.6874C157.019 37.6874 161.301 33.4901 161.301 27.7918C161.301 22.0935 157.019 17.8932 151.578 17.8932ZM150.772 33.1385C148.907 33.1385 147.447 32.1898 146.691 31.0893V24.3914C147.447 23.3918 149.059 22.3422 150.772 22.3422C153.996 22.3422 156.465 24.3415 156.465 27.7404C156.465 31.1393 153.997 33.1385 150.772 33.1385ZM139.336 26.0417V37.2375H134.498V26.5909C134.498 23.4926 133.491 22.2423 130.772 22.2423C129.311 22.2423 127.799 22.9923 126.84 24.0923V37.1881H122.005V18.394H125.833C126.236 18.394 126.538 18.7441 126.538 19.0941V19.894C127.949 18.444 129.813 17.8937 131.677 17.8937C133.793 17.8937 135.557 18.4944 136.968 19.6938C138.68 21.0934 139.336 22.8924 139.336 26.0417ZM110.264 17.8932C106.94 17.8932 105.377 19.8935 105.377 19.8935V9.34729H100.541V37.1875H104.621C105.024 37.1875 105.327 36.8375 105.327 36.4875V35.6382C105.327 35.6382 106.889 37.6874 110.214 37.6874C115.706 37.6874 119.988 33.4901 119.988 27.7918C120.038 22.093 115.756 17.8932 110.264 17.8932ZM109.458 33.1385C107.594 33.1385 106.133 32.1898 105.377 31.0893V24.3914C106.133 23.3918 107.745 22.3422 109.458 22.3422C112.683 22.3422 115.151 24.3415 115.151 27.7404C115.151 31.1393 112.683 33.1385 109.458 33.1385ZM96.3589 17.8932C97.8195 17.8932 98.5755 18.1439 98.5755 18.1439V22.5918C98.5755 22.5918 94.5449 21.2422 92.0263 24.0918V37.237H87.1889V18.3935H91.2703C91.6735 18.3935 91.975 18.7436 91.975 19.0936V19.8935C92.8829 18.8434 94.8479 17.8932 96.3589 17.8932ZM46.1282 35.4879C45.8766 34.8882 45.6244 34.2386 45.3728 33.6883C44.9691 32.789 44.566 31.9387 44.2141 31.1393L44.1638 31.0893C40.6869 23.5915 36.9593 15.9948 33.0289 8.49794L32.8779 8.19734C32.4645 7.41963 32.0617 6.63646 31.6694 5.84803C31.1651 4.94775 30.6618 3.99903 29.8555 3.09875C28.2434 1.09946 25.9256 -0.000549316 23.4573 -0.000549316C20.9377 -0.000549316 18.6708 1.09947 17.0088 2.99839C16.2528 3.89767 15.6982 4.84739 15.1948 5.74767C14.8016 6.53561 14.3988 7.31876 13.9864 8.09698L13.8349 8.39757C9.9553 15.8944 6.17689 23.4916 2.70048 30.989L2.64965 31.0883C2.29733 31.8892 1.89366 32.7386 1.4905 33.6374C1.23884 34.1876 0.987186 34.7873 0.735527 35.4369C0.0802069 37.2859 -0.121633 39.0356 0.131032 40.8356C0.685185 44.5845 3.20379 47.7323 6.68071 49.1329C7.99084 49.6831 9.35131 49.9328 10.7616 49.9328C11.1648 49.9328 11.6681 49.8829 12.0718 49.8324C13.7347 49.6327 15.4475 49.0834 17.1105 48.1337C19.1761 46.9838 21.141 45.335 23.3576 42.9358C25.5743 45.335 27.5895 46.9838 29.6048 48.1337C31.2683 49.0834 32.9806 49.6327 34.643 49.8324C35.0462 49.8834 35.5505 49.9328 35.9537 49.9328C37.3645 49.9328 38.7748 49.6831 40.0341 49.1329C43.5613 47.7323 46.0296 44.5346 46.5843 40.8356C46.9844 39.0865 46.7831 37.3379 46.1282 35.4879ZM23.4065 38.0868C20.6855 34.6879 18.9219 31.4893 18.3179 28.7909C18.0663 27.641 18.0154 26.6414 18.1669 25.7416C18.2671 24.9417 18.5701 24.2416 18.9732 23.6419C19.9306 22.2932 21.5427 21.4429 23.407 21.4429C25.2718 21.4429 26.9342 22.2428 27.8412 23.6419C28.2444 24.2416 28.5464 24.9422 28.648 25.7416C28.7985 26.6419 28.7482 27.6909 28.4965 28.7909C27.89 31.4393 26.1264 34.6385 23.4065 38.0868ZM43.508 40.4362C43.1557 43.0351 41.392 45.2851 38.9238 46.2847C37.7148 46.784 36.4041 46.9343 35.095 46.784C33.8357 46.6337 32.5754 46.2338 31.2663 45.4848C29.4523 44.4842 27.6389 42.9358 25.5224 40.6359C28.8473 36.5879 30.8626 32.8884 31.6186 29.5904C31.9714 28.0405 32.0223 26.6413 31.8703 25.3411C31.6694 24.0918 31.2154 22.9419 30.5103 21.9422C28.9475 19.6923 26.3272 18.3935 23.406 18.3935C20.4847 18.3935 17.8644 19.7432 16.3026 21.9422C15.5975 22.9419 15.1435 24.0918 14.9422 25.3411C14.7408 26.6413 14.7907 28.0904 15.1938 29.5904C15.9493 32.8884 18.0149 36.6373 21.2895 40.6858C19.2239 42.9852 17.3596 44.5351 15.5456 45.5348C14.2355 46.2847 12.9767 46.6847 11.7174 46.834C10.3575 46.9843 9.04681 46.7841 7.88818 46.3347C5.41991 45.335 3.65628 43.0851 3.30396 40.4861C3.15296 39.2368 3.25312 37.9875 3.75745 36.5879C3.90794 36.0875 4.1606 35.5882 4.41226 34.9885C4.76509 34.1886 5.16724 33.3383 5.5709 32.4889L5.62174 32.3896C9.09765 24.9417 12.8257 17.3444 16.7053 9.94747L16.8563 9.64688C17.26 8.8979 17.6631 8.09798 18.0658 7.348C18.4689 6.54808 18.9219 5.79809 19.4766 5.14798C20.5345 3.9496 21.9448 3.29898 23.5071 3.29898C25.0694 3.29898 26.4797 3.9496 27.5377 5.14798C28.0924 5.79959 28.5453 6.54958 28.9485 7.348C29.3522 8.09798 29.7553 8.8979 30.1575 9.64688L30.309 9.94747C34.1294 17.3752 37.8079 24.8739 41.3427 32.4395V32.4894C41.7464 33.2903 42.0987 34.1891 42.5018 34.99C42.7535 35.5887 43.0057 36.0881 43.1567 36.5884C43.5588 37.8866 43.7098 39.1369 43.508 40.4362Z" fill="#CFCFDE"/>
</g>
<defs>
<clipPath id="clip0_44_1">
<rect width="161.323" height="49.9333" fill="white"/>
</clipPath>
</defs>
</svg>
