<svg width="154" height="47" viewBox="0 0 154 47" fill="none" xmlns="http://www.w3.org/2000/svg">
<g clip-path="url(#clip0_44_10)">
<path fill-rule="evenodd" clip-rule="evenodd" d="M95.3105 36.0466C86.4159 42.6005 73.4782 46.0923 62.3195 46.0923C46.6865 46.0923 32.6708 40.3442 21.9972 30.7819C21.1886 30.0298 21.8894 29.0092 22.9136 29.6001C34.3958 36.2615 48.5733 40.2368 63.2359 40.2368C73.1009 40.2368 83.9901 38.1954 94.0167 33.9515C95.5261 33.3605 96.766 34.9722 95.3105 36.0466Z" fill="#CFCFDE"/>
<path fill-rule="evenodd" clip-rule="evenodd" d="M99.0301 31.8026C97.898 30.3521 91.4831 31.1042 88.6261 31.4803C87.7635 31.5877 87.6018 30.8356 88.4104 30.2984C93.5316 26.6991 101.887 27.7735 102.857 28.9554C103.828 30.1372 102.588 38.5177 97.7902 42.493C97.0355 43.0839 96.3347 42.7616 96.6581 41.9558C97.7363 39.2698 100.162 33.3068 99.0301 31.8026Z" fill="#CFCFDE"/>
<path fill-rule="evenodd" clip-rule="evenodd" d="M88.7878 5.04976V1.55792C88.7878 1.02071 89.1652 0.698385 89.6503 0.698385H105.283C105.768 0.698385 106.2 1.07443 106.2 1.55792V4.51255C106.2 4.99604 105.768 5.64069 105.014 6.7151L96.9277 18.2113C99.9465 18.1576 103.127 18.5874 105.822 20.0915C106.415 20.4139 106.577 20.9511 106.631 21.4346V25.1413C106.631 25.6785 106.092 26.2694 105.499 25.9471C100.701 23.4222 94.2863 23.1536 89.0034 26.0008C88.4644 26.2694 87.8714 25.7322 87.8714 25.195V21.6494C87.8714 21.1122 87.8714 20.1453 88.4644 19.2857L97.8442 5.90929H89.7042C89.2191 5.90929 88.7878 5.53325 88.7878 5.04976ZM31.8083 26.6992H27.0645C26.6332 26.6455 26.2559 26.3231 26.202 25.8934V1.61164C26.202 1.12816 26.6332 0.752109 27.1184 0.752109H31.5388C32.0239 0.752109 32.3474 1.12815 32.4013 1.55792V4.72743H32.5091C33.6411 1.66536 35.8513 0.214902 38.7623 0.214902C41.7271 0.214902 43.6139 1.66536 44.9077 4.72743C46.0397 1.66536 48.6811 0.214902 51.4843 0.214902C53.4788 0.214902 55.6351 1.02071 56.9828 2.90093C58.4922 4.94232 58.1687 7.89696 58.1687 10.5293V25.8934C58.1687 26.3768 57.7375 26.7529 57.2523 26.7529H52.5624C52.0773 26.6992 51.6999 26.3231 51.6999 25.8934V13.0004C51.6999 11.9797 51.8077 9.40112 51.5921 8.43415C51.2148 6.82253 50.1905 6.33905 48.7889 6.33905C47.6569 6.33905 46.417 7.09115 45.9319 8.32672C45.4467 9.5623 45.5006 11.6037 45.5006 13.0004V25.8934C45.5006 26.3768 45.0694 26.7529 44.5842 26.7529H39.8404C39.3552 26.6992 38.9779 26.3231 38.9779 25.8934V13.0004C38.9779 10.3144 39.4092 6.28533 36.0669 6.28533C32.6708 6.28533 32.7786 10.1532 32.7786 13.0004V25.8934C32.7247 26.3231 32.3474 26.6992 31.8083 26.6992ZM119.676 0.214902C126.738 0.214902 130.566 6.23161 130.566 13.9137C130.566 21.3271 126.361 27.2364 119.676 27.2364C112.776 27.2364 109.003 21.2197 109.003 13.6988C108.949 6.12418 112.776 0.214902 119.676 0.214902ZM119.676 5.21092C116.172 5.21092 115.957 9.99207 115.957 12.9467C115.957 15.9013 115.903 22.2404 119.623 22.2404C123.288 22.2404 123.504 17.1369 123.504 14.0211C123.504 11.9797 123.396 9.50858 122.803 7.57464C122.264 5.85558 121.186 5.21092 119.676 5.21092ZM139.676 26.6992H134.932C134.447 26.6455 134.07 26.2694 134.07 25.8397V1.50419C134.123 1.07443 134.501 0.698385 134.986 0.698385H139.406C139.838 0.698385 140.161 1.02072 140.269 1.39676V5.10348H140.377C141.724 1.7728 143.557 0.214902 146.845 0.214902C148.948 0.214902 151.05 0.966985 152.398 3.06209C153.638 4.99603 153.638 8.27299 153.638 10.6367V25.9471C153.584 26.3769 153.206 26.6992 152.721 26.6992H147.978C147.546 26.6455 147.169 26.3231 147.115 25.9471V12.7318C147.115 10.0458 147.438 6.1779 144.15 6.1779C143.018 6.1779 141.94 6.92999 141.401 8.11184C140.754 9.61602 140.646 11.0665 140.646 12.7318V25.8397C140.592 26.3231 140.161 26.6992 139.676 26.6992ZM76.3353 15.0955C76.3353 16.922 76.3892 18.4799 75.4728 20.1453C74.7181 21.4883 73.5322 22.2941 72.1845 22.2941C70.3517 22.2941 69.2735 20.8974 69.2735 18.856C69.2735 14.8269 72.8853 14.0748 76.3353 14.0748V15.0955ZM81.133 26.6455C80.8096 26.9141 80.3783 26.9678 80.001 26.7529C78.4377 25.4636 78.1143 24.819 77.2517 23.5834C74.6642 26.2157 72.7775 27.0215 69.4353 27.0215C65.4462 27.0215 62.3196 24.5504 62.3196 19.6618C62.3196 15.7939 64.4219 13.2153 67.3868 11.926C69.9743 10.7979 73.5861 10.583 76.3353 10.2607V9.66974C76.3353 8.5416 76.4431 7.19859 75.7424 6.23162C75.1494 5.37209 74.0713 4.99604 73.1009 4.99604C71.2681 4.99604 69.6509 5.9093 69.2735 7.84324C69.1657 8.273 68.8962 8.70276 68.4649 8.70276L63.8829 8.21927C63.5055 8.11183 63.0743 7.84324 63.1821 7.25231C64.2602 1.66536 69.2735 2.28882e-05 73.8017 2.28882e-05C76.1197 2.28882e-05 79.1385 0.590947 80.9713 2.36373C83.2893 4.51255 83.0737 7.41347 83.0737 10.5293V17.889C83.0737 20.0915 83.9901 21.0585 84.8526 22.2941C85.176 22.7239 85.23 23.2611 84.8526 23.5297C83.8284 24.3355 82.1034 25.8397 81.133 26.6455ZM14.073 15.0955C14.073 16.922 14.1269 18.4799 13.2104 20.1453C12.4557 21.4883 11.2698 22.2941 9.92212 22.2941C8.08929 22.2941 7.01115 20.8974 7.01115 18.856C7.01115 14.8269 10.6229 14.0748 14.073 14.0748V15.0955ZM18.8167 26.6455C18.4933 26.9141 18.0621 26.9678 17.6847 26.7529C16.1214 25.4636 15.798 24.819 14.9355 23.5834C12.3479 26.2157 10.4612 27.0215 7.11897 27.0215C3.12986 27.0215 0.00326538 24.5504 0.00326538 19.6618C0.00326538 15.7939 2.10563 13.2153 5.0705 11.926C7.65803 10.7979 11.2698 10.583 14.019 10.2607V9.66974C14.019 8.5416 14.1269 7.19859 13.4261 6.23162C12.8331 5.37209 11.755 4.99604 10.7846 4.99604C8.9518 4.99604 7.33459 5.9093 6.95724 7.84324C6.84943 8.273 6.5799 8.70276 6.14864 8.70276L1.56656 8.21927C1.18921 8.11183 0.757964 7.84324 0.865778 7.25231C1.94391 1.66536 6.95725 2.28882e-05 11.4854 2.28882e-05C13.8034 2.28882e-05 16.8222 0.590947 18.655 2.36373C20.973 4.51255 20.7574 7.41347 20.7574 10.5293V17.889C20.7574 20.0915 21.6738 21.0585 22.5363 22.2941C22.8598 22.7239 22.9137 23.2611 22.5363 23.5297C21.5121 24.3355 19.7871 25.8397 18.8167 26.6455Z" fill="#CFCFDE"/>
</g>
<defs>
<clipPath id="clip0_44_10">
<rect width="153.641" height="46.0923" fill="white" transform="matrix(-1 0 0 -1 153.641 46.0923)"/>
</clipPath>
</defs>
</svg>
