<svg width="131" height="51" viewBox="0 0 131 51" fill="none" xmlns="http://www.w3.org/2000/svg">
<path d="M103.804 15.9018V0H107.049V13.6696C106.15 14.121 104.927 14.9738 103.804 15.9018ZM98.1632 20.6925C99.1615 19.4885 100.185 18.2846 101.408 17.2563V0H98.1632V20.6925ZM60.5751 33.3337C60.5751 37.5725 62.2474 41.6106 65.3173 44.6957C68.3623 47.7557 72.3807 49.4612 76.6237 49.4612C78.4207 49.4612 80.2677 49.085 81.5655 48.4329V45.1722C80.0431 45.8244 78.1961 46.2006 76.6237 46.2006C69.6851 46.2006 63.8448 40.3315 63.8448 33.3587V30.4242C63.8448 23.4514 69.7101 17.5823 76.6237 17.5823C80.068 17.5823 83.2877 18.9116 85.6838 21.3195C88.0798 23.7273 89.4026 26.9629 89.4026 30.4242V49.4863H92.6473V29.7971C92.4476 25.6336 90.6755 21.7459 87.6805 18.8364C84.6604 15.9269 80.7419 14.3217 76.6237 14.3217C72.4056 14.3217 68.3873 16.0022 65.3173 19.0872C62.2724 22.1472 60.5751 26.1854 60.5751 30.4493V33.3337ZM109.145 25.5081C110.618 24.0283 112.515 23.2006 114.386 23.2006C118.405 23.2006 121.525 26.3609 121.525 30.374V33.3086C121.525 37.3467 118.38 40.482 114.386 40.482C112.44 40.482 110.568 39.4034 109.095 37.4721C107.797 35.7666 106.949 33.434 106.824 31.3522L104.203 34.6128C104.727 37.0708 106 39.4536 107.822 41.109C109.694 42.8146 112.04 43.7677 114.386 43.7677C120.127 43.7677 124.794 39.0774 124.794 33.3337V30.3991C124.794 27.6652 123.696 25.0567 121.699 23.0752C119.703 21.0687 117.107 19.9651 114.386 19.9651C112.664 19.9651 109.944 20.5921 106.699 23.5267C105.826 24.4046 103.779 26.4613 102.531 27.916C100.434 30.2235 97.4144 33.6597 94.8187 37.1461V42.2377C97.689 38.5256 99.3363 36.4438 102.057 33.3086C104.453 30.4493 107.448 27.0131 109.145 25.5081ZM32.4715 19.3631V15.5005C29.5263 13.9204 26.3316 13.2181 22.0886 13.2181C17.7457 13.2181 13.6275 14.8233 10.5077 17.7077C7.36286 20.6172 5.6407 24.4296 5.6407 28.4929V29.5463C5.6407 37.9738 12.3546 44.8211 20.641 44.8211C27.3549 44.8211 30.1253 42.6139 30.8242 41.9116V32.1047H19.8423V35.3653H27.7792V40.2813H27.7542C26.7309 40.6826 24.6094 41.5354 20.641 41.5354C17.4962 41.5354 14.5261 40.3064 12.3297 38.049C10.1083 35.7917 8.91031 32.7819 8.91031 29.5212V28.4678C8.91031 21.9716 14.9504 16.4536 22.1135 16.4536C27.0304 16.4787 29.9756 17.3064 32.4715 19.3631ZM56.1325 23.2006C57.3555 23.2006 58.4037 23.4013 59.2523 23.8026C59.6517 22.7993 60.076 21.9465 60.675 20.9433C59.8014 20.3162 57.6799 19.9149 56.1325 19.9149C50.2172 19.9149 45.7496 24.4046 45.7496 30.374V49.4361H48.9942V30.374C48.9942 26.1603 51.9144 23.2006 56.1325 23.2006ZM0 28.4929V29.5463C0 35.2148 2.14646 40.482 6.01508 44.4198C9.88371 48.3326 15.0751 50.4896 20.616 50.4896C25.0837 50.4896 29.0272 49.4863 32.3716 47.4798C35.1171 45.8244 36.3401 44.169 36.4399 44.0185V26.4613H19.8423V29.7219H33.1953V43.0403C31.6229 44.6205 27.904 47.254 20.641 47.254C15.8988 47.254 11.506 45.4231 8.26138 42.1123C5.04169 38.8266 3.26961 34.362 3.26961 29.5714V28.518C3.26961 23.9782 5.29128 19.4634 8.83544 16.1276C12.4545 12.7165 17.1717 10.8353 22.1135 10.8353C26.7309 10.8353 29.9257 11.5376 32.4964 13.1178V9.43074C29.8009 8.27698 26.5812 7.77535 22.0886 7.77535C10.1083 7.77535 0 17.2563 0 28.4929ZM86.9816 49.4361V30.374C86.9816 24.5049 82.4141 19.9149 76.5738 19.9149C73.8533 19.9149 71.2575 21.0185 69.2608 23.0251C67.2641 25.0316 66.1659 27.6401 66.1659 30.3489V33.2835C66.1659 38.952 70.9331 43.7175 76.5488 43.7175C78.0963 43.7175 80.1928 43.3413 81.4907 42.2628V38.8767C80.2178 39.9051 78.3958 40.507 76.5488 40.507C72.5554 40.507 69.4106 37.3467 69.4106 33.3337V30.3991C69.4106 26.3609 72.5554 23.2257 76.5488 23.2257C80.5672 23.2257 83.687 26.386 83.687 30.3991V49.4612H86.9816V49.4361ZM56.1325 17.5322C58.3288 17.5322 60.2507 18.0087 61.9728 18.9869C62.7715 17.9585 63.5952 17.1559 64.2191 16.5289C62.3971 15.1243 59.3022 14.2715 56.1574 14.2715C51.6399 14.2715 47.5466 15.9018 44.6264 18.8866C41.7312 21.8211 40.1338 25.9095 40.1338 30.3991V49.4612H43.3785V30.3991C43.3535 22.8244 48.5949 17.5322 56.1325 17.5322ZM125.693 19.0371C122.648 15.9771 118.629 14.2715 114.386 14.2715C111.292 14.2715 108.197 15.4253 106.474 16.579C102.93 18.9367 100.035 21.5201 94.7937 28.3173V33.2082C99.2364 27.3893 103.43 22.8244 106.624 20.2911C108.721 18.6107 111.691 17.5572 114.386 17.5572C121.325 17.5572 127.165 23.4514 127.165 30.3991V33.3337C127.165 36.7699 125.818 40.0054 123.372 42.4383C120.951 44.8462 117.756 46.1755 114.386 46.1755C108.696 46.1755 103.679 42.2377 102.331 36.8953L100.035 39.6793C101.707 45.2977 107.747 49.4361 114.386 49.4361C118.629 49.4361 122.623 47.7306 125.693 44.6706C128.738 41.5856 130.435 37.5725 130.435 33.3086V30.374C130.435 26.1352 128.738 22.097 125.693 19.0371Z" fill="#CFCFDE"/>
</svg>
