<svg width="89" height="77" viewBox="0 0 89 77" fill="none" xmlns="http://www.w3.org/2000/svg">
<g clip-path="url(#clip0_151_32)">
<path d="M73.0322 18.8534L31.3024 21.9574C29.5443 22.0881 28.0362 23.1825 27.3665 24.8132C26.6969 26.444 27.0007 28.2825 28.1595 29.6109L37.3109 40.1033L52.3467 32.5116C53.0385 32.1623 53.8828 32.44 54.2321 33.1319C54.5815 33.8238 54.3038 34.668 53.6118 35.0174L38.5761 42.6091L41.5857 56.2024C41.9667 57.9236 43.2656 59.2596 44.9756 59.6889C46.6888 60.1191 48.4634 59.552 49.6104 58.2173L76.8837 26.4812C78.1254 25.0363 78.3633 23.0822 77.5046 21.3815C76.6459 19.6808 74.9322 18.712 73.0322 18.8534Z" fill="#41BE90"/>
</g>
<line x1="8.80814" y1="48.0971" x2="28.6067" y2="38.1006" stroke="#41BE90" stroke-width="2.73088" stroke-linecap="round"/>
<line x1="18.241" y1="49.7743" x2="31.1976" y2="43.2324" stroke="#FBA333" stroke-width="2.73088" stroke-linecap="round"/>
<line x1="26.8186" y1="51.8827" x2="33.7885" y2="48.3636" stroke="#41BE90" stroke-width="2.73088" stroke-linecap="round"/>
<defs>
<clipPath id="clip0_151_32">
<rect width="47.9037" height="47.9037" fill="white" transform="translate(23.9469 21.591) rotate(-26.7895)"/>
</clipPath>
</defs>
</svg>
