<svg width="42" height="36" viewBox="0 0 42 36" fill="none" xmlns="http://www.w3.org/2000/svg">
<g clip-path="url(#clip0_133_89)">
<path d="M16.7003 18.9114C16.3488 20.9221 17.6842 22.8349 19.6821 23.1842C21.6806 23.5336 23.5852 22.1871 23.9367 20.1764C24.2882 18.1657 22.9534 16.253 20.9549 15.9036C18.9569 15.5544 17.0518 16.9007 16.7003 18.9114ZM29.364 21.1252C29.0125 23.1359 30.3479 25.0488 32.3459 25.398C34.3444 25.7474 36.249 24.401 36.6005 22.3903C36.952 20.3796 35.6172 18.4668 33.6186 18.1175C31.6207 17.7682 29.7155 19.1145 29.364 21.1252ZM7.01831 20.9704C9.01681 21.3197 10.9214 19.9733 11.2729 17.9626C11.6244 15.9519 10.2896 14.0392 8.29107 13.6898C6.29313 13.3405 4.38796 14.6869 4.03646 16.6976C3.68496 18.7082 5.02037 20.6211 7.01831 20.9704ZM33.8368 27.5344L30.2186 26.9019C28.2206 26.5526 26.3155 27.899 25.964 29.9097L25.6458 31.7298C25.4701 32.7349 26.1377 33.6916 27.1367 33.8662L34.3732 35.1313C35.3721 35.3059 36.3248 34.6325 36.5005 33.6274L36.8187 31.8073C37.1702 29.7966 35.8347 27.8837 33.8368 27.5344ZM21.173 25.3206L17.5548 24.6881C15.5569 24.3388 13.6517 25.6852 13.3002 27.6958L12.982 29.516C12.8063 30.5211 13.4739 31.4778 14.4729 31.6524L21.7094 32.9174C22.7083 33.0921 23.661 32.4186 23.8367 31.4136L24.1549 29.5934C24.5064 27.5827 23.171 25.6699 21.173 25.3206ZM8.50923 23.1068L4.891 22.4743C2.89307 22.125 0.9879 23.4713 0.636399 25.482L0.318208 27.3022C0.142507 28.3072 0.810161 29.2639 1.80913 29.4386L9.04558 30.7036C10.0446 30.8782 10.9972 30.2048 11.1729 29.1997L11.4911 27.3796C11.8426 25.3689 10.5072 23.456 8.50923 23.1068ZM9.88202 4.58907L35.2096 9.01674L33.9368 16.2973C35.3321 16.5412 36.4972 17.3088 37.3068 18.3501L38.9711 8.82963C39.243 7.27455 38.247 5.79619 36.7505 5.53458L9.61385 0.790655C8.11737 0.529047 6.67894 1.58183 6.40708 3.13692L4.74275 12.6574C5.8576 11.9525 7.21455 11.6258 8.60926 11.8696L9.88202 4.58907Z" fill="#545AE8"/>
</g>
<defs>
<clipPath id="clip0_133_89">
<rect width="36.731" height="29.564" fill="white" transform="translate(5.09106) rotate(9.91602)"/>
</clipPath>
</defs>
</svg>
