<svg width="37" height="30" viewBox="0 0 37 30" fill="none" xmlns="http://www.w3.org/2000/svg">
<g clip-path="url(#clip0_133_89)">
<path d="M14.6924 16.6297C14.6924 18.6709 16.3372 20.3252 18.3655 20.3252C20.3943 20.3252 22.0386 18.6709 22.0386 16.6297C22.0386 14.5885 20.3943 12.9342 18.3655 12.9342C16.3372 12.9342 14.6924 14.5885 14.6924 16.6297ZM27.5482 16.6297C27.5482 18.6709 29.1931 20.3252 31.2213 20.3252C33.2501 20.3252 34.8944 18.6709 34.8944 16.6297C34.8944 14.5885 33.2501 12.9342 31.2213 12.9342C29.1931 12.9342 27.5482 14.5885 27.5482 16.6297ZM5.50965 20.3252C7.53846 20.3252 9.18274 18.6709 9.18274 16.6297C9.18274 14.5885 7.53846 12.9342 5.50965 12.9342C3.48141 12.9342 1.83655 14.5885 1.83655 16.6297C1.83655 18.6709 3.48141 20.3252 5.50965 20.3252ZM33.0579 22.173H29.3848C27.3565 22.173 25.7117 23.8273 25.7117 25.8685V27.7162C25.7117 28.7365 26.5341 29.564 27.5482 29.564H34.8944C35.9085 29.564 36.731 28.7365 36.731 27.7162V25.8685C36.731 23.8273 35.0861 22.173 33.0579 22.173ZM20.202 22.173H16.5289C14.5007 22.173 12.8558 23.8273 12.8558 25.8685V27.7162C12.8558 28.7365 13.6783 29.564 14.6924 29.564H22.0386C23.0527 29.564 23.8751 28.7365 23.8751 27.7162V25.8685C23.8751 23.8273 22.2303 22.173 20.202 22.173ZM7.34619 22.173H3.6731C1.64486 22.173 0 23.8273 0 25.8685V27.7162C0 28.7365 0.822429 29.564 1.83655 29.564H9.18274C10.1969 29.564 11.0193 28.7365 11.0193 27.7162V25.8685C11.0193 23.8273 9.37443 22.173 7.34619 22.173ZM5.50965 3.69549H31.2213V11.0865C32.6378 11.0865 33.9176 11.642 34.8944 12.5283V2.86343C34.8944 1.28476 33.6588 0 32.1396 0H4.59137C3.0722 0 1.83655 1.28476 1.83655 2.86343V12.5283C2.81336 11.642 4.09378 11.0865 5.50965 11.0865V3.69549Z" fill="#545AE8"/>
</g>
<defs>
<clipPath id="clip0_133_89">
<rect width="36.731" height="29.564" fill="white"/>
</clipPath>
</defs>
</svg>
