<svg width="49" height="41" viewBox="0 0 49 41" fill="none" xmlns="http://www.w3.org/2000/svg">
<g clip-path="url(#clip0_163_106)">
<path d="M15.3308 21.3777C19.6468 20.9119 22.7597 17.0109 22.2897 12.6571C21.8197 8.30325 17.9461 5.15645 13.6302 5.62233C9.31418 6.08821 6.20133 9.98914 6.6713 14.343C7.14126 18.6968 11.0149 21.8436 15.3308 21.3777ZM20.9287 23.0505L20.35 23.113C18.9756 23.9729 17.4105 24.5688 15.6953 24.7539C13.98 24.9391 12.3308 24.6901 10.7976 24.1441L10.2189 24.2065C5.7844 24.6852 2.57835 28.7029 3.06122 33.1764L3.27988 35.2021C3.48108 37.066 5.1434 38.4164 6.99112 38.2169L27.0719 36.0494C28.9196 35.8499 30.2555 34.1759 30.0543 32.3119L29.8356 30.2863C29.3528 25.8128 25.3632 22.5718 20.9287 23.0505ZM35.4117 19.2102C39.1071 18.8113 41.7788 15.4632 41.3764 11.7353C40.974 8.00748 37.6494 5.30663 33.9539 5.70553C30.2585 6.10442 27.5868 9.45253 27.9892 13.1804C28.3916 16.9082 31.7162 19.6091 35.4117 19.2102ZM39.0014 21.0997L38.7365 21.1283C37.8037 21.5705 36.8031 21.9062 35.7153 22.0236C34.6276 22.141 33.5784 22.0266 32.5728 21.7936L32.3078 21.8222C30.8854 21.9757 29.6194 22.5322 28.541 23.3246C30.442 24.9908 31.7738 27.3304 32.0668 30.0454L32.3584 32.7463C32.3751 32.9011 32.3562 33.0525 32.3651 33.201L44.6786 31.8719C46.5263 31.6724 47.8622 29.9984 47.661 28.1344C47.191 23.7806 43.3174 20.6338 39.0014 21.0997Z" fill="#23bdee"/>
</g>
<defs>
<clipPath id="clip0_163_106">
<rect width="44.8833" height="36.2216" fill="white" transform="translate(0 4.81689) rotate(-6.16081)"/>
</clipPath>
</defs>
</svg>
