<svg width="84" height="38" viewBox="0 0 84 38" fill="none" xmlns="http://www.w3.org/2000/svg">
<path d="M1.10715 13.1028C4.01696 9.91952 11.859 3.9487 19.9489 5.53174C30.0612 7.51054 35.6792 13.1028 48.6437 13.1028C61.6082 13.1028 71.9798 -1.09288 83.3021 1.91829" stroke="#B2C4F0" stroke-width="3"/>
<path d="M1.10715 24.7063C4.01696 21.523 11.859 15.5522 19.9489 17.1353C30.0612 19.1141 35.6792 24.7063 48.6437 24.7063C61.6082 24.7063 71.9798 10.5106 83.3021 13.5218" stroke="#B2C4F0" stroke-width="3"/>
<path d="M1.10715 36.3098C4.01696 33.1265 11.859 27.1557 19.9489 28.7388C30.0612 30.7176 35.6792 36.3098 48.6437 36.3098C61.6082 36.3098 71.9798 22.1141 83.3021 25.1253" stroke="#B2C4F0" stroke-width="3"/>
</svg>
