<svg version="1.2" xmlns="http://www.w3.org/2000/svg" viewBox="0 0 308 308" width="308" height="308">
	<g>
		<path class="s0" d="m241.51 177.59l-38.81-23.95c-2.79-1.72-6.54-0.81-8.26 1.96-1.72 2.77-0.81 6.55 1.96 8.25l38.8 23.95c2.79 1.72 6.55 0.84 8.26-1.95 1.71-2.8 0.84-6.54-1.95-8.26zm-62.38-37.44c-3.83 0-6.72 3.65-5.85 7.38 0.35 1.48 1.37 2.83 2.72 3.68 0.92 0.59 2 0.94 3.12 0.94 2.1 0 4.01-1.06 5.11-2.85 2.34-3.81-0.6-9.15-5.1-9.15zm-62.13 15.14c-1.69-2.7-5.6-3.57-8.28-1.88l-38.57 24.33c-2.77 1.75-3.62 5.5-1.87 8.27 1.05 1.67 3.07 2.64 5.08 2.7 1.13 0.03 2.25-0.23 3.19-0.82l38.58-24.33c2.77-1.75 3.61-5.49 1.87-8.27zm15.21-15.6c-2.78 0-5.22 1.96-5.84 4.67-0.84 3.7 2.09 7.33 5.86 7.33 2.78 0 5.23-1.96 5.85-4.68 0.84-3.72-2.06-7.32-5.87-7.32z"/>
		<path class="s0" d="m306.13 273.68c-2.18-2.5-5.97-2.77-8.47-0.59-6.39 5.56-12.31 11.33-20.71 13.65-9.33 2.58-18.2 0.54-26.65-3.68l31.25-105.14q0.28-0.95 0.25-1.94-0.04-1-0.4-1.93-0.36-0.92-1-1.69-0.64-0.76-1.49-1.28l-28.91-17.51v-51.16c0-3.31-2.69-6-6-6h-12v-18c0-3.31-2.69-6-6-6h-18.9v-18c0-3.31-2.69-5.99-6-5.99h-29.1v-42c0-3.32-2.69-6-6-6h-24c-3.31 0-6 2.68-6 6v42h-29.1c-3.31 0-6 2.68-6 5.99v18h-18.9c-3.31 0-6 2.69-6 6v18h-12c-3.31 0-6 2.69-6 6v51.16l-28.91 17.51q-0.85 0.52-1.49 1.28-0.64 0.76-1 1.69-0.35 0.93-0.39 1.93-0.04 0.99 0.24 1.94l31.18 104.92c-0.53-1.79-10.13-2.97-11.83-3.19-17.47-2.26-30.75 6.49-43.34 17.44-2.5 2.17-2.76 5.96-0.59 8.46 2.08 2.39 5.94 2.79 8.47 0.59 12.96-11.27 27.58-19.86 44.73-11.28 15.52 7.76 31.58 11.08 47.75 2.58 13.03-6.86 25.61-12.79 40.15-5.86l14.96 7.12c12.8 6.1 27.41 5.96 40.08-0.38 7.81-3.91 15.75-9.11 24.67-9.72 8.75-0.6 17.2 2.66 24.88 6.5 10.15 5.08 22.04 6.09 32.94 2.99 10.04-2.87 17.35-9.26 25.04-15.95 2.5-2.17 2.76-5.96 0.59-8.46zm-68.13-165.27v37.89l-62.52-37.89zm-90-95.99h12v36h-12zm-35.1 47.99h82.2v12h-82.2zm-42.9 48h62.52l-62.52 37.89zm78 172.26c0-1.06-8.55-3.03-9.67-3.27-10.44-2.26-21.65-0.83-31.12 4.16-6.87 3.61-13.5 7.83-21.35 8.84l-0.04 0.01c-4.59 0.55-9.29 0.22-13.73-1.08l-32.82-110.39 108.73-65.88zm-60-184.27v-12h132v12zm151.21 181.83c0.07-1.85-16.82-1.84-17.95-1.72-10.42 1.1-19.42 6.46-28.62 11.06-10.85 5.43-22.03 3.87-32.64-1.19v-173.33l108.73 65.88z"/>
	</g>
</svg>