<svg width="67" height="52" viewBox="0 0 67 52" fill="none" xmlns="http://www.w3.org/2000/svg">
<path d="M28.3757 15.9062V42.5762C28.3759 42.793 28.4622 43.0009 28.6155 43.1543C28.7689 43.3076 28.9768 43.3939 29.1936 43.3942H35.8516C36.0685 43.3939 36.2764 43.3076 36.4298 43.1543C36.5831 43.0009 36.6694 42.793 36.6696 42.5762V14.9862C37.2371 13.8176 38.1134 12.8265 39.2036 12.1202C40.3726 11.2494 41.789 10.7746 43.2466 10.7652C47.8606 10.7652 50.1046 13.4002 50.1046 18.8142V39.8312C47.6313 41.6364 45.0023 43.2179 42.2486 44.5572C25.7116 52.6212 8.11164 50.6742 3.01164 40.2182C0.272636 34.6002 1.60065 27.4372 6.64465 20.4862V42.5762C6.64491 42.793 6.73117 43.0009 6.88451 43.1543C7.03786 43.3076 7.24577 43.3939 7.46264 43.3942H14.1216C14.3385 43.3939 14.5464 43.3076 14.6998 43.1543C14.8531 43.0009 14.9394 42.793 14.9396 42.5762V15.0932C15.6441 13.9124 16.6128 12.9112 17.7696 12.1682C18.8747 11.3334 20.203 10.8461 21.5856 10.7682C23.3712 10.6767 25.1358 11.1873 26.5966 12.2182C27.1749 12.6383 27.6398 13.1953 27.9498 13.8393C28.2597 14.4833 28.405 15.1942 28.3726 15.9082M27.5916 10.9172C25.8492 9.66439 23.7355 9.03522 21.5916 9.13117C19.8785 9.20678 18.2274 9.79442 16.8516 10.8182C15.4105 11.745 14.2233 13.0167 13.3976 14.5182C13.3386 14.6336 13.3077 14.7615 13.3076 14.8912V41.7582H8.28564V18.0992C8.28533 17.931 8.23326 17.767 8.13651 17.6295C8.03976 17.4919 7.90303 17.3875 7.74487 17.3304C7.58671 17.2733 7.41479 17.2662 7.25248 17.3102C7.09017 17.3541 6.94534 17.447 6.83764 17.5762C0.25864 25.5042 -1.72036 34.2372 1.54464 40.9352C4.70864 47.4202 12.2066 51.1352 22.1176 51.1352C29.3633 51.0234 36.4901 49.2758 42.9656 46.0232C45.9343 44.58 48.7622 42.8636 51.4126 40.8962C51.5144 40.8197 51.5971 40.7206 51.6542 40.6068C51.7113 40.493 51.7412 40.3675 51.7416 40.2402V18.8142C51.7416 12.3892 48.8836 9.13117 43.2476 9.12817C41.4504 9.13459 39.7021 9.71476 38.2576 10.7842C36.8645 11.693 35.7656 12.9872 35.0946 14.5092C35.0545 14.6076 35.0337 14.7129 35.0336 14.8192V41.7582H30.0116V15.9062C30.0466 14.9401 29.8445 13.9801 29.423 13.1101C29.0015 12.2401 28.3734 11.4865 27.5936 10.9152M58.3996 31.9552V17.4832C58.3996 13.1302 57.2526 9.68917 54.9946 7.25617C52.7156 4.77816 49.4826 3.52216 45.3856 3.52216C43.0933 3.52991 40.8313 4.0474 38.7636 5.03716C37.2738 5.68584 35.9542 6.67013 34.9076 7.91316C33.4568 6.1765 31.5187 4.91454 29.3436 4.29016C35.649 1.95024 42.4301 1.18409 49.0986 2.05817C55.7696 3.12817 60.6986 6.29316 62.9826 10.9702C65.8826 16.9052 64.1616 24.7152 58.3996 31.9552ZM64.4536 10.2542C59.2926 -0.324834 42.8277 -3.11883 26.1537 3.75417C25.9867 3.8227 25.8471 3.94453 25.7566 4.10067C25.6661 4.25681 25.6297 4.43849 25.6533 4.61743C25.6768 4.79637 25.7588 4.96252 25.8865 5.08998C26.0143 5.21745 26.1807 5.29908 26.3596 5.32217C29.9876 5.79117 32.6426 7.29517 34.2506 9.79417C34.3282 9.91437 34.4359 10.0121 34.5631 10.0778C34.6902 10.1434 34.8323 10.1746 34.9752 10.1682C35.1181 10.1618 35.2569 10.1181 35.3777 10.0414C35.4985 9.96477 35.5971 9.85779 35.6636 9.73116C36.5487 8.27627 37.8822 7.14806 39.4636 6.51617C41.3132 5.62963 43.3366 5.16542 45.3876 5.15717C49.0086 5.15717 51.8356 6.23617 53.7936 8.36517C55.7516 10.4942 56.7646 13.5542 56.7646 17.4812V34.1892C56.7642 34.3552 56.8143 34.5174 56.9083 34.6543C57.0022 34.7911 57.1356 34.8962 57.2907 34.9554C57.4458 35.0147 57.6152 35.0253 57.7765 34.986C57.9378 34.9467 58.0833 34.8592 58.1936 34.7352C65.5696 26.4852 67.9106 17.3352 64.4556 10.2512" fill="white"/>
</svg>
