<svg xmlns="http://www.w3.org/2000/svg" width="132.515" height="98.135" viewBox="0 0 132.515 98.135">
  <g id="Group_1872" data-name="Group 1872" transform="translate(-111.016 -72.241)">
    <path id="Path_12161" data-name="Path 12161" d="M236.474,170.372q.753-.069.754-.916v-14.61a4.85,4.85,0,0,1,.137-1.466,1.154,1.154,0,0,1,1.164-.618,9.78,9.78,0,0,1,3.106.277,5.162,5.162,0,0,1,1.9,1.732v-1.925q-.069-.7-1.028-.7-12.059-.046-13.658,0c-.381.03-.571.191-.571.479v2.262a15.878,15.878,0,0,1,1.247-1.256,3.191,3.191,0,0,1,1.928-.8,16.651,16.651,0,0,1,2-.069q1.179-.023,1.179,1.69v15.919Zm-12.242-16.513a4.576,4.576,0,0,0-2.124-1.05,6.133,6.133,0,0,0-1.393-.161,4.954,4.954,0,0,0-3.7,1.371,3.265,3.265,0,0,0-1.027,2.329,2.531,2.531,0,0,0,.365,1.462,8.873,8.873,0,0,0,2.924,2.284,26.166,26.166,0,0,1,3.381,2.124,5.477,5.477,0,0,1,1.736,2.055,3.788,3.788,0,0,1,.228,1.325,3.05,3.05,0,0,1-.32,1.462,6.625,6.625,0,0,1-3.084,2.65,9.6,9.6,0,0,1-4.088.868,13.165,13.165,0,0,1-2.49-.252q-1.439-.274-1.439-1.21v-2.147q1.645,2.97,4.088,2.969a4.07,4.07,0,0,0,1.8-.388q2.81-1.416,2.809-3.312a2.637,2.637,0,0,0-.616-1.759,7.9,7.9,0,0,0-2.353-1.69,21.574,21.574,0,0,1-3.608-2.124,5.335,5.335,0,0,1-1.508-1.713,4.543,4.543,0,0,1-.388-2.124,4.3,4.3,0,0,1,1.8-3.4A6.84,6.84,0,0,1,218.8,152.1a16.74,16.74,0,0,1,2.353-.137H222.2q1.394.092,1.439.115a2.457,2.457,0,0,1,1.279.5,5.039,5.039,0,0,1,.343,2.626,3.037,3.037,0,0,0-1.028-1.347M205.778,164.57a.613.613,0,0,0-.091-.3l-3.358-8.839q-.228-.5-.457-.5c-.137,0-.251.168-.343.5L199.2,164.89h6.1q.48-.023.48-.32m5.459,5.8h-2.65q-.868.182-1.485-1.85-.5-1.393-.754-1.965a2.736,2.736,0,0,0-.434-.754,1.223,1.223,0,0,0-.8-.228h-6.121l-1.233,4.134a2.222,2.222,0,0,1-.343.434.827.827,0,0,1-.571.228h-.982l6.167-18.157q.069-.228.457-.32a1.112,1.112,0,0,1,.343-.045h.982Zm-25.466,0q.754-.069.616-1.05v-6.555q.069-.96.846-.959h5.024q.3-.044.3-.4,0-.176-.457-.22h-5.71v-7.243q.092-1.23,1.165-1.207,3.517.159,4.682.251a4.775,4.775,0,0,1,3.563,2.421v-1.644a1.545,1.545,0,0,0-1.759-1.576q-6.829.024-8.839,0-1.394.069-1.393,1.188v16.993ZM178.21,153.7a6.828,6.828,0,0,0-1.3-.457,20.576,20.576,0,0,0-3.311-.342,21.143,21.143,0,0,1-2.193.023q-1.074.092-1.073,1.3v7.035H175.9q.662.023.776.182-.023.548-.548.411h-4.956q-.891.092-.891,1.3v6.533H173.3a13.54,13.54,0,0,0,4.819-.731q1.666-.754,1.758-1.942v2.444a.926.926,0,0,1-.32.777,1.335,1.335,0,0,1-.685.16H167.7V154.041a1.8,1.8,0,0,1,2.033-1.85q6.531-.068,8.61,0,1.529.092,1.53,1.325v1.965a2.92,2.92,0,0,0-1.667-1.781m-25.649-1.553q1.347.068,1.21,1v7.56q.023.526.365.525a1.221,1.221,0,0,0,.708-.388q6.623-7.628,6.943-7.994.662-.754,1.05-.708h1.417l-8.314,8.291,8.383,9.935h-1.782a2.565,2.565,0,0,1-1.781-.8q-6.029-6.6-6.3-6.9a.526.526,0,0,0-.365-.183c-.167,0-.274.161-.32.48V169.8q-.069.571-.868.571h-1.85V152.146ZM142.489,164.57a.613.613,0,0,0-.091-.3l-3.358-8.839q-.228-.5-.457-.5c-.137,0-.251.168-.342.5l-2.33,9.456h6.1q.48-.023.48-.32m5.459,5.8H145.3q-.868.182-1.485-1.85-.5-1.393-.754-1.965a2.736,2.736,0,0,0-.434-.754,1.221,1.221,0,0,0-.8-.228h-6.121l-1.233,4.134a2.222,2.222,0,0,1-.343.434.827.827,0,0,1-.571.228h-.982l6.167-18.157q.069-.228.457-.32a1.1,1.1,0,0,1,.342-.045h.982Zm-18.432-18.2v18.2h-1.759a.819.819,0,0,1-.731-.525,1.252,1.252,0,0,1-.114-.457V155.343l-5.733,14.435a1.017,1.017,0,0,1-.388.525.8.8,0,0,1-.206.069h-1.439q-.365.137-.776-.8l-4.659-14.686-1.987,14.983a.518.518,0,0,1-.388.434.716.716,0,0,1-.32.069l.594-18.2h2.056a1.03,1.03,0,0,1,1.028.64l5.916,16.4,6.052-16.17a1.331,1.331,0,0,1,.594-.754.909.909,0,0,1,.343-.115Z" transform="translate(0 -19.617)" fill="#fff"/>
    <path id="Path_12162" data-name="Path 12162" d="M214.955,188.754v10.185h1.655v-3.685h1.514a5.292,5.292,0,0,0,1.687-.244,3.465,3.465,0,0,0,1.213-.679,2.792,2.792,0,0,0,.735-1.04,3.735,3.735,0,0,0,.014-2.638,2.607,2.607,0,0,0-.711-1.011,3.34,3.34,0,0,0-1.21-.654,5.706,5.706,0,0,0-1.729-.234Zm1.655,5.191v-3.9h1.514a3.327,3.327,0,0,1,.986.131,1.847,1.847,0,0,1,.7.378,1.554,1.554,0,0,1,.414.6,2.186,2.186,0,0,1,.138.8,2.269,2.269,0,0,1-.142.82,1.636,1.636,0,0,1-.421.626,1.912,1.912,0,0,1-.7.4,3.037,3.037,0,0,1-.973.142ZM203.217,197.4a2.177,2.177,0,0,1-.781-.555,2.462,2.462,0,0,1-.488-.856,3.42,3.42,0,0,1-.17-1.107v-6.132h-1.655v6.139a4.705,4.705,0,0,0,.286,1.662,3.708,3.708,0,0,0,2.129,2.189,4.916,4.916,0,0,0,3.459,0,3.708,3.708,0,0,0,2.129-2.189,4.688,4.688,0,0,0,.286-1.662v-6.139h-1.648v6.139a3.423,3.423,0,0,1-.17,1.107,2.4,2.4,0,0,1-.491.852,2.23,2.23,0,0,1-.785.552,2.883,2.883,0,0,1-2.1,0m-10.949-1.974a3.3,3.3,0,0,1-.679,1.185,2.932,2.932,0,0,1-1.072.743,3.992,3.992,0,0,1-2.822,0,2.965,2.965,0,0,1-1.075-.743,3.3,3.3,0,0,1-.686-1.185,5.316,5.316,0,0,1,0-3.161,3.342,3.342,0,0,1,.686-1.188,2.982,2.982,0,0,1,1.075-.75,3.938,3.938,0,0,1,2.822,0,2.948,2.948,0,0,1,1.072.75,3.341,3.341,0,0,1,.679,1.188,5.4,5.4,0,0,1,0,3.161m1.559-3.671a4.844,4.844,0,0,0-1.036-1.648,4.7,4.7,0,0,0-1.605-1.082,5.755,5.755,0,0,0-4.159,0,4.742,4.742,0,0,0-1.609,1.082,4.819,4.819,0,0,0-1.04,1.648,6.1,6.1,0,0,0,0,4.173,4.7,4.7,0,0,0,2.649,2.723,5.755,5.755,0,0,0,4.159,0,4.727,4.727,0,0,0,1.605-1.078,4.814,4.814,0,0,0,1.036-1.644,6.092,6.092,0,0,0,0-4.173m-17.025,3.3a1.648,1.648,0,0,0-.523-.516,3.763,3.763,0,0,0,1-.432,2.946,2.946,0,0,0,.739-.651,2.766,2.766,0,0,0,.46-.834,3.211,3.211,0,0,0-.063-2.172,2.31,2.31,0,0,0-.69-.909,3.313,3.313,0,0,0-1.192-.583,6.417,6.417,0,0,0-1.729-.2h-3v10.185h1.655v-4.1h.919a.9.9,0,0,1,.424.078.8.8,0,0,1,.262.255l2.376,3.43a.682.682,0,0,0,.637.34h1.479Zm-3.345-1.422v-3.586H174.8a2.653,2.653,0,0,1,1.669.439,1.531,1.531,0,0,1,.552,1.274,1.98,1.98,0,0,1-.141.76,1.584,1.584,0,0,1-.424.591,2,2,0,0,1-.708.385,3.21,3.21,0,0,1-.99.138Zm-11.543.29v.94a.3.3,0,0,0,.092.23.35.35,0,0,0,.255.089h1.422v2.023a5.119,5.119,0,0,1-.966.375,4.29,4.29,0,0,1-1.121.134,4.237,4.237,0,0,1-1.525-.261,3.17,3.17,0,0,1-1.164-.76,3.415,3.415,0,0,1-.743-1.217,4.748,4.748,0,0,1-.261-1.63,4.669,4.669,0,0,1,.248-1.564,3.356,3.356,0,0,1,.707-1.191,3.106,3.106,0,0,1,1.107-.757,3.8,3.8,0,0,1,1.454-.265,4.948,4.948,0,0,1,.919.074,3.758,3.758,0,0,1,1.213.442l.435.255a.5.5,0,0,0,.382.084.469.469,0,0,0,.29-.219l.474-.757a4.636,4.636,0,0,0-.7-.537A4.544,4.544,0,0,0,163.6,189a5.723,5.723,0,0,0-.98-.265,6.451,6.451,0,0,0-1.142-.095,5.944,5.944,0,0,0-2.179.378,4.614,4.614,0,0,0-2.709,2.716,5.855,5.855,0,0,0-.368,2.112,5.6,5.6,0,0,0,.382,2.1,4.708,4.708,0,0,0,1.09,1.645,4.967,4.967,0,0,0,1.708,1.075,6.189,6.189,0,0,0,2.239.386,5.888,5.888,0,0,0,3.537-1.1v-4.032Z" transform="translate(-11.139 -28.683)" fill="#fff"/>
    <path id="Path_12163" data-name="Path 12163" d="M184.264,88.148v26.67a.819.819,0,0,0,.818.818h6.658a.819.819,0,0,0,.818-.818V87.228a7.121,7.121,0,0,1,2.534-2.866,6.842,6.842,0,0,1,4.043-1.355c4.614,0,6.858,2.635,6.858,8.049v21.017a51.623,51.623,0,0,1-7.856,4.726C181.6,124.863,164,122.916,158.9,112.46c-2.739-5.618-1.411-12.781,3.633-19.732v22.09a.819.819,0,0,0,.818.818h6.659a.819.819,0,0,0,.818-.818V87.335a8.89,8.89,0,0,1,2.83-2.925,6.983,6.983,0,0,1,3.816-1.4,7.983,7.983,0,0,1,5.011,1.45,4.319,4.319,0,0,1,1.776,3.69m-.781-4.991a9.547,9.547,0,0,0-6-1.786,8.573,8.573,0,0,0-4.74,1.687,10.3,10.3,0,0,0-3.454,3.7.82.82,0,0,0-.09.373V114h-5.022V90.341a.819.819,0,0,0-1.448-.523c-6.579,7.928-8.558,16.661-5.293,23.359,3.164,6.485,10.662,10.2,20.573,10.2a48.1,48.1,0,0,0,20.848-5.112,53.182,53.182,0,0,0,8.447-5.127.824.824,0,0,0,.329-.656V91.056c0-6.425-2.858-9.683-8.494-9.686a8.437,8.437,0,0,0-4.99,1.656,8.58,8.58,0,0,0-3.163,3.725.822.822,0,0,0-.061.31V114H185.9V88.148a5.922,5.922,0,0,0-2.418-4.991m30.806,21.04V89.725c0-4.353-1.147-7.794-3.405-10.227-2.279-2.478-5.512-3.734-9.609-3.734a15.458,15.458,0,0,0-6.622,1.515,10.542,10.542,0,0,0-3.856,2.876,11.32,11.32,0,0,0-5.564-3.623A41.339,41.339,0,0,1,204.987,74.3c6.671,1.07,11.6,4.235,13.884,8.912,2.9,5.935,1.179,13.744-4.583,20.984m6.054-21.7c-5.161-10.579-21.626-13.373-38.3-6.5a.818.818,0,0,0,.206,1.568c3.628.469,6.283,1.973,7.891,4.472a.819.819,0,0,0,1.413-.063,7.863,7.863,0,0,1,3.8-3.215,13.834,13.834,0,0,1,5.924-1.359c3.621,0,6.448,1.079,8.406,3.208s2.971,5.189,2.971,9.116v16.708a.818.818,0,0,0,1.429.546c7.376-8.25,9.717-17.4,6.262-24.484" transform="translate(-11.057)" fill="#fff"/>
  </g>
</svg>
