<svg xmlns="http://www.w3.org/2000/svg"  viewBox="0 0 132.608 98.083">
  <g id="Group_1987" data-name="Group 1987" transform="translate(-84.273 -300.902)">
    <path id="Path_12375" data-name="Path 12375" d="M209.819,399.046q.753-.069.754-.917v-14.62a4.853,4.853,0,0,1,.137-1.467,1.155,1.155,0,0,1,1.165-.618,9.791,9.791,0,0,1,3.108.277,5.167,5.167,0,0,1,1.9,1.734v-1.926q-.069-.7-1.029-.7-12.067-.046-13.667,0c-.382.03-.572.191-.572.48v2.263a15.9,15.9,0,0,1,1.248-1.257,3.193,3.193,0,0,1,1.929-.8,16.669,16.669,0,0,1,2-.069q1.18-.023,1.18,1.691v15.931Zm-12.25-16.525a4.579,4.579,0,0,0-2.126-1.051,6.094,6.094,0,0,0-1.394-.161,4.957,4.957,0,0,0-3.7,1.372,3.267,3.267,0,0,0-1.028,2.331,2.533,2.533,0,0,0,.365,1.463,8.878,8.878,0,0,0,2.926,2.286,26.183,26.183,0,0,1,3.383,2.126,5.48,5.48,0,0,1,1.737,2.056,3.791,3.791,0,0,1,.228,1.326,3.061,3.061,0,0,1-.32,1.463,6.63,6.63,0,0,1-3.086,2.651,9.608,9.608,0,0,1-4.091.869,13.175,13.175,0,0,1-2.492-.252q-1.44-.274-1.44-1.211V395.64q1.646,2.971,4.091,2.971a4.083,4.083,0,0,0,1.805-.388q2.812-1.417,2.811-3.314a2.639,2.639,0,0,0-.617-1.76,7.911,7.911,0,0,0-2.354-1.691,21.594,21.594,0,0,1-3.611-2.125,5.34,5.34,0,0,1-1.509-1.714,4.546,4.546,0,0,1-.388-2.126,4.3,4.3,0,0,1,1.805-3.406,6.844,6.844,0,0,1,3.565-1.326,16.752,16.752,0,0,1,2.354-.137h1.051q1.395.092,1.44.115a2.459,2.459,0,0,1,1.28.5,5.042,5.042,0,0,1,.343,2.628,3.039,3.039,0,0,0-1.029-1.348M179.1,393.24a.614.614,0,0,0-.091-.3l-3.36-8.845q-.228-.5-.457-.5c-.137,0-.251.168-.343.5l-2.331,9.462h6.1q.481-.023.48-.32m5.463,5.806h-2.651q-.869.182-1.486-1.851-.5-1.394-.754-1.966a2.738,2.738,0,0,0-.434-.754,1.224,1.224,0,0,0-.8-.229h-6.126l-1.234,4.137a2.223,2.223,0,0,1-.343.434.828.828,0,0,1-.572.229h-.983l6.171-18.17q.069-.229.457-.321a1.113,1.113,0,0,1,.343-.045h.983Zm-25.484,0q.755-.069.617-1.051v-6.56q.069-.96.846-.96h5.028q.3-.044.3-.4,0-.176-.457-.22H159.7v-7.248q.092-1.231,1.166-1.208,3.519.16,4.685.251a4.778,4.778,0,0,1,3.565,2.423V382.43a1.546,1.546,0,0,0-1.76-1.578q-6.833.024-8.845,0-1.395.069-1.394,1.189v17.005Zm-7.565-16.685a6.827,6.827,0,0,0-1.3-.458,20.6,20.6,0,0,0-3.314-.342,21.146,21.146,0,0,1-2.194.023q-1.075.092-1.074,1.3v7.04h5.577q.663.023.777.183-.023.549-.548.412h-4.96q-.891.092-.891,1.3v6.537H146.6a13.551,13.551,0,0,0,4.822-.731q1.667-.754,1.759-1.943v2.446a.927.927,0,0,1-.32.777,1.336,1.336,0,0,1-.685.16H141V382.7a1.8,1.8,0,0,1,2.035-1.851q6.536-.068,8.616,0,1.53.092,1.531,1.326v1.966a2.922,2.922,0,0,0-1.668-1.783m-25.667-1.554q1.348.068,1.211,1.005v7.565q.023.526.366.526a1.222,1.222,0,0,0,.709-.388q6.627-7.633,6.948-8,.663-.754,1.051-.708h1.418l-8.32,8.3,8.389,9.942h-1.783a2.567,2.567,0,0,1-1.783-.8q-6.034-6.6-6.308-6.9a.527.527,0,0,0-.366-.183c-.167,0-.274.161-.32.48v6.834q-.069.571-.869.572h-1.851V380.807ZM115.768,393.24a.613.613,0,0,0-.091-.3l-3.36-8.845q-.228-.5-.457-.5c-.137,0-.251.168-.342.5l-2.332,9.462h6.1q.481-.023.48-.32m5.463,5.806H118.58q-.869.182-1.486-1.851-.5-1.394-.754-1.966a2.737,2.737,0,0,0-.434-.754,1.222,1.222,0,0,0-.8-.229H108.98l-1.234,4.137a2.223,2.223,0,0,1-.343.434.828.828,0,0,1-.572.229h-.983l6.171-18.17q.069-.229.458-.321a1.1,1.1,0,0,1,.342-.045h.983ZM102.786,380.83v18.216h-1.76a.819.819,0,0,1-.731-.526,1.253,1.253,0,0,1-.114-.458V384.007l-5.737,14.445a1.018,1.018,0,0,1-.388.526.8.8,0,0,1-.206.069H92.41q-.365.137-.777-.8l-4.663-14.7-1.989,14.993a.518.518,0,0,1-.388.434.717.717,0,0,1-.32.069l.594-18.216h2.057a1.031,1.031,0,0,1,1.029.64l5.92,16.41L99.929,381.7a1.331,1.331,0,0,1,.594-.754.91.91,0,0,1,.343-.115Z" transform="translate(0 -19.575)" fill="currentColor"/>
    <path id="Path_12376" data-name="Path 12376" d="M194.17,426.307v-3.15h3.752v-1.3H194.17V418.79h4.693v-1.338h-6.356v10.193h6.356l.008-1.338Zm-10.213-8.855V424.1c0,.123,0,.255.011.4s.017.286.032.432l-5.606-7.2a1.316,1.316,0,0,0-.12-.142.4.4,0,0,0-.121-.084.506.506,0,0,0-.138-.039,1.349,1.349,0,0,0-.18-.011h-.863v10.193h1.458v-6.7c0-.113,0-.237-.011-.371s-.017-.271-.032-.407l5.6,7.191a.767.767,0,0,0,.255.223.728.728,0,0,0,.326.067h.842V417.452Zm-14.078,0h-1.664v10.193h1.664Zm-10.32,6.307a1.658,1.658,0,0,0-.523-.517,3.764,3.764,0,0,0,1-.432,2.961,2.961,0,0,0,.74-.651,2.78,2.78,0,0,0,.46-.836,3.21,3.21,0,0,0-.063-2.173,2.308,2.308,0,0,0-.69-.909,3.3,3.3,0,0,0-1.193-.584,6.426,6.426,0,0,0-1.731-.205h-3v10.193h1.657v-4.105h.92a.9.9,0,0,1,.425.078.786.786,0,0,1,.262.255L160.2,427.3a.681.681,0,0,0,.637.34h1.479Zm-3.348-1.423v-3.588h1.345a2.655,2.655,0,0,1,1.67.439,1.531,1.531,0,0,1,.552,1.274,1.979,1.979,0,0,1-.141.761,1.573,1.573,0,0,1-.425.591,2,2,0,0,1-.707.385,3.216,3.216,0,0,1-.991.138Zm-11.417-4.884h-1.677l-4.042,10.193h1.281a.527.527,0,0,0,.354-.121.675.675,0,0,0,.2-.262l.85-2.251h4.388l.849,2.251a.721.721,0,0,0,.205.272.544.544,0,0,0,.354.11h1.281Zm-2.584,6.37,1.4-3.715c.052-.142.109-.305.17-.492s.118-.39.17-.612a10.4,10.4,0,0,0,.347,1.1l1.4,3.723Zm-10.093-6.37a1.142,1.142,0,0,0-.34.039.425.425,0,0,0-.219.237l-3.221,5.91q-.106.206-.2.428t-.18.449c-.052-.151-.109-.3-.173-.442s-.131-.284-.2-.422l-3.271-5.924a.423.423,0,0,0-.219-.237,1.133,1.133,0,0,0-.339-.039h-1.239v10.193h1.458v-6.986c0-.118,0-.245-.011-.382s-.018-.274-.032-.41l3.327,6.065a.613.613,0,0,0,.587.376h.234a.623.623,0,0,0,.587-.376l3.277-6.052c-.014.137-.025.273-.032.407s-.011.259-.011.372v6.986h1.458V417.452Z" transform="translate(-9.403 -28.659)" fill="currentColor"/>
    <path id="Path_12377" data-name="Path 12377" d="M157.54,316.82v26.689a.82.82,0,0,0,.819.819h6.663a.82.82,0,0,0,.819-.819V315.9a7.126,7.126,0,0,1,2.535-2.868,6.847,6.847,0,0,1,4.046-1.356c4.617,0,6.862,2.636,6.862,8.055v21.031a51.663,51.663,0,0,1-7.862,4.73c-16.545,8.069-34.157,6.121-39.261-4.343-2.74-5.622-1.412-12.79,3.636-19.745v22.105a.82.82,0,0,0,.818.819h6.664a.82.82,0,0,0,.819-.819v-27.5a8.9,8.9,0,0,1,2.832-2.927,6.988,6.988,0,0,1,3.819-1.4,7.989,7.989,0,0,1,5.014,1.451,4.321,4.321,0,0,1,1.777,3.693m-.782-4.994a9.553,9.553,0,0,0-6.009-1.787,8.573,8.573,0,0,0-4.743,1.688,10.31,10.31,0,0,0-3.456,3.7.82.82,0,0,0-.09.373v26.887h-5.025V319.014a.819.819,0,0,0-1.449-.523c-6.584,7.934-8.564,16.672-5.3,23.376,3.166,6.49,10.67,10.212,20.588,10.212a48.134,48.134,0,0,0,20.863-5.116,53.219,53.219,0,0,0,8.453-5.131.825.825,0,0,0,.33-.657V319.73c0-6.429-2.86-9.69-8.5-9.693a8.443,8.443,0,0,0-4.994,1.657,8.586,8.586,0,0,0-3.165,3.728.822.822,0,0,0-.061.31v26.957h-5.025V316.82a5.926,5.926,0,0,0-2.42-4.994m30.827,21.055V318.4c0-4.356-1.148-7.8-3.408-10.234-2.28-2.48-5.516-3.737-9.616-3.737a15.468,15.468,0,0,0-6.627,1.516,10.55,10.55,0,0,0-3.859,2.878,11.327,11.327,0,0,0-5.568-3.626,41.368,41.368,0,0,1,19.77-2.233c6.676,1.071,11.61,4.238,13.894,8.918,2.9,5.939,1.18,13.753-4.586,21m6.058-21.717c-5.165-10.587-21.641-13.382-38.326-6.5a.819.819,0,0,0,.207,1.569c3.63.469,6.288,1.974,7.9,4.476a.82.82,0,0,0,1.414-.063,7.869,7.869,0,0,1,3.8-3.217,13.843,13.843,0,0,1,5.928-1.36c3.623,0,6.453,1.08,8.412,3.21s2.973,5.193,2.973,9.122v16.72a.819.819,0,0,0,1.43.546c7.381-8.256,9.723-17.415,6.267-24.5" transform="translate(-11.033)" fill="currentColor"/>
  </g>
</svg>
