<svg xmlns="http://www.w3.org/2000/svg" width="132.606" height="98.195" viewBox="0 0 132.606 98.195">
  <g id="Group_2011" data-name="Group 2011" transform="translate(-56.001 -23.902)">
    <path id="Path_12378" data-name="Path 12378" d="M461.947,398.971q.753-.069.754-.917v-14.62a4.853,4.853,0,0,1,.137-1.467,1.155,1.155,0,0,1,1.165-.618,9.786,9.786,0,0,1,3.108.278,5.165,5.165,0,0,1,1.9,1.734v-1.926q-.069-.7-1.029-.7-12.067-.046-13.667,0c-.382.03-.572.191-.572.48v2.263a15.9,15.9,0,0,1,1.248-1.257,3.193,3.193,0,0,1,1.929-.8,16.67,16.67,0,0,1,2-.069q1.18-.023,1.18,1.691v15.93ZM449.7,382.446a4.579,4.579,0,0,0-2.126-1.051,6.093,6.093,0,0,0-1.394-.161,4.957,4.957,0,0,0-3.7,1.372,3.267,3.267,0,0,0-1.028,2.331,2.533,2.533,0,0,0,.365,1.463,8.878,8.878,0,0,0,2.926,2.286,26.191,26.191,0,0,1,3.383,2.126,5.48,5.48,0,0,1,1.737,2.056,3.791,3.791,0,0,1,.228,1.326,3.061,3.061,0,0,1-.32,1.463,6.63,6.63,0,0,1-3.086,2.651,9.607,9.607,0,0,1-4.091.869,13.174,13.174,0,0,1-2.492-.252q-1.44-.274-1.44-1.211v-2.148q1.646,2.972,4.091,2.971a4.084,4.084,0,0,0,1.805-.388q2.812-1.417,2.811-3.314a2.638,2.638,0,0,0-.617-1.76,7.911,7.911,0,0,0-2.354-1.691,21.586,21.586,0,0,1-3.611-2.125,5.338,5.338,0,0,1-1.509-1.714,4.547,4.547,0,0,1-.388-2.126,4.3,4.3,0,0,1,1.805-3.406,6.844,6.844,0,0,1,3.565-1.326,16.751,16.751,0,0,1,2.354-.137h1.051q1.395.092,1.44.115a2.458,2.458,0,0,1,1.28.5,5.042,5.042,0,0,1,.343,2.628,3.04,3.04,0,0,0-1.029-1.348M431.23,393.165a.614.614,0,0,0-.091-.3l-3.36-8.845q-.229-.5-.457-.5c-.137,0-.251.168-.343.5l-2.331,9.462h6.1q.481-.023.48-.32m5.463,5.806h-2.651q-.869.182-1.486-1.851-.5-1.394-.754-1.966a2.736,2.736,0,0,0-.434-.754,1.224,1.224,0,0,0-.8-.229h-6.126l-1.234,4.137a2.22,2.22,0,0,1-.343.434.828.828,0,0,1-.572.229h-.983l6.171-18.17q.069-.229.457-.321a1.113,1.113,0,0,1,.343-.045h.983Zm-25.484,0q.754-.069.617-1.051v-6.56q.069-.96.846-.96H417.7q.3-.044.3-.4,0-.176-.457-.22h-5.714v-7.248q.092-1.231,1.166-1.208,3.519.159,4.685.251A4.779,4.779,0,0,1,421.242,384v-1.645a1.546,1.546,0,0,0-1.76-1.578q-6.833.024-8.845,0-1.395.069-1.394,1.188v17Zm-7.565-16.684a6.831,6.831,0,0,0-1.3-.458,20.6,20.6,0,0,0-3.313-.342,21.114,21.114,0,0,1-2.194.023q-1.075.092-1.074,1.3v7.039h5.577q.663.023.777.182-.023.549-.548.412H396.6q-.891.092-.891,1.3v6.536h3.017a13.55,13.55,0,0,0,4.822-.731q1.667-.754,1.759-1.943v2.446a.927.927,0,0,1-.32.778,1.337,1.337,0,0,1-.685.16H393.13V382.629a1.8,1.8,0,0,1,2.035-1.851q6.536-.068,8.616,0,1.53.092,1.531,1.326v1.966a2.922,2.922,0,0,0-1.668-1.783m-25.666-1.554q1.348.068,1.211,1.005V389.3q.023.526.366.526a1.222,1.222,0,0,0,.709-.388q6.627-7.633,6.948-8,.663-.754,1.052-.708h1.417l-8.32,8.3,8.389,9.942h-1.783a2.567,2.567,0,0,1-1.783-.8q-6.034-6.6-6.308-6.9a.526.526,0,0,0-.366-.183c-.167,0-.274.161-.32.48V398.4q-.069.571-.869.572h-1.851V380.732ZM367.9,393.165a.613.613,0,0,0-.091-.3l-3.36-8.845q-.228-.5-.457-.5c-.137,0-.251.168-.342.5l-2.332,9.462h6.1q.481-.023.48-.32m5.463,5.806h-2.651q-.869.182-1.486-1.851-.5-1.394-.754-1.966a2.735,2.735,0,0,0-.434-.754,1.222,1.222,0,0,0-.8-.229h-6.126l-1.234,4.137a2.221,2.221,0,0,1-.343.434.828.828,0,0,1-.572.229h-.983l6.171-18.17q.069-.229.458-.321a1.1,1.1,0,0,1,.342-.045h.983Zm-18.444-18.216v18.216h-1.76a.819.819,0,0,1-.731-.526,1.253,1.253,0,0,1-.114-.458V383.932l-5.737,14.445a1.019,1.019,0,0,1-.388.526.8.8,0,0,1-.206.069h-1.44q-.365.137-.777-.8l-4.663-14.7-1.989,14.993a.518.518,0,0,1-.388.434.716.716,0,0,1-.32.069L337,380.755h2.057a1.031,1.031,0,0,1,1.029.64L346,397.8l6.056-16.181a1.332,1.332,0,0,1,.594-.754.91.91,0,0,1,.343-.115Z" transform="translate(-280.402 -296.501)" fill="currentColor"/>
    <path id="Path_12379" data-name="Path 12379" d="M450.261,417.34H448.8a.509.509,0,0,0-.347.117.846.846,0,0,0-.206.259l-2.074,3.652c-.094.184-.179.357-.255.52a4.1,4.1,0,0,0-.191.492c-.061-.161-.131-.323-.209-.489s-.164-.339-.258-.523l-2.088-3.652a.863.863,0,0,0-.213-.269.524.524,0,0,0-.347-.106h-1.451l3.723,6.2v3.992h1.649V423.54Zm-13.929,0h-8.012v1.381H431.5v8.812h1.649v-8.812h3.179Zm-18.176,8.855v-3.15h3.751V421.75h-3.751v-3.072h4.693V417.34h-6.356v10.192h6.356l.007-1.338Zm-7.984-7.517V417.34h-6.355v10.192h1.663v-4.254h3.985v-1.338h-3.985v-3.263ZM394.2,417.34h-1.677l-4.042,10.192h1.281a.531.531,0,0,0,.354-.12.676.676,0,0,0,.2-.262l.85-2.25h4.388l.849,2.25a.717.717,0,0,0,.206.273.54.54,0,0,0,.354.109h1.281Zm-2.584,6.371,1.4-3.716q.078-.213.17-.492t.17-.612a10.458,10.458,0,0,0,.347,1.1l1.4,3.723Zm-8.224-5.422a3.663,3.663,0,0,0-1.263-.786,4.538,4.538,0,0,0-1.611-.276,3.76,3.76,0,0,0-1.387.241,3.077,3.077,0,0,0-1.023.641,2.751,2.751,0,0,0-.845,1.985,2.856,2.856,0,0,0,.205,1.158,2.363,2.363,0,0,0,.541.779,2.8,2.8,0,0,0,.768.509,8.641,8.641,0,0,0,.878.34q.446.145.878.272a3.927,3.927,0,0,1,.768.311,1.661,1.661,0,0,1,.541.457,1.136,1.136,0,0,1,.206.7,1.537,1.537,0,0,1-.492,1.21,2.015,2.015,0,0,1-1.391.439,2.659,2.659,0,0,1-.949-.152,3.681,3.681,0,0,1-.676-.333c-.186-.12-.346-.231-.478-.333a.614.614,0,0,0-.36-.152.433.433,0,0,0-.219.057.466.466,0,0,0-.163.155l-.481.793a3.955,3.955,0,0,0,.658.552,4.391,4.391,0,0,0,.79.422,4.974,4.974,0,0,0,.885.269,4.734,4.734,0,0,0,.952.1,4,4,0,0,0,1.476-.255,3.147,3.147,0,0,0,1.09-.7,3,3,0,0,0,.676-1.037,3.449,3.449,0,0,0,.234-1.274,2.515,2.515,0,0,0-.205-1.069,2.313,2.313,0,0,0-.541-.743,3.006,3.006,0,0,0-.768-.5q-.432-.2-.882-.354t-.882-.294a4.361,4.361,0,0,1-.768-.322,1.75,1.75,0,0,1-.541-.442,1.012,1.012,0,0,1-.205-.648,1.423,1.423,0,0,1,.109-.562,1.223,1.223,0,0,1,.33-.449,1.554,1.554,0,0,1,.541-.3,2.728,2.728,0,0,1,1.539.011,3.651,3.651,0,0,1,.577.255c.163.092.3.176.411.252a.551.551,0,0,0,.3.113.359.359,0,0,0,.212-.06.623.623,0,0,0,.163-.188Z" transform="translate(-290.344 -305.548)" fill="currentColor"/>
    <path id="Path_12380" data-name="Path 12380" d="M409.669,316.745v26.688a.82.82,0,0,0,.819.819h6.662a.82.82,0,0,0,.819-.819V315.824a7.126,7.126,0,0,1,2.535-2.868,6.847,6.847,0,0,1,4.046-1.356c4.617,0,6.862,2.636,6.862,8.054v21.031a51.658,51.658,0,0,1-7.861,4.73c-16.545,8.069-34.157,6.121-39.26-4.343-2.74-5.622-1.412-12.79,3.636-19.745v22.1a.82.82,0,0,0,.818.819h6.664a.82.82,0,0,0,.819-.819v-27.5A8.9,8.9,0,0,1,399.059,313a6.987,6.987,0,0,1,3.819-1.4,7.987,7.987,0,0,1,5.014,1.451,4.322,4.322,0,0,1,1.777,3.693m-.782-4.994a9.554,9.554,0,0,0-6.009-1.787,8.578,8.578,0,0,0-4.743,1.688,10.309,10.309,0,0,0-3.456,3.7.82.82,0,0,0-.09.373v26.886h-5.025V318.94a.819.819,0,0,0-1.449-.523c-6.584,7.934-8.564,16.672-5.3,23.375,3.166,6.49,10.67,10.212,20.588,10.212a48.133,48.133,0,0,0,20.863-5.116,53.22,53.22,0,0,0,8.453-5.131.825.825,0,0,0,.33-.657V319.655c0-6.429-2.86-9.69-8.5-9.692a8.443,8.443,0,0,0-4.994,1.657,8.585,8.585,0,0,0-3.165,3.727.823.823,0,0,0-.061.31v26.957h-5.025V316.745a5.926,5.926,0,0,0-2.42-4.994M439.714,332.8V318.323c0-4.356-1.148-7.8-3.408-10.234-2.28-2.479-5.516-3.737-9.615-3.737a15.468,15.468,0,0,0-6.627,1.516,10.549,10.549,0,0,0-3.859,2.878,11.327,11.327,0,0,0-5.567-3.626,41.367,41.367,0,0,1,19.769-2.233c6.676,1.071,11.61,4.238,13.893,8.918,2.9,5.939,1.18,13.753-4.586,21m6.058-21.716c-5.165-10.587-21.641-13.382-38.325-6.5a.819.819,0,0,0,.207,1.569c3.63.469,6.288,1.974,7.9,4.476a.82.82,0,0,0,1.414-.063,7.869,7.869,0,0,1,3.8-3.217,13.843,13.843,0,0,1,5.928-1.36c3.623,0,6.453,1.08,8.412,3.21s2.973,5.193,2.973,9.122v16.72a.819.819,0,0,0,1.43.546c7.381-8.256,9.723-17.414,6.267-24.5" transform="translate(-291.436 -276.925)" fill="currentColor"/>
  </g>
</svg>
